SplineFontDB: 3.0
FontName: CMUBright-SemiBold
FullName: CMU Bright SemiBold
FamilyName: CMU Bright
Weight: SemiBold
Copyright: Converted by Andrey V. Panov from TeX fonts
UComments: "2009-6-18: Created." 
Version: 0.7.0
ItalicAngle: 0
UnderlinePosition: -100
UnderlineWidth: 50
Ascent: 800
Descent: 200
LayerCount: 2
Layer: 0 0 "+BBcEMAQ0BD0EOAQ5 +BD8EOwQwBD0A"  1
Layer: 1 0 "+BB8ENQRABDUENAQ9BDgEOQAA +BD8EOwQwBD0A"  0
NeedsXUIDChange: 1
XUID: [1067 10029037]
FSType: 0
OS2Version: 0
OS2_WeightWidthSlopeOnly: 0
OS2_UseTypoMetrics: 1
CreationTime: 1245318391
ModificationTime: 1245318746
PfmFamily: 17
TTFWeight: 600
TTFWidth: 5
LineGap: 200
VLineGap: 90
OS2TypoAscent: 0
OS2TypoAOffset: 1
OS2TypoDescent: 0
OS2TypoDOffset: 1
OS2TypoLinegap: 200
OS2WinAscent: 899
OS2WinAOffset: 0
OS2WinDescent: 268
OS2WinDOffset: 0
HheadAscent: 899
HheadAOffset: 0
HheadDescent: -268
HheadDOffset: 0
Lookup: 1 0 0 "Case substitutions"  {"Case substitutions subtable"  } ['case' ('cyrl' <'dflt' > 'grek' <'dflt' > 'latn' <'dflt' > ) ]
Lookup: 3 0 0 "Greek alternatives"  {"Greek alternatives subtable"  } ['salt' ('grek' <'dflt' > ) ]
Lookup: 1 0 0 "Greek substitutions"  {"Greek substitutions subtable"  } ['locl' ('grek' <'dflt' > ) ]
Lookup: 4 0 1 "Latin Dutch ligatures"  {"Latin Dutch ligatures subtable"  } ['liga' ('latn' <'NLD ' > ) ]
Lookup: 4 0 1 "Latin ligatures excepting Turkic"  {"Latin ligatures excepting Turkic subtable"  } ['liga' ('latn' <'dflt' 'NLD ' 'VIT ' > ) ]
Lookup: 4 0 1 "Latin ligatures"  {"Latin ligatures subtable"  } ['liga' ('latn' <'dflt' 'NLD ' 'VIT ' 'TRK ' 'AZE ' > ) ]
Lookup: 4 0 1 "Cyrillic ligatures"  {"Cyrillic ligatures subtable"  } ['liga' ('cyrl' <'dflt' 'MKD ' 'SRB ' > ) ]
Lookup: 3 0 0 "Latin alternatives"  {"Latin alternatives subtable"  } ['salt' ('latn' <'dflt' > ) ]
Lookup: 3 0 0 "Stilistic set 01"  {"Stilistic set 01 subtable"  } ['ss01' ('latn' <'dflt' > 'grek' <'dflt' > 'cyrl' <'dflt' > ) ]

StartChar: .notdef
Encoding: 0 0 0
Width: 760
Flags: HW
HStem: 10 60<105 655> 705 60<105 655>
VStem: 10 60<112 663> 690 60<112 663>
DStem2: 105 705 70 663 0.702289 -0.711892<5.31938 389.612 448.699 832.991> 70 112 105 70 0.702289 0.711892<0 384.292 443.379 827.672>
LayerCount: 2
Fore
SplineSet
10 10 m 1
 10 765 l 1
 750 765 l 1
 750 10 l 1
 10 10 l 1
70 112 m 1
 346 388 l 1
 70 663 l 1
 70 112 l 1
105 70 m 1
 655 70 l 1
 380 346 l 1
 105 70 l 1
105 705 m 1
 380 429 l 1
 655 705 l 1
 105 705 l 1
414 388 m 1
 690 112 l 1
 690 663 l 1
 414 388 l 1
EndSplineSet
EndChar

StartChar: uni262D
Encoding: 9773 9773 1
Width: 700
Flags: HW
TeX: 117 0
HStem: -1 21G<56 93 593.5 601> 39 76<321.786 462.78> 102 51<140.549 177.987>
VStem: 129 54<101.776 137.734> 556 82<197.341 366.709>
DStem2: 123 357 178 301 0.707107 0.707107<0 86.9741 130.108 182.434>
LayerCount: 2
Fore
SplineSet
40 18 m 0
 40 64 129 102 129 128 c 0
 129 148 134 153 148 153 c 0xb8
 162 153 164 157 182 180 c 1
 229 156 307 115 390 115 c 0
 438 115 463 128 463 129 c 0
 463 135 406 186 240 363 c 1
 178 301 l 1
 123 357 l 1
 252 486 l 1
 347 470 l 1
 271 393 l 1
 484 190 l 1
 513 165 l 1
 519 165 556 218 556 295 c 0
 556 473 346 588 346 593 c 1
 394 593 638 478 638 267 c 0
 638 167 592 118 580 100 c 1
 636 44 637 42 637 38 c 0xd8
 637 17 605 -1 597 -1 c 2
 596 -1 l 2
 591 -1 590 1 529 62 c 1
 500 51 474 39 428 39 c 0xd8
 297 39 201 138 188 138 c 0
 183 138 182 134 182 130 c 0
 182 126 183 123 183 118 c 0
 183 108 178 102 168 102 c 0
 131 102 122 0 64 -0 c 0
 48 0 40 7 40 18 c 0
EndSplineSet
EndChar

StartChar: uni03F5
Encoding: 1013 1013 2
Width: 452
Flags: HW
HStem: -8 81<256.047 393> 200 73<135 335> 399 82<256.047 393>
LayerCount: 2
Fore
SplineSet
43 236 m 0
 43 383 198 481 393 481 c 1
 393 399 l 1
 293 395 171 376 135 273 c 1
 335 273 l 1
 335 200 l 1
 135 200 l 1
 171 97 293 77 393 73 c 1
 393 -8 l 1
 198 -8 43 89 43 236 c 0
EndSplineSet
EndChar

StartChar: longs
Encoding: 383 383 3
Width: 321
Flags: HW
HStem: 0 21G<98 192> 627 76<209.062 361.574>
VStem: 98 94<0 608.018>
AnchorPoint: "above" 280 695 basechar 0
AnchorPoint: "below" 145 0 basechar 0
LayerCount: 2
Fore
SplineSet
98 0 m 1
 98 525 l 2
 98 578 105 620 157 662 c 0
 194 693 240 703 280 703 c 0
 297 703 322 702 363 695 c 1
 363 610 l 1
 343 617 317 627 278 627 c 0
 243 627 192 615 192 564 c 2
 192 0 l 1
 98 0 l 1
EndSplineSet
EndChar

StartChar: circumflex.cap
Encoding: 65536 -1 4
Width: 525
Flags: HW
HStem: 727 170
DStem2: 94 727 168 727 0.60745 0.794358<44.9513 191.814>
AnchorPoint: "above" 263 711 mark 0
LayerCount: 2
Fore
SplineSet
94 727 m 1
 224 897 l 1
 318 897 l 1
 432 727 l 1
 356 727 l 1
 262 840 l 1
 168 727 l 1
 94 727 l 1
EndSplineSet
EndChar

StartChar: caron.cap
Encoding: 65539 -1 7
Width: 525
Flags: HW
HStem: 727 162
AnchorPoint: "above" 262 711 mark 0
LayerCount: 2
Fore
SplineSet
85 889 m 1
 161 889 l 1
 263 782 l 1
 365 889 l 1
 440 889 l 1
 305 727 l 1
 221 727 l 1
 85 889 l 1
EndSplineSet
EndChar

StartChar: ring.cap
Encoding: 65540 -1 8
Width: 525
Flags: HW
HStem: 652 75<209.771 316.765> 819 75<209.269 316.016>
VStem: 146 59<732.345 813.457> 321 58<732.461 814.028>
AnchorPoint: "above" 262 711 mark 0
LayerCount: 2
Fore
SplineSet
146 773 m 0
 146 834 193 894 263 894 c 0
 331 894 379 837 379 773 c 0
 379 712 333 652 263 652 c 0
 195 652 146 710 146 773 c 0
205 774 m 0
 205 746 212 727 257 727 c 0
 301 727 321 731 321 772 c 0
 321 810 305 819 265 819 c 0
 224 819 205 813 205 774 c 0
EndSplineSet
EndChar

StartChar: breve.cap
Encoding: 65541 -1 9
Width: 525
Flags: HW
HStem: 727 82<188.325 336.858>
VStem: 79 75<841.663 889> 371 75<843.999 889>
AnchorPoint: "above" 262 711 mark 0
LayerCount: 2
Fore
SplineSet
79 889 m 1
 154 889 l 1
 160 819 237 809 262 809 c 0
 288 809 365 819 371 889 c 1
 446 889 l 1
 443 786 353 727 263 727 c 0
 181 727 82 779 79 889 c 1
EndSplineSet
EndChar

StartChar: uni026A
Encoding: 618 618 10
Width: 181
Flags: HW
HStem: 0 21G<32 148> 452 20G<32 148>
VStem: 32 116<0 75 397 472>
AnchorPoint: "affricate-below" 181 -167 basechar 0
AnchorPoint: "affricate-above" 181 695 basechar 0
AnchorPoint: "below" 90 0 basechar 0
AnchorPoint: "above" 90 484 basechar 0
LayerCount: 2
Back
SplineSet
42 0 m 1
 42 472 l 1
 138 472 l 1
 138 0 l 1
 42 0 l 1
EndSplineSet
Fore
SplineSet
32 0 m 1
 32 75 l 1
 42 75 l 1
 42 397 l 1
 32 397 l 1
 32 472 l 1
 148 472 l 1
 148 397 l 1
 138 397 l 1
 138 75 l 1
 148 75 l 1
 148 0 l 1
 32 0 l 1
EndSplineSet
EndChar

StartChar: grave
Encoding: 96 96 11
Width: 525
Flags: HW
TeX: 666 0
HStem: 538 129
VStem: 101 227
DStem2: 197 667 101 667 0.760322 -0.649547<0 125.609>
LayerCount: 2
Fore
SplineSet
101 667 m 1
 197 667 l 1
 328 538 l 1
 252 538 l 1
 101 667 l 1
EndSplineSet
EndChar

StartChar: acute
Encoding: 180 180 12
Width: 525
Flags: HW
TeX: 666 0
HStem: 538 129
VStem: 195 227
DStem2: 195 538 271 538 0.760322 0.649547<57.7845 183.394>
LayerCount: 2
Fore
SplineSet
195 538 m 1
 326 667 l 1
 422 667 l 1
 271 538 l 1
 195 538 l 1
EndSplineSet
EndChar

StartChar: circumflex
Encoding: 710 710 13
Width: 525
Flags: HW
TeX: 666 0
HStem: 537 138
DStem2: 93 537 168 537 0.685694 0.72789<51.427 182.12> 300 675 262 628 0.688473 -0.725262<7.92532 137.952>
LayerCount: 2
Fore
SplineSet
93 537 m 1
 223 675 l 1
 300 675 l 1
 431 537 l 1
 355 537 l 1
 262 628 l 1
 168 537 l 1
 93 537 l 1
EndSplineSet
EndChar

StartChar: tilde
Encoding: 732 732 14
Width: 525
Flags: HW
TeX: 666 0
HStem: 511 75<268.123 356.061> 559 75<167.854 255.449>
VStem: 87 75<510 553.007> 362 75<591.993 635>
LayerCount: 2
Fore
SplineSet
87 510 m 1
 90 595 146 634 193 634 c 0x70
 241 634 290 586 326 586 c 0
 354 586 361 615 362 635 c 1
 437 635 l 1
 434 550 378 511 331 511 c 0xb0
 280 511 236 559 198 559 c 0x70
 184 559 164 551 162 510 c 1
 87 510 l 1
EndSplineSet
EndChar

StartChar: ring
Encoding: 730 730 17
Width: 675
Flags: HW
TeX: 666 0
HStem: 510 33<288.414 385.865> 639 33<289.119 384.71>
VStem: 220 59<549.678 632.242> 395 58<549.072 631.302>
LayerCount: 2
Fore
SplineSet
220 591 m 0
 220 629 263 672 337 672 c 0
 413 672 453 627 453 591 c 0
 453 554 411 510 336 510 c 0
 260 510 220 555 220 591 c 0
279 591 m 0
 279 552 303 544 335 543 c 1
 354 544 395 541 395 590 c 0
 395 629 371 638 339 639 c 0
 319 639 279 640 279 591 c 0
EndSplineSet
EndChar

StartChar: caron
Encoding: 711 711 18
Width: 525
Flags: HW
TeX: 666 0
HStem: 536 131
DStem2: 151 667 76 667 0.746568 -0.665309<0 140.908> 262 576 300 536 0.746568 0.665309<1.75723 142.666>
LayerCount: 2
Fore
SplineSet
76 667 m 1
 151 667 l 1
 261 576 l 1
 262 576 l 1
 372 667 l 1
 447 667 l 1
 300 536 l 1
 223 536 l 1
 76 667 l 1
EndSplineSet
EndChar

StartChar: breve
Encoding: 728 728 19
Width: 525
Flags: HW
TeX: 666 0
HStem: 513 82<183.651 339.497> 647 20G<78 156 367 445>
VStem: 78 75<623.525 667> 370 75<623.191 667>
LayerCount: 2
Fore
SplineSet
78 667 m 1
 153 667 l 1
 159 602 235 595 261 595 c 0
 288 595 364 602 370 667 c 1
 445 667 l 1
 442 566 350 513 262 513 c 0
 173 513 81 567 78 667 c 1
EndSplineSet
EndChar

StartChar: macron
Encoding: 175 175 20
Width: 525
Flags: HW
TeX: 666 0
HStem: 604 80<72 451>
LayerCount: 2
Fore
SplineSet
72 604 m 1
 72 684 l 1
 451 684 l 1
 451 604 l 1
 72 604 l 1
EndSplineSet
EndChar

StartChar: cedilla
Encoding: 184 184 22
Width: 467
Flags: HW
TeX: 0 145
HStem: -163 145<195 203>
VStem: 117 154
DStem2: 117 -163 203 -163 0.424594 0.905384<36.5151 164.399>
LayerCount: 2
Fore
SplineSet
117 -163 m 1
 195 -18 l 1
 271 -18 l 1
 203 -163 l 1
 117 -163 l 1
EndSplineSet
EndChar

StartChar: ogonek
Encoding: 731 731 23
Width: 292
Flags: HW
TeX: 0 166
HStem: -209 89<62.8397 132.145>
VStem: -40 101<-118.192 -62.3296>
LayerCount: 2
Fore
SplineSet
-40 -117 m 0
 -40 -33 79 1 141 59 c 1
 175 -0 l 1
 139 -32 61 -58 61 -98 c 0
 61 -101 61 -104 62 -107 c 1
 66 -112 71 -120 88 -120 c 0
 110 -120 136 -102 156 -70 c 1
 218 -113 l 1
 185 -173 132 -209 75 -209 c 0
 13 -209 -40 -168 -40 -117 c 0
EndSplineSet
EndChar

StartChar: guilsinglleft
Encoding: 8249 8249 25
Width: 408
Flags: HW
TeX: 500 0
VStem: 116 175
LayerCount: 2
Fore
SplineSet
116 250 m 1
 216 425 l 1
 291 425 l 1
 212 250 l 1
 291 75 l 1
 216 75 l 1
 116 250 l 1
EndSplineSet
EndChar

StartChar: guilsinglright
Encoding: 8250 8250 26
Width: 408
Flags: HW
TeX: 500 0
VStem: 116 175
LayerCount: 2
Fore
SplineSet
116 75 m 1
 195 250 l 1
 116 425 l 1
 191 425 l 1
 291 250 l 1
 191 75 l 1
 116 75 l 1
EndSplineSet
EndChar

StartChar: guillemotleft.lat
Encoding: 61696 61696 30
Width: 525
Flags: HW
TeX: 500 0
LayerCount: 2
Fore
SplineSet
116 250 m 1
 239 425 l 1
 314 425 l 1
 212 250 l 1
 314 75 l 1
 239 75 l 1
 116 250 l 1
291 250 m 1
 414 425 l 1
 489 425 l 1
 387 250 l 1
 489 75 l 1
 414 75 l 1
 291 250 l 1
EndSplineSet
EndChar

StartChar: guillemotright.lat
Encoding: 61697 61697 31
Width: 525
Flags: HW
TeX: 500 0
LayerCount: 2
Fore
SplineSet
35 75 m 1
 137 250 l 1
 35 425 l 1
 110 425 l 1
 233 250 l 1
 110 75 l 1
 35 75 l 1
210 75 m 1
 312 250 l 1
 210 425 l 1
 285 425 l 1
 408 250 l 1
 285 75 l 1
 210 75 l 1
EndSplineSet
EndChar

StartChar: endash
Encoding: 8211 8211 32
Width: 525
Flags: HW
TeX: 472 0
ItalicCorrection: 29
HStem: 254 76<0 525>
LayerCount: 2
Fore
SplineSet
0 254 m 1
 0 330 l 1
 525 330 l 1
 525 254 l 1
 0 254 l 1
EndSplineSet
EndChar

StartChar: emdash
Encoding: 8212 8212 33
Width: 1050
Flags: HW
TeX: 472 0
ItalicCorrection: 29
HStem: 254 76<0 1050>
LayerCount: 2
Fore
SplineSet
0 254 m 1
 0 330 l 1
 1050 330 l 1
 1050 254 l 1
 0 254 l 1
EndSplineSet
Substitution2: "Cyrillic substitutions subtable" emdash.cyr
AlternateSubs2: "Cyrillic alternatives subtable" emdash.cyr
EndChar

StartChar: dotlessi
Encoding: 305 305 35
Width: 225
Flags: HW
TeX: 472 0
HStem: 0 21G<65 159> 452 20G<65 159>
VStem: 65 94<0 472>
AnchorPoint: "below" 112 0 basechar 0
AnchorPoint: "above" 112 484 basechar 0
LayerCount: 2
Fore
SplineSet
65 0 m 1
 65 472 l 1
 159 472 l 1
 159 0 l 1
 65 0 l 1
EndSplineSet
EndChar

StartChar: dotlessj
Encoding: 567 567 36
Width: 254
Flags: HW
TeX: 472 166
HStem: -175 79<-50.6603 88.8274> 452 20G<95 189>
VStem: 95 94<-83.6992 472>
AnchorPoint: "below" 87 -167 basechar 0
AnchorPoint: "above" 142 484 basechar 0
LayerCount: 2
Fore
SplineSet
-76 -146 m 1
 -50 -70 l 1
 -25 -87 -5 -96 25 -96 c 0
 49 -96 83 -89 93 -68 c 0
 96 -62 95 -55 95 -49 c 2
 95 472 l 1
 189 472 l 1
 189 -46 l 1
 185 -158 94 -175 54 -175 c 0
 15 -175 -28 -167 -76 -146 c 1
EndSplineSet
EndChar

StartChar: ff
Encoding: 64256 64256 37
Width: 612
Flags: HW
TeX: 694 0
ItalicCorrection: 72
HStem: -0 21G<98 192 389 483> 397 75<28 98 192 300 483 592> 627 76<208.084 361.461 499.876 654.035>
VStem: 98 94<0 397 472 609.516> 389 94<0 397 472 606.812>
LayerCount: 2
Fore
SplineSet
389 -0 m 1
 389 536 l 2
 389 642 473 703 571 703 c 0
 604 703 639 698 655 695 c 1
 655 610 l 1
 630 618 612 627 570 627 c 0
 535 627 481 615 481 564 c 2
 481 472 l 1
 592 472 l 1
 592 397 l 1
 483 397 l 1
 483 -0 l 1
 389 -0 l 1
EndSplineSet
Refer: 112 102 S 1 0 0 1 0 0 2
Ligature2: "Latin ligatures subtable" f f
EndChar

StartChar: fi
Encoding: 64257 64257 38
Width: 550
Flags: HW
TeX: 694 0
HStem: 0 21G<98 192 389 483> 397 75<28 98 192 308> 452 20<389 483> 601 94<389 483> 627 76<201.704 307.109>
VStem: 98 94<0 397 472 617.954> 389 94<0 472 601 695>
LayerCount: 2
Fore
SplineSet
28 397 m 1xc6
 28 472 l 1
 98 472 l 1
 98 526 l 2
 98 554 98 569 106 596 c 0
 122 648 169 703 246 703 c 0xce
 267 703 288 700 308 695 c 1x96
 308 609 l 1
 290 619 271 627 245 627 c 0
 226 627 190 618 190 565 c 2
 190 472 l 1xae
 308 472 l 1
 308 397 l 1
 192 397 l 1
 192 0 l 1
 98 0 l 1
 98 397 l 1
 28 397 l 1xc6
EndSplineSet
Refer: 35 305 S 1 0 0 1 324 0 2
Refer: 367 183 S 1 0 0 1 308 398 2
Ligature2: "Latin ligatures excepting Turkic subtable" f i
EndChar

StartChar: fl
Encoding: 64258 64258 39
Width: 550
Flags: HW
TeX: 694 0
HStem: 0 21G<98 192 389 483> 397 75<28 98 192 308> 627 76<201.547 307.109> 675 20<389 483>
VStem: 98 94<0 397 472 617.954> 389 94<0 695>
LayerCount: 2
Fore
SplineSet
28 397 m 1xec
 28 472 l 1
 98 472 l 1
 98 526 l 2
 98 554 98 569 106 596 c 0
 122 648 169 703 246 703 c 0xec
 267 703 288 700 308 695 c 1xdc
 308 610 l 1
 290 619 271 627 246 627 c 0
 221 627 190 615 190 565 c 2
 190 472 l 1
 308 472 l 1
 308 397 l 1
 192 397 l 1
 192 0 l 1
 98 0 l 1
 98 397 l 1
 28 397 l 1xec
EndSplineSet
Refer: 118 108 S 1 0 0 1 324 0 2
Ligature2: "Latin ligatures subtable" f l
EndChar

StartChar: ffi
Encoding: 64259 64259 40
Width: 842
Flags: HW
TeX: 694 0
HStem: 0 21G<98 192 390 484 681 775> 397 75<28 98 192 308 484 600> 452 20<681 775> 601 94<681 775> 610 85<264.35 335 539.213 600> 627 76<204.571 333.694 492.681 598.856>
VStem: 98 94<0 397 472 612.719> 390 94<0 397 472 616.035> 681 94<0 472 601 695>
LayerCount: 2
Fore
SplineSet
28 397 m 1
 28 472 l 1
 98 472 l 1xc380
 98 535 l 2
 98 657 189 703 262 703 c 0xc780
 284 703 306 701 335 695 c 1
 335 610 l 1x8b80
 308 620 292 627 263 627 c 0
 231 627 190 615 190 564 c 2
 190 472 l 1xa780
 308 472 l 1
 308 397 l 1
 192 397 l 1
 192 0 l 1
 98 0 l 1
 98 397 l 1
 28 397 l 1
390 0 m 1
 390 530 l 2
 390 550 391 571 396 591 c 0
 411 644 458 703 537 703 c 0xc780
 549 703 569 701 600 695 c 1
 600 610 l 1x8b80
 582 619 564 627 538 627 c 0x8780
 514 627 482 615 482 565 c 2
 482 472 l 1xa780
 600 472 l 1
 600 397 l 1
 484 397 l 1
 484 0 l 1
 390 0 l 1
EndSplineSet
Refer: 35 305 S 1 0 0 1 616 0 2
Refer: 367 183 S 1 0 0 1 600 398 2
Ligature2: "Latin ligatures excepting Turkic subtable" ff i
Ligature2: "Latin ligatures excepting Turkic subtable" f f i
EndChar

StartChar: ffl
Encoding: 64260 64260 41
Width: 842
Flags: HW
TeX: 694 0
HStem: 0 21G<98 192 390 484 681 775> 397 75<28 98 192 308 484 600> 610 85<264.35 335 539.167 600> 627 76<204.571 333.694 492.819 599.109> 675 20<681 775>
VStem: 98 94<0 397 472 612.719> 390 94<0 397 472 616.452> 681 94<0 695>
LayerCount: 2
Fore
SplineSet
28 397 m 1
 28 472 l 1
 98 472 l 1
 98 535 l 2
 98 657 189 703 262 703 c 0xd7
 284 703 306 701 335 695 c 1
 335 610 l 1xe7
 308 620 292 627 263 627 c 0
 231 627 190 615 190 564 c 2
 190 472 l 1
 308 472 l 1
 308 397 l 1
 192 397 l 1
 192 0 l 1
 98 0 l 1
 98 397 l 1
 28 397 l 1
390 0 m 1
 390 531 l 2xd7
 390 550 390 569 395 588 c 0
 409 643 457 703 538 703 c 0xd7
 559 703 580 700 600 695 c 1
 600 610 l 1xe7
 582 619 563 627 538 627 c 0
 519 627 482 619 482 565 c 2
 482 472 l 1
 600 472 l 1
 600 397 l 1
 484 397 l 1
 484 0 l 1
 390 0 l 1
EndSplineSet
Refer: 118 108 S 1 0 0 1 616 0 2
Ligature2: "Latin ligatures subtable" ff l
Ligature2: "Latin ligatures subtable" f f l
EndChar

StartChar: uni2423
Encoding: 9251 9251 42
Width: 525
Flags: HW
TeX: 472 83
HStem: -110 53<96 428>
VStem: 43 53<-57 275.627> 428 52<-57 275.612>
LayerCount: 2
Fore
SplineSet
43 -70 m 2
 43 243 l 2
 43 272 62 276 69 276 c 0
 93 276 96 255 96 242 c 2
 96 -57 l 1
 428 -57 l 1
 428 237 l 2
 428 238 427 240 427 242 c 0
 427 254 429 276 454 276 c 0
 462 276 480 273 480 243 c 2
 480 -77 l 2
 480 -91 477 -110 443 -110 c 2
 77 -110 l 2
 42 -110 43 -86 43 -70 c 2
EndSplineSet
EndChar

StartChar: exclam
Encoding: 33 33 43
Width: 325
Flags: HW
TeX: 694 0
HStem: 0 117<103 220> 675 20G<103 220>
VStem: 103 117<0 117 410.333 695> 115 93<207 491.667>
LayerCount: 2
Fore
SplineSet
103 695 m 1xe0
 220 695 l 1xe0
 208 207 l 1
 115 207 l 1xd0
 103 695 l 1xe0
EndSplineSet
Refer: 56 46 S 1 0 0 1 16 0 2
EndChar

StartChar: quotedbl
Encoding: 34 34 44
Width: 525
Flags: HW
TeX: 694 0
HStem: 399 296<136 212 312 388>
VStem: 128 94<487.8 695> 136 76<399 596.75> 302 97<506.636 695> 312 76<399 587.364>
LayerCount: 2
Fore
SplineSet
126 695 m 1
 222 695 l 1xc0
 212 399 l 1
 136 399 l 1xa0
 128 625 l 1
 126 695 l 1
EndSplineSet
Refer: 281 39 S 1 0 0 1 205 0 2
EndChar

StartChar: numbersign
Encoding: 35 35 45
Width: 875
Flags: HW
TeX: 694 166
HStem: -166 21G<203 229 427 453> 120 75<61.9062 244 345 469 569 812.196> 333 75<61.8546 305 405 529 630 812.285> 674 20G<421 447 646 672>
VStem: 175 78<-161.309 -100.5> 400 77<-161.309 -111.197 629.507 689.004> 621 78<628.5 688.438>
DStem2: 244 120 323 120 0.275912 0.961183<-241.905 0 99.9558 221.563 321.242 563.147> 469 120 548 120 0.275912 0.961183<-241.905 0 99.6799 221.287 321.242 563.147>
LayerCount: 2
Fore
SplineSet
58 157 m 0
 58 169 64 195 105 195 c 2
 266 195 l 1
 267 196 l 1
 305 333 l 1
 106 333 l 2
 93 333 58 335 58 371 c 0
 58 382 64 399 84 406 c 0
 92 408 99 408 107 408 c 2
 327 408 l 1
 397 653 l 2
 399 659 405 694 437 694 c 0
 457 694 474 677 474 657 c 0
 474 648 467 626 405 408 c 1
 551 408 l 1
 621 653 l 2
 623 659 630 694 662 694 c 0
 682 694 699 677 699 657 c 0
 699 648 692 626 630 408 c 1
 765 408 l 2
 772 408 780 409 787 407 c 0
 798 404 816 393 816 371 c 0
 816 359 810 333 769 333 c 2
 608 333 l 1
 608 332 l 1
 569 195 l 1
 753 195 l 2
 774 195 787 197 798 190 c 0
 809 183 816 170 816 157 c 0
 816 146 810 129 790 122 c 0
 782 120 775 120 767 120 c 2
 548 120 l 1
 477 -125 l 2
 475 -133 469 -166 437 -166 c 0
 417 -166 400 -149 400 -129 c 0
 400 -120 407 -98 469 120 c 1
 323 120 l 1
 253 -125 l 2
 251 -133 245 -166 213 -166 c 0
 193 -166 175 -149 175 -129 c 0
 175 -120 182 -98 244 120 c 1
 109 120 l 2
 102 120 94 119 87 121 c 0
 73 125 58 139 58 157 c 0
345 195 m 1
 491 195 l 1
 491 196 l 1
 529 333 l 1
 383 333 l 1
 383 332 l 1
 345 195 l 1
EndSplineSet
EndChar

StartChar: dollar
Encoding: 36 36 46
Width: 525
Flags: HW
TeX: 750 55
HStem: -6 80<144.504 224> 621 80<299 375.315>
VStem: 57 89<462.826 580.657> 224 75<-55 -3.03107 78 298 424 618 700 750> 377 88<120.509 255.132>
LayerCount: 2
Fore
SplineSet
46 61 m 1
 61 148 l 1
 122 100 156 85 224 74 c 1
 224 316 l 1
 97 347 57 439 57 508 c 0
 57 598 124 682 223 699 c 1
 224 700 l 1
 224 750 l 1
 299 750 l 1
 299 701 l 1
 303 697 353 707 448 647 c 1
 433 564 l 1
 384 599 356 614 299 621 c 1
 299 406 l 1
 421 377 465 279 465 201 c 0
 465 100 397 16 299 -5 c 1
 299 -55 l 1
 224 -55 l 1
 224 -6 l 1
 160 2 106 19 46 61 c 1
146 521 m 0
 146 482 169 443 224 424 c 1
 224 618 l 1
 169 599 146 560 146 521 c 0
299 78 m 1
 362 102 377 155 377 188 c 0
 377 261 322 288 300 298 c 1
 299 265 l 1
 299 78 l 1
EndSplineSet
EndChar

StartChar: percent
Encoding: 37 37 47
Width: 889
Flags: HW
TeX: 750 55
HStem: -55 75<640.701 714.481> 271 76<641.661 716.194> 347 76<166.34 242.841> 674 76<166.685 242.844>
VStem: 58 91<443.37 650.122> 269 88<452.589 645.807> 532 91<41.1181 249.6> 743 87<49.8981 242.683>
DStem2: 190 -15 240 -27 0.529999 0.847998<-16.0184 901.484>
LayerCount: 2
Fore
SplineSet
58 549 m 0
 58 672 135 750 208 750 c 0
 283 750 357 670 357 548 c 0
 357 429 283 347 208 347 c 0
 134 347 58 426 58 549 c 0
149 548 m 1
 149 548 149 469 166 445 c 0
 175 432 191 423 207 423 c 0
 244 423 269 481 269 548 c 0
 269 584 261 672 204 674 c 1
 153 670 149 610 149 560 c 2
 149 548 l 1
185 -31 m 0
 185 -26 187 -21 190 -15 c 2
 655 729 l 2
 660 737 668 749 682 749 c 0
 694 749 706 740 706 726 c 0
 706 717 698 705 693 696 c 2
 240 -27 l 2
 233 -39 225 -55 209 -55 c 0
 198 -55 185 -45 185 -31 c 0
532 146 m 0
 532 265 605 347 682 347 c 0
 764 347 830 256 830 145 c 0
 830 26 757 -55 682 -55 c 0
 608 -55 532 23 532 146 c 0
623 139 m 0
 623 90 626 20 681 20 c 0
 718 20 743 79 743 146 c 0
 743 182 735 269 678 271 c 1
 627 267 623 207 623 157 c 0
 623 151 623 145 623 139 c 0
EndSplineSet
EndChar

StartChar: ampersand
Encoding: 38 38 48
Width: 783
Flags: HW
TeX: 694 0
HStem: -17 80<174.212 347.861 525.825 722.292> 636 75<268.475 357.761>
VStem: 43 97<98.3711 224.072> 164 79<416.877 609.464> 378 87<491.44 616.339> 620 79<371.754 418.861>
DStem2: 193 348 225 278 0.796613 0.604489<-134.735 -16.8226 94.2019 231.523>
LayerCount: 2
Fore
SplineSet
43 155 m 0
 43 167 44 227 98 276 c 0
 107 284 117 291 193 348 c 1
 178 391 164 439 164 499 c 0
 164 617 225 711 317 711 c 0
 411 711 465 624 465 548 c 0
 465 462 365 382 299 335 c 1
 343 251 413 179 446 144 c 1
 470 163 569 247 620 438 c 1
 699 417 l 1
 662 275 591 171 509 93 c 1
 548 72 571 63 614 63 c 0
 661 63 687 73 724 85 c 1
 724 1 l 1
 688 -10 650 -17 613 -17 c 0
 543 -17 482 9 439 40 c 1
 403 21 335 -17 236 -17 c 0
 118 -17 43 66 43 155 c 0
140 162 m 0
 140 115 172 63 237 63 c 0
 291 63 334 78 371 94 c 1
 309 158 265 208 226 278 c 1
 225 278 l 1
 182 246 140 223 140 162 c 0
243 542 m 0
 243 479 260 434 268 405 c 1
 304 432 378 491 378 549 c 0
 378 580 363 636 316 636 c 0
 279 636 243 601 243 542 c 0
EndSplineSet
EndChar

StartChar: parenleft
Encoding: 40 40 50
Width: 408
Flags: HW
TeX: 750 222
VStem: 78 96<73.7959 454.415>
LayerCount: 2
Fore
SplineSet
78 264 m 0
 78 556 205 692 273 750 c 1
 349 750 l 1
 299 700 174 576 174 264 c 0
 174 -48 299 -172 349 -222 c 1
 273 -222 l 1
 205 -164 78 -27 78 264 c 0
EndSplineSet
EndChar

StartChar: parenright
Encoding: 41 41 51
Width: 408
Flags: HW
TeX: 750 222
VStem: 233 96<73.7959 456.648>
LayerCount: 2
Fore
SplineSet
58 -222 m 1
 107 -172 233 -48 233 264 c 0
 233 585 100 706 58 750 c 1
 133 750 l 1
 201 692 329 556 329 264 c 0
 329 -27 201 -164 133 -222 c 1
 58 -222 l 1
EndSplineSet
EndChar

StartChar: asterisk
Encoding: 42 42 52
Width: 525
Flags: HW
TeX: 750 0
VStem: 223 77<323.746 490.997 578.048 746.098>
LayerCount: 2
Fore
SplineSet
75 449 m 0
 75 478 87 477 220 535 c 1
 82 594 75 592 75 621 c 0
 75 643 93 662 114 662 c 0
 129 662 129 661 240 573 c 1
 227 682 223 707 223 716 c 0
 223 729 236 750 261 750 c 0
 286 750 300 730 300 717 c 0
 300 704 295 672 283 573 c 1
 395 661 393 662 409 662 c 0
 429 662 447 644 447 621 c 0
 447 592 436 593 303 535 c 1
 434 478 447 479 447 448 c 0
 447 426 428 407 408 407 c 0
 393 407 388 414 283 496 c 1
 295 398 300 367 300 354 c 0
 300 340 286 320 261 320 c 0
 236 320 223 340 223 353 c 0
 223 362 227 388 240 496 c 1
 131 410 130 407 114 407 c 0
 96 407 75 424 75 449 c 0
EndSplineSet
EndChar

StartChar: plus
Encoding: 43 43 53
Width: 642
Flags: HW
TeX: 527 -1
HStem: 226 76<62.0078 283 358 578.729>
VStem: 283 75<5.88864 226 302 521.992>
LayerCount: 2
Fore
SplineSet
58 264 m 0
 58 276 65 301 99 302 c 1
 283 302 l 1
 283 485 l 1
 285 519 310 526 321 526 c 0
 332 526 358 518 358 485 c 2
 358 302 l 1
 542 302 l 1
 575 301 583 275 583 264 c 0
 583 253 576 226 542 226 c 2
 358 226 l 1
 358 43 l 1
 357 10 332 2 321 2 c 0
 310 2 283 9 283 43 c 2
 283 226 l 1
 99 226 l 1
 64 227 58 254 58 264 c 0
EndSplineSet
EndChar

StartChar: comma
Encoding: 44 44 54
Width: 292
Flags: HW
TeX: 116 111
HStem: -111 228<122 156.149>
VStem: 86 118<0.78273 117> 86 59<-111 -89.4167>
LayerCount: 2
Fore
SplineSet
86 0 m 1xa0
 86 117 l 1
 204 117 l 1
 204 17 l 1xc0
 202 -15 196 -11 145 -111 c 1
 86 -111 l 1
 122 0 l 1
 86 0 l 1xa0
EndSplineSet
EndChar

StartChar: hyphen
Encoding: 45 45 55
Width: 350
Flags: HW
TeX: 472 0
HStem: 199 75<11 291>
VStem: 11 280<199 274>
LayerCount: 2
Fore
SplineSet
11 199 m 1
 11 274 l 1
 291 274 l 1
 291 199 l 1
 11 199 l 1
EndSplineSet
EndChar

StartChar: period
Encoding: 46 46 56
Width: 292
Flags: HW
TeX: 116 0
HStem: 0 117<87 204>
VStem: 87 117<0 117>
LayerCount: 2
Fore
SplineSet
87 0 m 1
 87 117 l 1
 204 117 l 1
 204 0 l 1
 87 0 l 1
EndSplineSet
EndChar

StartChar: slash
Encoding: 47 47 57
Width: 525
Flags: HW
TeX: 750 222
DStem2: 66 -155 459 687 0.347421 0.937709<-30.4266 952.503>
LayerCount: 2
Fore
SplineSet
58 -185 m 0
 58 -174 63 -164 66 -155 c 2
 385 704 l 2
 393 725 400 750 428 750 c 0
 447 750 466 733 466 713 c 0
 466 704 462 695 459 687 c 2
 140 -174 l 2
 133 -193 126 -222 96 -222 c 0
 77 -222 58 -207 58 -185 c 0
EndSplineSet
EndChar

StartChar: zero
Encoding: 48 48 58
Width: 525
Flags: HW
TeX: 655 0
HStem: -17 76<196.49 326.344> 597 75<192.334 329.618>
VStem: 40 96<145.84 508.25> 386 97<144.375 508.959>
LayerCount: 2
Fore
SplineSet
40 322 m 0
 40 421 45 607 191 660 c 0
 211 667 234 672 262 672 c 0
 315 672 368 652 405 613 c 0
 441 576 483 502 483 329 c 0
 483 230 477 47 332 -5 c 0
 312 -12 289 -17 261 -17 c 0
 207 -17 153 5 116 44 c 0
 81 81 40 152 40 322 c 0
136 312 m 2
 136 252 138 148 174 102 c 0
 195 75 227 59 261 59 c 0
 296 59 349 77 370 146 c 0
 386 199 386 277 386 333 c 2
 386 363 l 2
 386 425 384 508 354 551 c 0
 333 581 297 597 261 597 c 0
 223 597 187 580 167 549 c 0
 138 506 136 427 136 366 c 2
 136 312 l 2
EndSplineSet
Substitution2: "LGC old numerals subtable" zerooldstyle
EndChar

StartChar: one
Encoding: 49 49 59
Width: 525
Flags: HW
TeX: 655 0
HStem: 0 75<95 226 323 452> 531 76<89 223.3> 652 20G<275.5 323>
VStem: 226 97<75 552>
LayerCount: 2
Fore
SplineSet
89 531 m 1
 89 607 l 1
 189 607 252 629 299 672 c 1
 323 672 l 1
 323 75 l 1
 452 75 l 1
 452 0 l 1
 95 0 l 1
 95 75 l 1
 226 75 l 1
 226 552 l 1
 175 534 130 531 89 531 c 1
EndSplineSet
Substitution2: "LGC old numerals subtable" oneoldstyle
EndChar

StartChar: two
Encoding: 50 50 60
Width: 525
Flags: HW
TeX: 655 0
HStem: 0 84<137 472> 593 79<162.777 310.302>
VStem: 372 100<374.449 529.783>
LayerCount: 2
Fore
SplineSet
43 527 m 1
 84 643 168 672 247 672 c 0
 390 672 472 569 472 456 c 0
 472 359 397 303 305 231 c 0
 270 203 237 173 137 84 c 1
 472 84 l 1
 472 0 l 1
 52 0 l 1
 52 80 l 1
 191 211 178 199 246 257 c 0
 320 320 372 375 372 454 c 0
 372 531 317 593 233 593 c 0
 150 593 116 528 98 459 c 1
 43 527 l 1
EndSplineSet
Substitution2: "LGC old numerals subtable" twooldstyle
EndChar

StartChar: three
Encoding: 51 51 61
Width: 525
Flags: HW
TeX: 655 0
HStem: -17 78<150.274 328.621> 316 76<174 288.242> 597 75<174.779 327.394>
VStem: 352 99<450.553 571.825> 376 104<109.115 264.791>
LayerCount: 2
Fore
SplineSet
43 71 m 1
 57 147 l 1
 85 121 148 61 254 61 c 0
 330 61 376 108 376 189 c 0xe8
 376 245 351 316 250 316 c 2
 174 316 l 1
 174 392 l 1
 255 398 257 399 275 406 c 0
 310 421 352 458 352 516 c 0
 352 567 318 597 258 597 c 0xf0
 156 597 108 516 104 509 c 1
 58 575 l 1
 135 668 226 672 258 672 c 0
 361 672 451 606 451 515 c 0xf0
 451 474 435 403 345 353 c 1
 436 321 480 253 480 186 c 0
 480 92 398 -17 255 -17 c 0
 170 -17 99 18 43 71 c 1
EndSplineSet
Substitution2: "LGC old numerals subtable" threeoldstyle
EndChar

StartChar: four
Encoding: 52 52 62
Width: 525
Flags: HW
TeX: 655 0
HStem: 0 21G<302 397> 156 80<124 302 397 495> 644 20G<272.117 397>
VStem: 306 91<0 156 236 583>
LayerCount: 2
Fore
SplineSet
29 156 m 1
 29 223 l 2
 29 236 31 237 41 255 c 2
 284 664 l 1
 397 664 l 1
 397 236 l 1
 495 236 l 1
 495 156 l 1
 397 156 l 1
 397 0 l 1
 302 0 l 1
 302 156 l 1
 29 156 l 1
124 236 m 1
 306 236 l 1
 306 583 l 1
 291 517 235 425 124 236 c 1
EndSplineSet
Substitution2: "LGC old numerals subtable" fouroldstyle
EndChar

StartChar: five
Encoding: 53 53 63
Width: 525
Flags: HW
TeX: 655 0
HStem: -17 78<152.61 319.099> 346 76<203.642 332.167> 576 79<171 437>
VStem: 79 92<389 576> 79 84<272 305.558> 368 104<110.548 300.257>
LayerCount: 2
Fore
SplineSet
35 81 m 1
 79 151 l 1
 133 69 207 61 239 61 c 0
 311 61 333 93 345 107 c 1
 365 136 368 173 368 207 c 0xec
 368 253 366 346 271 346 c 0
 214 346 180 309 163 272 c 1
 79 272 l 1
 79 655 l 1xec
 437 655 l 1
 437 576 l 1
 171 576 l 1
 171 389 l 1xf4
 201 409 230 422 272 422 c 0
 381 422 472 325 472 204 c 0
 472 78 365 -17 239 -17 c 0
 209 -17 114 -14 35 81 c 1
EndSplineSet
Substitution2: "LGC old numerals subtable" fiveoldstyle
EndChar

StartChar: six
Encoding: 54 54 64
Width: 525
Flags: HW
TeX: 655 0
HStem: -17 77<196.646 337.986> 597 75<239.352 428.09>
VStem: 43 102<159.459 324.655 360 462.323> 381 99<115.885 347.717>
LayerCount: 2
Fore
SplineSet
43 322 m 0
 43 546 185 672 323 672 c 0
 363 672 389 667 430 653 c 1
 430 576 l 1
 389 591 365 597 324 597 c 0
 179 597 143 461 143 368 c 2
 143 360 l 1
 206 467 321 464 323 464 c 0
 351 461 386 461 428 403 c 0
 468 346 480 293 480 227 c 0
 480 153 463 101 409 46 c 0
 372 9 331 -17 264 -17 c 0
 176 -17 43 42 43 322 c 0
144 224 m 1
 147 168 154 60 264 60 c 0
 380 60 381 157 381 214 c 2
 381 243 l 2
 381 297 379 372 301 386 c 0
 290 388 279 388 268 389 c 1
 250 387 l 1
 182 376 145 308 145 241 c 2
 145 224 l 1
 144 224 l 1
EndSplineSet
Substitution2: "LGC old numerals subtable" sixoldstyle
EndChar

StartChar: seven
Encoding: 55 55 65
Width: 525
Flags: HW
TeX: 655 0
HStem: -8 21G<153 253> 572 83<43 415>
VStem: 153 100<-8 169.507>
LayerCount: 2
Fore
SplineSet
43 572 m 1
 43 655 l 1
 480 655 l 1
 480 575 l 1
 334 418 253 206 253 -8 c 1
 153 -8 l 1
 153 213 246 399 364 523 c 0
 380 540 398 556 415 572 c 1
 43 572 l 1
EndSplineSet
Substitution2: "LGC old numerals subtable" sevenoldstyle
EndChar

StartChar: eight
Encoding: 56 56 66
Width: 525
Flags: HW
TeX: 655 0
HStem: -17 77<181.317 341.842> 316 76<185.183 340.104> 597 75<183.315 345.25>
VStem: 43 98<103.018 265.707> 58 90<426.098 564.62> 376 90<425.038 566.108> 382 98<102.788 264.915>
LayerCount: 2
Fore
SplineSet
43 187 m 0xf2
 43 254 85 319 180 354 c 1
 132 369 58 414 58 495 c 0
 58 585 141 672 261 672 c 0
 375 672 466 590 466 495 c 0xec
 466 410 388 372 343 354 c 1
 400 336 480 281 480 187 c 0
 480 76 382 -17 262 -17 c 0
 141 -17 43 76 43 187 c 0xf2
141 188 m 0
 141 124 160 60 261 60 c 0
 358 60 382 117 382 188 c 0xf2
 382 291 322 316 262 316 c 0
 201 316 141 290 141 188 c 0
148 495 m 0
 148 433 177 392 261 392 c 0
 329 392 376 418 376 494 c 0
 376 574 330 597 268 597 c 2xec
 262 597 l 2
 224 597 148 594 148 495 c 0
EndSplineSet
Substitution2: "LGC old numerals subtable" eightoldstyle
EndChar

StartChar: nine
Encoding: 57 57 67
Width: 525
Flags: HW
TeX: 655 0
HStem: -17 77<137.304 293.881> 597 75<187.698 331.321>
VStem: 43 99<305.51 537.89> 379 101<193.516 295 331.395 503.29>
LayerCount: 2
Fore
SplineSet
43 429 m 0
 43 503 61 554 114 608 c 0
 152 647 196 672 265 672 c 0
 351 672 480 616 480 332 c 0
 480 133 363 -17 215 -17 c 0
 159 -17 121 -3 75 29 c 1
 114 97 l 1
 133 85 161 60 216 60 c 0
 348 60 381 195 381 285 c 0
 381 289 380 291 380 295 c 1
 317 190 214 192 200 191 c 1
 171 194 136 194 94 254 c 0
 57 307 43 354 43 429 c 0
142 413 m 2
 142 357 145 282 225 269 c 0
 235 267 246 268 256 267 c 1
 281 270 300 273 323 291 c 0
 361 321 379 369 379 417 c 0
 379 422 378 427 378 432 c 1
 379 432 l 1
 376 491 371 597 264 597 c 0
 144 597 142 499 142 442 c 2
 142 413 l 2
EndSplineSet
Substitution2: "LGC old numerals subtable" nineoldstyle
EndChar

StartChar: less
Encoding: 60 60 70
Width: 642
Flags: HW
TeX: 557 29
DStem2: 115 304 192 265 0.824493 0.565872<41.417 481.246> 192 264 115 225 0.823462 -0.567372<0 440.521>
LayerCount: 2
Fore
SplineSet
87 264 m 0
 87 288 108 299 115 304 c 2
 488 560 l 2
 496 565 504 571 516 571 c 0
 538 571 553 552 553 533 c 0
 553 514 542 505 530 497 c 2
 247 302 l 2
 229 289 211 277 192 265 c 1
 192 264 l 1
 211 252 229 239 247 226 c 2
 530 31 l 2
 546 20 553 10 553 -5 c 0
 553 -24 538 -43 516 -43 c 0
 504 -43 496 -37 488 -32 c 2
 115 225 l 2
 108 230 87 240 87 264 c 0
EndSplineSet
EndChar

StartChar: equal
Encoding: 61 61 71
Width: 642
Flags: HW
TeX: 385 -142
HStem: 129 76<61.9673 578.704> 324 75<61.8713 579.513>
LayerCount: 2
Fore
SplineSet
58 167 m 0
 58 182 68 200 90 204 c 0
 98 205 106 205 114 205 c 2
 537 205 l 2
 547 205 582 204 582 167 c 0
 582 155 578 129 535 129 c 2
 104 129 l 1
 63 130 58 157 58 167 c 0
58 361 m 0
 58 397 93 399 108 399 c 2
 535 399 l 2
 546 399 583 398 583 361 c 0
 583 350 578 324 537 324 c 2
 103 324 l 2
 63 324 58 352 58 361 c 0
EndSplineSet
EndChar

StartChar: greater
Encoding: 62 62 72
Width: 642
Flags: HW
TeX: 557 29
DStem2: 153 560 111 497 0.824493 -0.565872<-28.845 410.982> 394 226 153 -32 0.823462 0.567372<-373.669 66.8505>
LayerCount: 2
Fore
SplineSet
87 -5 m 0
 87 14 100 23 111 31 c 2
 394 226 l 2
 412 239 430 252 449 264 c 1
 449 265 l 1
 430 277 412 289 394 302 c 2
 111 497 l 2
 95 508 87 518 87 533 c 0
 87 556 108 571 125 571 c 0
 137 571 147 564 153 560 c 2
 526 304 l 2
 530 301 553 288 553 264 c 0
 553 240 530 228 526 225 c 2
 153 -32 l 2
 147 -36 137 -43 125 -43 c 0
 106 -43 87 -28 87 -5 c 0
EndSplineSet
EndChar

StartChar: question
Encoding: 63 63 73
Width: 496
Flags: HW
TeX: 694 0
HStem: 0 117<174 291> 627 76<138.25 323.497>
VStem: 174 117<0 117> 186 94<207 339.742> 341 96<499.681 610.101>
LayerCount: 2
Fore
SplineSet
58 653 m 1
 115 687 170 703 236 703 c 0xd8
 401 703 437 611 437 550 c 0
 437 472 387 441 367 424 c 0
 282 351 280 276 280 240 c 2
 280 207 l 1
 186 207 l 1
 186 239 l 2
 186 417 298 477 322 502 c 0
 334 515 341 532 341 554 c 0
 341 614 312 627 239 627 c 0
 178 627 136 611 87 574 c 1
 58 653 l 1
EndSplineSet
Refer: 56 46 S 1 0 0 1 87 0 2
EndChar

StartChar: at
Encoding: 64 64 74
Width: 700
Flags: HW
TeX: 694 0
HStem: -8 75<312.813 524.232> 119 76<390.028 497.661> 500 75<390.593 498.407> 627 76<313.554 474.862>
VStem: 58 92<237.653 455.494> 246 91<255.281 439.242> 550 91<255.8 440.409>
LayerCount: 2
Fore
SplineSet
58 348 m 0
 58 549 221 703 407 703 c 0
 456 703 514 689 557 649 c 0
 638 575 641 438 641 358 c 0
 641 192 529 119 443 119 c 0
 341 119 246 214 246 347 c 0
 246 480 341 575 444 575 c 0
 470 575 488 570 515 560 c 1
 502 582 472 627 406 627 c 0
 281 627 150 516 150 347 c 0
 150 202 255 67 412 67 c 0
 485 67 554 91 560 92 c 0
 570 94 580 93 590 93 c 2
 641 93 l 1
 578 25 493 -8 408 -8 c 0
 222 -8 58 144 58 348 c 0
337 348 m 0
 337 254 390 195 444 195 c 0
 505 195 550 268 550 347 c 0
 550 441 497 500 443 500 c 0
 382 500 337 427 337 348 c 0
EndSplineSet
EndChar

StartChar: A
Encoding: 65 65 75
Width: 675
Flags: HW
TeX: 694 0
HStem: 0 21G<29 132.059 528.941 645> 170 79<214 448> 683 20G<273.831 401.141>
DStem2: 29 0 125 0 0.337439 0.941347<32.3941 212.67 296.822 296.822>
AnchorPoint: "ogonek" 565 0 basechar 0
AnchorPoint: "below" 337 0 basechar 0
AnchorPoint: "above" 338 711 basechar 0
LayerCount: 2
Fore
SplineSet
29 0 m 1
 281 703 l 1
 394 703 l 1
 645 0 l 1
 536 0 l 1
 476 170 l 1
 185 170 l 1
 125 0 l 1
 29 0 l 1
214 249 m 1
 448 249 l 1
 387 422 338 562 331 598 c 1
 314 527 238 319 214 249 c 1
EndSplineSet
EndChar

StartChar: B
Encoding: 66 66 76
Width: 687
Flags: HW
TeX: 694 0
HStem: 0 80<182 453.408> 324 75<183 421.336> 615 80<183 428.732>
VStem: 82 100<80 324 399 615> 502 97<463.08 562.057> 529 99<142.066 249.684>
AnchorPoint: "below" 333 0 basechar 0
AnchorPoint: "above" 333 711 basechar 0
LayerCount: 2
Fore
SplineSet
82 0 m 1
 82 695 l 1
 322 695 l 2
 393 695 444 686 496 658 c 0
 561 624 599 570 599 517 c 0xf8
 599 472 572 428 513 395 c 0
 482 378 481 379 431 364 c 1
 552 343 628 271 628 192 c 0
 628 95 528 15 402 2 c 0
 385 0 366 0 349 0 c 2
 82 0 l 1
182 80 m 1
 303 80 l 2
 311 80 318 79 326 79 c 0
 481 79 529 150 529 193 c 0xf4
 529 248 468 311 355 322 c 0
 338 324 322 324 305 324 c 2
 183 324 l 1
 182 289 l 1
 182 80 l 1
182 399 m 1
 303 399 l 2
 429 399 502 458 502 515 c 0xf8
 502 575 413 615 298 615 c 2
 183 615 l 1
 182 583 l 1
 182 399 l 1
EndSplineSet
EndChar

StartChar: C
Encoding: 67 67 77
Width: 671
Flags: HW
TeX: 694 0
HStem: -17 80<319.421 538.003> 632 79<322.068 522.22>
VStem: 64 105<231.514 464.054>
AnchorPoint: "below" 413 0 basechar 0
AnchorPoint: "above" 409 711 basechar 0
LayerCount: 2
Fore
SplineSet
64 347 m 0
 64 552 221 711 409 711 c 0
 488 711 541 700 606 677 c 1
 588 573 l 1
 542 603 499 632 412 632 c 0
 272 632 169 501 169 347 c 0
 169 199 266 63 413 63 c 0
 520 63 557 92 610 126 c 1
 618 39 l 1
 560 6 518 -17 413 -17 c 0
 204 -17 64 159 64 347 c 0
EndSplineSet
EndChar

StartChar: D
Encoding: 68 68 78
Width: 746
Flags: HW
TeX: 694 0
HStem: 0 80<183 448.088> 615 80<184 439.783>
VStem: 81 102<80 615> 584 102<219.356 467.888>
AnchorPoint: "below" 362 0 basechar 0
AnchorPoint: "above" 362 711 basechar 0
LayerCount: 2
Fore
SplineSet
81 0 m 1
 81 695 l 1
 355 695 l 2
 570 695 686 511 686 342 c 0
 686 150 547 19 401 2 c 0
 383 0 365 0 347 0 c 2
 81 0 l 1
183 80 m 1
 299 80 l 2
 309 80 318 79 328 79 c 0
 533 79 584 219 584 342 c 0
 584 469 533 615 327 615 c 2
 184 615 l 1
 183 587 l 1
 183 80 l 1
EndSplineSet
EndChar

StartChar: E
Encoding: 69 69 79
Width: 625
Flags: HW
TeX: 694 0
HStem: 0 84<185 580> 320 80<185 536> 613 79<185 565>
VStem: 80 105<84 320 400 613>
AnchorPoint: "ogonek" 330 0 basechar 0
AnchorPoint: "below" 330 0 basechar 0
AnchorPoint: "above" 330 711 basechar 0
LayerCount: 2
Fore
SplineSet
80 0 m 1
 80 692 l 1
 565 692 l 1
 565 613 l 1
 185 613 l 1
 185 400 l 1
 536 400 l 1
 536 320 l 1
 185 320 l 1
 185 84 l 1
 580 84 l 1
 580 0 l 1
 80 0 l 1
EndSplineSet
EndChar

StartChar: F
Encoding: 70 70 80
Width: 596
Flags: HW
TeX: 694 0
HStem: 0 21G<80 185> 306 80<185 507> 613 79<185 551>
VStem: 80 105<0 306 386 613>
AnchorPoint: "below" 316 0 basechar 0
AnchorPoint: "above" 316 711 basechar 0
LayerCount: 2
Fore
SplineSet
80 0 m 1
 80 692 l 1
 551 692 l 1
 551 613 l 1
 185 613 l 1
 185 386 l 1
 507 386 l 1
 507 306 l 1
 185 306 l 1
 185 0 l 1
 80 0 l 1
EndSplineSet
EndChar

StartChar: G
Encoding: 71 71 81
Width: 700
Flags: HW
TeX: 694 0
HStem: -17 80<320.111 531.4> 249 79<408 533> 632 79<320.334 521.915>
VStem: 64 105<232.952 465.326> 533 96<75.4604 249>
AnchorPoint: "below" 410 0 basechar 0
AnchorPoint: "above" 411 711 basechar 0
LayerCount: 2
Fore
SplineSet
64 348 m 0
 64 549 217 711 411 711 c 0
 491 711 544 699 620 663 c 1
 602 559 l 1
 557 594 509 632 411 632 c 0
 265 632 169 494 169 347 c 0
 169 191 274 63 412 63 c 0
 460 63 497 72 533 80 c 1
 533 249 l 1
 408 249 l 1
 408 328 l 1
 629 328 l 1
 629 32 l 1
 549 -4 476 -17 410 -17 c 0
 205 -17 64 158 64 348 c 0
EndSplineSet
EndChar

StartChar: H
Encoding: 72 72 82
Width: 708
Flags: HW
TeX: 694 0
HStem: 0 21G<80 185 521 626> 321 80<185 521> 675 20G<80 185 521 626>
VStem: 80 105<0 321 401 695> 521 105<0 321 401 695>
AnchorPoint: "below" 353 0 basechar 0
AnchorPoint: "above" 353 711 basechar 0
LayerCount: 2
Fore
SplineSet
80 0 m 1
 80 695 l 1
 185 695 l 1
 185 401 l 1
 521 401 l 1
 521 695 l 1
 626 695 l 1
 626 0 l 1
 521 0 l 1
 521 321 l 1
 185 321 l 1
 185 0 l 1
 80 0 l 1
EndSplineSet
EndChar

StartChar: I
Encoding: 73 73 83
Width: 267
Flags: HW
TeX: 694 0
HStem: 0 21G<80 185> 675 20G<80 185>
VStem: 80 105<0 695>
AnchorPoint: "ogonek" 132 0 basechar 0
AnchorPoint: "below" 132 0 basechar 0
AnchorPoint: "above" 132 711 basechar 0
LayerCount: 2
Fore
SplineSet
80 0 m 1
 80 695 l 1
 185 695 l 1
 185 0 l 1
 80 0 l 1
EndSplineSet
EndChar

StartChar: J
Encoding: 74 74 84
Width: 483
Flags: HW
TeX: 694 0
HStem: -17 77<103.937 269.379> 675 20G<305 408>
VStem: 305 103<93.0587 695>
AnchorPoint: "below" 226 0 basechar 0
AnchorPoint: "above" 356 711 basechar 0
LayerCount: 2
Fore
SplineSet
43 25 m 1
 60 120 l 1
 95 79 136 60 187 60 c 0
 240 60 289 78 302 123 c 0
 305 134 305 146 305 157 c 2
 305 695 l 1
 408 695 l 1
 408 155 l 2
 408 18 310 -17 223 -17 c 0
 151 -17 89 4 43 25 c 1
EndSplineSet
EndChar

StartChar: K
Encoding: 75 75 85
Width: 704
Flags: HW
TeX: 694 0
HStem: 0 21G<83 183 533.439 660> 675 20G<83 183 506.456 645>
VStem: 83 100<0 222 344 695>
DStem2: 183 344 183 222 0.69874 0.715376<0 93.0488 188.51 490.765> 376 419 309 351 0.561067 -0.827771<18.6969 442.778>
AnchorPoint: "below" 372 0 basechar 0
AnchorPoint: "above" 372 711 basechar 0
LayerCount: 2
Fore
SplineSet
83 0 m 1
 83 695 l 1
 183 695 l 1
 183 344 l 1
 526 695 l 1
 645 695 l 1
 376 419 l 1
 660 0 l 1
 547 0 l 1
 309 351 l 1
 183 222 l 1
 183 0 l 1
 83 0 l 1
EndSplineSet
EndChar

StartChar: L
Encoding: 76 76 86
Width: 567
Flags: HW
TeX: 694 0
HStem: 0 80<185 522> 675 20G<80 185>
VStem: 80 105<80 695>
AnchorPoint: "below" 301 0 basechar 0
AnchorPoint: "above" 301 711 basechar 0
LayerCount: 2
Fore
SplineSet
80 0 m 1
 80 695 l 1
 185 695 l 1
 185 80 l 1
 522 80 l 1
 522 0 l 1
 80 0 l 1
EndSplineSet
EndChar

StartChar: M
Encoding: 77 77 87
Width: 883
Flags: HW
TeX: 694 0
HStem: -0 21G<86 180 702 796> 675 20G<86 316.5 565.5 796>
VStem: 86 94<0 598> 702 94<0 598>
DStem2: 224 695 250 397 0.356506 -0.934293<76.9193 621.12>
AnchorPoint: "below" 441 0 basechar 0
AnchorPoint: "above" 441 711 basechar 0
LayerCount: 2
Fore
SplineSet
86 -0 m 1
 86 695 l 1
 224 695 l 1
 409 218 437 137 441 113 c 1
 445 137 473 218 658 695 c 1
 796 695 l 1
 796 -0 l 1
 702 -0 l 1
 702 598 l 1
 682 530 658 468 633 404 c 2
 485 17 l 1
 395 17 l 1
 250 397 l 1
 213 497 190 557 180 598 c 1
 180 -0 l 1
 86 -0 l 1
EndSplineSet
EndChar

StartChar: N
Encoding: 78 78 88
Width: 708
Flags: HW
TeX: 694 0
HStem: 0 21G<83 177 467.983 624> 675 20G<83 239.05 531 624>
VStem: 83 94<0 601> 531 93<94 695>
DStem2: 229 695 177 601 0.448997 -0.893533<60.6443 672.611>
AnchorPoint: "below" 354 0 basechar 0
AnchorPoint: "above" 354 711 basechar 0
LayerCount: 2
Fore
SplineSet
83 0 m 1
 83 695 l 1
 229 695 l 1
 531 94 l 1
 531 695 l 1
 624 695 l 1
 624 0 l 1
 478 0 l 1
 177 601 l 1
 177 0 l 1
 83 0 l 1
EndSplineSet
EndChar

StartChar: O
Encoding: 79 79 89
Width: 783
Flags: HW
TeX: 694 0
HStem: -17 79<303.305 478.979> 634 77<300.214 481.342>
VStem: 58 105<225.692 474.705> 620 104<227.248 475.344>
AnchorPoint: "ogonek" 391 0 basechar 0
AnchorPoint: "below" 391 0 basechar 0
AnchorPoint: "above" 391 711 basechar 0
LayerCount: 2
Fore
SplineSet
58 345 m 0
 58 553 212 711 391 711 c 0
 567 711 724 555 724 346 c 0
 724 137 567 -17 391 -17 c 0
 214 -17 58 137 58 345 c 0
163 359 m 0
 163 169 270 62 391 62 c 0
 502 62 620 159 620 359 c 0
 620 535 513 634 391 634 c 0
 269 634 163 535 163 359 c 0
EndSplineSet
EndChar

StartChar: P
Encoding: 80 80 90
Width: 658
Flags: HW
TeX: 694 0
HStem: 0 21G<81 186> 270 77<186 436.299> 615 80<184 436.668>
VStem: 81 105<0 270 347 615> 501 98<405.742 557.041>
AnchorPoint: "below" 318 0 basechar 0
AnchorPoint: "above" 318 711 basechar 0
LayerCount: 2
Fore
SplineSet
81 0 m 1
 81 695 l 1
 334 695 l 2
 391 695 443 688 497 654 c 0
 559 615 599 551 599 482 c 0
 599 383 512 270 344 270 c 2
 186 270 l 1
 186 0 l 1
 81 0 l 1
183 347 m 1
 313 347 l 2
 372 347 501 349 501 481 c 0
 501 613 372 615 315 615 c 2
 184 615 l 1
 183 578 l 1
 183 347 l 1
EndSplineSet
EndChar

StartChar: Q
Encoding: 81 81 91
Width: 783
Flags: HW
TeX: 694 111
HStem: -17 78<302.635 434.569> 634 77<301.451 481.005>
VStem: 58 102<216.887 472.772> 622 102<218.158 472.323>
AnchorPoint: "below" 390 -167 basechar 0
AnchorPoint: "above" 391 711 basechar 0
LayerCount: 2
Fore
SplineSet
58 346 m 0
 58 554 212 711 391 711 c 0
 569 711 724 553 724 346 c 0
 724 224 670 110 572 41 c 1
 572 40 l 1
 695 -111 l 1
 573 -111 l 1
 488 -1 l 1
 450 -12 426 -17 391 -17 c 0
 215 -17 58 137 58 346 c 0
160 343 m 0
 160 130 299 61 391 61 c 2
 395 61 l 2
 404 61 405 61 436 65 c 1
 337 195 l 1
 446 195 l 1
 519 104 l 1
 583 154 622 234 622 345 c 0
 622 521 521 634 391 634 c 0
 264 634 160 524 160 343 c 0
EndSplineSet
EndChar

StartChar: R
Encoding: 82 82 92
Width: 671
Flags: HW
TeX: 694 0
HStem: 0 21G<81 183 523.677 641> 310 75<183 345> 615 80<184 453.999>
VStem: 81 102<0 310 385 615> 513 98<437.134 563.661>
DStem2: 438 322 345 310 0.533301 -0.845926<0 324.652>
AnchorPoint: "below" 318 0 basechar 0
AnchorPoint: "above" 318 711 basechar 0
LayerCount: 2
Fore
SplineSet
81 0 m 1
 81 695 l 1
 326 695 l 2
 387 695 450 688 513 651 c 0
 572 616 611 561 611 501 c 0
 611 416 533 346 438 322 c 1
 641 0 l 1
 536 0 l 1
 345 310 l 1
 183 310 l 1
 183 0 l 1
 81 0 l 1
183 385 m 1
 321 385 l 2
 398 385 465 394 497 444 c 0
 508 461 513 480 513 500 c 0
 513 531 500 565 468 586 c 0
 427 613 374 615 326 615 c 2
 184 615 l 1
 183 582 l 1
 183 385 l 1
EndSplineSet
EndChar

StartChar: S
Encoding: 83 83 93
Width: 583
Flags: HW
TeX: 694 0
HStem: -17 85<173.259 369.501> 629 82<205.736 400.234>
VStem: 57 95<468.584 579.906> 429 95<123.993 247.232>
AnchorPoint: "below" 286 0 basechar 0
AnchorPoint: "above" 294 711 basechar 0
LayerCount: 2
Fore
SplineSet
46 53 m 1
 64 156 l 1
 103 123 175 68 287 68 c 0
 378 68 429 130 429 186 c 0
 429 244 382 279 348 292 c 0
 280 318 156 313 87 416 c 0
 71 440 57 474 57 513 c 0
 57 609 145 711 294 711 c 0
 373 711 425 696 489 663 c 1
 471 559 l 1
 436 587 391 629 294 629 c 0
 209 629 152 580 152 524 c 0
 152 473 198 443 230 431 c 0
 259 420 345 405 382 391 c 0
 448 365 524 298 524 196 c 0
 524 93 437 -17 286 -17 c 0
 184 -17 105 17 46 53 c 1
EndSplineSet
EndChar

StartChar: T
Encoding: 84 84 94
Width: 725
Flags: HW
TeX: 694 0
HStem: -0 21G<309 414> 611 79<37 309 414 686>
VStem: 309 105<0 611>
AnchorPoint: "below" 362 0 basechar 0
AnchorPoint: "above" 362 711 basechar 0
LayerCount: 2
Fore
SplineSet
37 611 m 1
 37 690 l 1
 686 690 l 1
 686 611 l 1
 414 611 l 1
 414 -0 l 1
 309 -0 l 1
 309 611 l 1
 37 611 l 1
EndSplineSet
EndChar

StartChar: U
Encoding: 85 85 95
Width: 692
Flags: HW
TeX: 694 0
HStem: -17 80<255.477 440.211> 675 20G<80 185 513 610>
VStem: 80 105<137.896 695> 513 97<138.152 695>
AnchorPoint: "ogonek" 346 0 basechar 0
AnchorPoint: "below" 346 0 basechar 0
AnchorPoint: "above" 345 711 basechar 0
LayerCount: 2
Fore
SplineSet
80 244 m 2
 80 695 l 1
 185 695 l 1
 185 242 l 2
 185 191 186 63 348 63 c 0
 503 63 513 187 513 236 c 2
 513 695 l 1
 610 695 l 1
 610 243 l 2
 610 71 474 -17 346 -17 c 0
 233 -17 80 59 80 244 c 2
EndSplineSet
EndChar

StartChar: V
Encoding: 86 86 96
Width: 675
Flags: HW
TeX: 694 0
ItalicCorrection: 14
HStem: -5 21G<271.429 401.571> 675 20G<14 131.485 553.487 659>
DStem2: 124 695 14 695 0.35405 -0.935227<0 637.738> 416 309 394 -5 0.35405 0.935227<-186.905 412.335>
AnchorPoint: "below" 336 0 basechar 0
AnchorPoint: "above" 336 711 basechar 0
LayerCount: 2
Fore
SplineSet
14 695 m 1
 124 695 l 1
 252 353 l 1
 308 200 328 148 343 96 c 1
 353 133 l 1
 416 309 l 1
 561 695 l 1
 659 695 l 1
 394 -5 l 1
 279 -5 l 1
 14 695 l 1
EndSplineSet
EndChar

StartChar: W
Encoding: 87 87 97
Width: 967
Flags: HW
TeX: 694 0
ItalicCorrection: 14
HStem: -5 21G<210.229 324.678 590.5 754.771> 675 20G<14 170.5 428.377 543.651 854.359 951>
DStem2: 328 318 432 393 0.273125 0.961979<-226.477 308.908> 750 305 749 -5 0.277258 0.960795<-212.923 405.209>
AnchorPoint: "below" 482 0 basechar 0
AnchorPoint: "above" 482 711 basechar 0
LayerCount: 2
Fore
SplineSet
14 695 m 1
 115 695 l 1
 226 310 267 156 275 96 c 1
 278 129 296 203 328 318 c 2
 434 695 l 1
 538 695 l 1
 640 334 l 1
 672 215 l 1
 694 125 l 1
 699 96 l 1
 703 138 744 284 750 305 c 2
 860 695 l 1
 951 695 l 1
 749 -5 l 1
 642 -5 l 1
 539 354 488 537 480 598 c 1
 476 556 461 495 432 393 c 2
 319 -5 l 1
 216 -5 l 1
 14 695 l 1
EndSplineSet
EndChar

StartChar: X
Encoding: 88 88 98
Width: 675
Flags: HW
TeX: 694 0
HStem: 0 21G<14 145.493 520.89 659> 675 20G<29 167.486 484.091 615>
DStem2: 14 0 132 0 0.57148 0.820616<67.4346 419.636 550.935 846.924> 153 695 29 695 0.588587 -0.808434<0 300.041 429.39 786.702>
AnchorPoint: "below" 336 0 basechar 0
AnchorPoint: "above" 336 711 basechar 0
LayerCount: 2
Fore
SplineSet
14 0 m 1
 276 367 l 1
 276 368 l 1
 29 695 l 1
 153 695 l 1
 329 452 l 1
 498 695 l 1
 615 695 l 1
 382 368 l 1
 382 367 l 1
 659 0 l 1
 535 0 l 1
 329 292 l 1
 132 0 l 1
 14 0 l 1
EndSplineSet
EndChar

StartChar: Y
Encoding: 89 89 99
Width: 675
Flags: HW
TeX: 694 0
ItalicCorrection: 26
HStem: 0 21G<285 387> 675 20G<2 139.52 545.542 671>
VStem: 285 102<0 278>
DStem2: 126 695 2 695 0.56155 -0.827443<0 387.465> 343 374 399 294 0.56135 0.827578<0 386.904>
AnchorPoint: "below" 336 0 basechar 0
AnchorPoint: "above" 336 711 basechar 0
LayerCount: 2
Fore
SplineSet
2 695 m 1
 126 695 l 1
 343 374 l 1
 559 695 l 1
 671 695 l 1
 399 294 l 2
 387 275 387 275 387 263 c 2
 387 0 l 1
 285 0 l 1
 285 278 l 1
 2 695 l 1
EndSplineSet
EndChar

StartChar: Z
Encoding: 90 90 100
Width: 642
Flags: HW
TeX: 694 0
HStem: 0 80<196 589> 617 78<73 445>
DStem2: 71 73 196 80 0.566529 0.824042<76.5844 660.161>
AnchorPoint: "below" 324 0 basechar 0
AnchorPoint: "above" 324 711 basechar 0
LayerCount: 2
Fore
SplineSet
58 0 m 1
 58 13 58 27 58 40 c 0
 58 55 63 61 71 73 c 2
 445 617 l 1
 73 617 l 1
 73 695 l 1
 583 695 l 1
 583 663 l 2
 583 639 581 641 570 624 c 2
 196 80 l 1
 589 80 l 1
 589 0 l 1
 58 0 l 1
EndSplineSet
EndChar

StartChar: bracketleft
Encoding: 91 91 101
Width: 310
Flags: HW
TeX: 750 222
HStem: -222 75<192 287> 675 75<192 287>
VStem: 98 189<-222 -147 675 750> 98 94<-147 675>
LayerCount: 2
Fore
SplineSet
98 -222 m 1xe0
 98 750 l 1
 287 750 l 1
 287 675 l 1xe0
 192 675 l 1
 192 -147 l 1xd0
 287 -147 l 1
 287 -222 l 1
 98 -222 l 1xe0
EndSplineSet
EndChar

StartChar: backslash
Encoding: 92 92 102
Width: 525
Flags: HW
TeX: 750 222
DStem2: 136 713 66 685 0.347561 -0.937657<-25.732 955.247>
LayerCount: 2
Fore
SplineSet
58 712 m 0
 58 734 78 750 96 750 c 0
 123 750 131 725 136 713 c 2
 457 -153 l 2
 460 -163 466 -172 466 -184 c 0
 466 -206 447 -222 429 -222 c 0
 399 -222 392 -193 387 -180 c 2
 66 685 l 2
 63 693 58 702 58 712 c 0
EndSplineSet
EndChar

StartChar: bracketright
Encoding: 93 93 103
Width: 310
Flags: HW
TeX: 750 222
HStem: -222 75<23 118> 675 75<23 118>
VStem: 23 189<-222 -147 675 750> 118 94<-147 675>
LayerCount: 2
Fore
SplineSet
23 -147 m 1xe0
 118 -147 l 1
 118 675 l 1xd0
 23 675 l 1
 23 750 l 1
 212 750 l 1
 212 -222 l 1
 23 -222 l 1
 23 -147 l 1xe0
EndSplineSet
EndChar

StartChar: asciicircum
Encoding: 94 94 104
Width: 642
Flags: HW
TeX: 694 0
HStem: 472 148
DStem2: 141 472 216 472 0.6872 0.726468<51.54 196.382> 358 620 320 573 0.689777 -0.724022<7.81748 151.991>
LayerCount: 2
Fore
SplineSet
141 472 m 1
 281 620 l 1
 358 620 l 1
 499 472 l 1
 423 472 l 1
 320 573 l 1
 216 472 l 1
 141 472 l 1
EndSplineSet
EndChar

StartChar: underscore
Encoding: 95 95 105
Width: 817
Flags: HW
TeX: 0 268
HStem: -268 49<88.2359 727.8>
LayerCount: 2
Fore
SplineSet
88 -244 m 0
 88 -240 89 -219 120 -219 c 2
 697 -219 l 2
 723 -219 728 -235 728 -244 c 0
 728 -270 700 -268 695 -268 c 2
 119 -268 l 2
 90 -268 88 -249 88 -244 c 0
EndSplineSet
EndChar

StartChar: a
Encoding: 97 97 107
Width: 492
Flags: HW
TeX: 472 0
HStem: -8 75<155.075 265.693> 0 21G<333 427> 226 47<200.047 330> 414 71<142.097 301.555>
VStem: 39 93<89.0879 177.987> 330 97<0 64 99.9389 226 273 385.036>
AnchorPoint: "ogonek" 380 0 basechar 0
AnchorPoint: "affricate-below" 492 -167 basechar 0
AnchorPoint: "affricate-above" 492 695 basechar 0
AnchorPoint: "below" 247 0 basechar 0
AnchorPoint: "above" 247 484 basechar 0
LayerCount: 2
Fore
SplineSet
39 133 m 0
 39 226 172 268 330 273 c 1
 330 308 l 2
 330 332 331 347 320 368 c 0
 297 413 259 414 245 414 c 0
 175 412 142 398 87 358 c 1
 80 442 l 1
 130 468 178 485 247 485 c 0
 350 485 420 414 426 335 c 1
 427 302 l 1
 427 0 l 1
 333 0 l 1x7c
 333 36 l 1
 332 64 l 1
 292 14 222 -8 163 -8 c 0
 77 -8 39 74 39 133 c 0
132 135 m 0xbc
 132 94 172 67 220 67 c 0
 263 67 308 87 324 122 c 0
 330 135 330 149 330 163 c 2
 330 226 l 1
 211 221 132 190 132 135 c 0xbc
EndSplineSet
EndChar

StartChar: b
Encoding: 98 98 108
Width: 517
Flags: HW
TeX: 694 0
HStem: -8 75<209.268 323.469> 0 21G<65 161> 405 75<220.306 329.321> 675 20G<65 159>
VStem: 65 96<0 52 89.01 381.571 418 695> 385 96<129.748 346.72>
AnchorPoint: "affricate-below" 517 -167 basechar 0
AnchorPoint: "affricate-above" 517 695 basechar 0
AnchorPoint: "below" 272 0 basechar 0
AnchorPoint: "above" 272 695 basechar 0
LayerCount: 2
Fore
SplineSet
65 0 m 1x7c
 65 695 l 1
 159 695 l 1
 159 418 l 1
 221 473 288 480 324 480 c 0
 418 480 481 364 481 239 c 0
 481 96 393 -8 290 -8 c 0
 224 -8 185 28 161 52 c 1
 161 0 l 1
 65 0 l 1x7c
161 130 m 2xbc
 161 93 204 67 244 67 c 0
 275 67 342 77 370 142 c 0
 383 172 385 206 385 239 c 0
 385 285 381 335 348 369 c 0
 323 395 288 405 255 405 c 0
 199 405 172 373 161 363 c 1
 161 130 l 2xbc
EndSplineSet
EndChar

StartChar: c
Encoding: 99 99 109
Width: 467
Flags: HW
TeX: 472 0
HStem: -8 78<193.429 371.892> 407 78<193.334 374.245>
VStem: 35 96<139.155 340.697>
AnchorPoint: "affricate-below" 467 -167 basechar 0
AnchorPoint: "affricate-above" 467 695 basechar 0
AnchorPoint: "below" 266 0 basechar 0
AnchorPoint: "above" 268 484 basechar 0
LayerCount: 2
Fore
SplineSet
35 237 m 0
 35 367 128 485 268 485 c 0
 341 485 372 473 431 442 c 1
 417 360 l 1
 365 394 338 407 268 407 c 0
 213 407 131 381 131 236 c 0
 131 103 211 70 265 70 c 0
 348 70 396 102 430 125 c 1
 437 42 l 1
 389 13 337 -8 266 -8 c 0
 128 -8 35 110 35 237 c 0
EndSplineSet
EndChar

StartChar: d
Encoding: 100 100 110
Width: 517
Flags: HW
TeX: 694 0
HStem: -8 75<187.153 297.726> -0 21G<355 451> 405 75<192.36 303.017> 675 20G<357 451>
VStem: 35 96<126.921 340.082> 355 96<0 59 95.7555 386.005 422 695>
AnchorPoint: "affricate-below" 517 -167 basechar 0
AnchorPoint: "affricate-above" 517 695 basechar 0
AnchorPoint: "below" 243 0 basechar 0
AnchorPoint: "above" 243 695 basechar 0
LayerCount: 2
Fore
SplineSet
35 237 m 0
 35 366 107 480 211 480 c 0
 269 480 318 456 357 422 c 1
 357 695 l 1
 451 695 l 1
 451 -0 l 1
 355 -0 l 1x7c
 355 59 l 1
 322 25 278 -8 210 -8 c 0
 109 -8 35 105 35 237 c 0
131 223 m 1
 132 185 137 145 160 114 c 0
 183 83 223 67 261 67 c 0
 317 67 343 105 355 121 c 1
 355 367 l 1
 333 390 310 405 272 405 c 0xbc
 240 405 198 395 169 365 c 0
 138 333 131 287 131 244 c 2
 131 223 l 1
EndSplineSet
EndChar

StartChar: e
Encoding: 101 101 111
Width: 471
Flags: HW
TeX: 472 0
HStem: -8 75<195.931 367.6> 250 59<131 359> 409 76<188.598 313.271>
VStem: 29 90<151.899 245.446>
AnchorPoint: "ogonek" 267 0 basechar 0
AnchorPoint: "affricate-below" 471 -167 basechar 0
AnchorPoint: "affricate-above" 471 695 basechar 0
AnchorPoint: "below" 267 0 basechar 0
AnchorPoint: "above" 251 484 basechar 0
LayerCount: 2
Fore
SplineSet
29 239 m 0
 29 377 130 485 251 485 c 0
 327 485 440 445 441 250 c 1
 119 250 l 1
 119 240 l 2
 119 139 187 67 267 67 c 0
 350 67 406 108 428 124 c 1
 435 43 l 1
 390 14 335 -8 267 -8 c 0
 124 -8 29 111 29 239 c 0
131 309 m 1
 359 309 l 1
 349 350 323 409 250 409 c 0
 202 409 152 373 131 309 c 1
EndSplineSet
EndChar

StartChar: f
Encoding: 102 102 112
Width: 321
Flags: HW
TeX: 694 0
ItalicCorrection: 72
HStem: 0 21G<98 192> 397 75<28 98 190 300> 627 76<260 297.5>
VStem: 98 92<0 397 472 589.5>
AnchorPoint: "affricate-below" 321 -167 basechar 0
AnchorPoint: "affricate-above" 321 695 basechar 0
AnchorPoint: "above" 280 695 basechar 0
AnchorPoint: "below" 145 0 basechar 0
LayerCount: 2
Fore
SplineSet
28 397 m 1
 28 472 l 1
 98 472 l 1
 98 525 l 2
 98 578 105 620 157 662 c 0
 194 693 240 703 280 703 c 0
 297 703 322 702 363 695 c 1
 363 610 l 1
 343 617 317 627 278 627 c 0
 243 627 190 615 190 564 c 2
 190 472 l 1
 300 472 l 1
 300 397 l 1
 192 397 l 1
 192 0 l 1
 98 0 l 1
 98 397 l 1
 28 397 l 1
EndSplineSet
EndChar

StartChar: g
Encoding: 103 103 113
Width: 517
Flags: HW
TeX: 472 166
HStem: -184 75<135.082 317.267> 25 76<190.343 290.468> 405 75<205.169 304.838>
VStem: 35 96<163.542 323.563> 357 94<-65.6463 114 153.493 375.077 410 480>
AnchorPoint: "affricate-below" 517 -167 basechar 0
AnchorPoint: "affricate-above" 517 695 basechar 0
AnchorPoint: "below" 258 -167 basechar 0
AnchorPoint: "above" 243 484 basechar 0
LayerCount: 2
Fore
SplineSet
35 238 m 0
 35 375 125 480 228 480 c 0
 280 480 321 457 357 410 c 1
 357 480 l 1
 451 480 l 1
 451 9 l 2
 451 -107 367 -184 258 -184 c 0
 182 -184 133 -168 73 -139 c 1
 73 -57 l 1
 113 -79 166 -109 256 -109 c 0
 295 -109 355 -86 355 10 c 0
 355 33 355 57 355 80 c 2
 354 114 l 1
 342 92 299 25 216 25 c 0
 125 25 35 109 35 238 c 0
131 238 m 0
 131 157 194 101 260 101 c 0
 333 101 354 184 355 250 c 1
 357 250 l 1
 357 322 l 2
 357 357 324 405 272 405 c 0
 204 405 131 338 131 238 c 0
EndSplineSet
EndChar

StartChar: h
Encoding: 104 104 114
Width: 517
Flags: HW
TeX: 694 0
HStem: 0 21G<64 160 355 451> 405 75<224.83 332.429> 675 20G<64 158>
VStem: 64 96<0 361.072 393 695> 355 96<0 379.856>
AnchorPoint: "affricate-below" 517 -167 basechar 0
AnchorPoint: "affricate-above" 517 695 basechar 0
AnchorPoint: "below" 258 0 basechar 0
AnchorPoint: "above" 258 695 basechar 0
LayerCount: 2
Fore
SplineSet
64 0 m 1
 64 695 l 1
 158 695 l 1
 158 435 l 1
 159 393 l 1
 186 436 233 480 308 480 c 0
 448 480 451 375 451 315 c 2
 451 0 l 1
 355 0 l 1
 355 316 l 2
 355 348 353 405 258 405 c 0
 168 405 160 304 160 270 c 2
 160 0 l 1
 64 0 l 1
EndSplineSet
EndChar

StartChar: k
Encoding: 107 107 117
Width: 487
Flags: HW
TeX: 694 0
HStem: 0 21G<67 154 353.987 469> 452 20G<312.383 445> 675 20G<67 156>
VStem: 67 89<0 160 284 695>
DStem2: 156 284 218 229 0.682068 0.731289<0 2.0673 89.7446 256.844> 279 292 218 229 0.545392 -0.838181<19.5365 292.743>
AnchorPoint: "affricate-below" 487 -167 basechar 0
AnchorPoint: "affricate-above" 487 695 basechar 0
AnchorPoint: "below" 268 0 basechar 0
AnchorPoint: "above" 268 695 basechar 0
LayerCount: 2
Fore
SplineSet
67 0 m 1
 67 695 l 1
 156 695 l 1
 156 284 l 1
 331 472 l 1
 445 472 l 1
 279 292 l 1
 469 0 l 1
 367 0 l 1
 218 229 l 1
 154 160 l 1
 154 0 l 1
 67 0 l 1
EndSplineSet
EndChar

StartChar: l
Encoding: 108 108 118
Width: 225
Flags: HW
TeX: 694 0
HStem: 0 21G<65 159> 675 20G<65 159>
VStem: 65 94<0 695>
AnchorPoint: "affricate-below" 225 -167 basechar 0
AnchorPoint: "affricate-above" 225 695 basechar 0
AnchorPoint: "below" 112 0 basechar 0
AnchorPoint: "above" 112 695 basechar 0
LayerCount: 2
Fore
SplineSet
65 0 m 1
 65 695 l 1
 159 695 l 1
 159 0 l 1
 65 0 l 1
EndSplineSet
EndChar

StartChar: m
Encoding: 109 109 119
Width: 808
Flags: HW
TeX: 472 0
HStem: -0 21G<64 160 355 452 647 743> 405 75<224.352 329.894 515.817 620.518> 452 20G<64 156>
VStem: 64 96<0 362.267 390 472> 355 97<0 362.267> 647 96<0 381.185>
CounterMasks: 1 1c
AnchorPoint: "affricate-below" 808 -167 basechar 0
AnchorPoint: "affricate-above" 808 695 basechar 0
AnchorPoint: "below" 404 0 basechar 0
AnchorPoint: "above" 404 484 basechar 0
LayerCount: 2
Fore
SplineSet
64 -0 m 1
 64 472 l 1
 156 472 l 1xbc
 156 424 l 1
 157 390 l 1
 184 436 233 480 308 480 c 0
 424 480 439 406 446 386 c 1
 472 433 522 480 600 480 c 0
 738 480 743 378 743 315 c 2
 743 -0 l 1
 647 -0 l 1
 647 310 l 1
 646 340 651 405 548 405 c 0
 507 405 452 377 452 270 c 2
 452 -0 l 1
 355 -0 l 1
 355 310 l 1
 354 340 360 405 257 405 c 0xdc
 216 405 160 377 160 270 c 2
 160 -0 l 1
 64 -0 l 1
EndSplineSet
EndChar

StartChar: n
Encoding: 110 110 120
Width: 517
Flags: HW
TeX: 472 0
HStem: 0 21G<64 160 355 451> 405 75<224.571 332.429> 452 20G<64 156>
VStem: 64 96<0 361.072 390 472> 355 96<0 382.276>
AnchorPoint: "affricate-below" 517 -167 basechar 0
AnchorPoint: "affricate-above" 517 695 basechar 0
AnchorPoint: "below" 258 0 basechar 0
AnchorPoint: "above" 258 484 basechar 0
LayerCount: 2
Fore
SplineSet
64 0 m 1
 64 472 l 1
 156 472 l 1xb8
 156 424 l 1
 157 390 l 1
 173 417 217 480 308 480 c 0
 448 480 451 374 451 315 c 2
 451 0 l 1
 355 0 l 1
 355 316 l 2
 355 348 353 405 258 405 c 0xd8
 168 405 160 304 160 270 c 2
 160 0 l 1
 64 0 l 1
EndSplineSet
EndChar

StartChar: o
Encoding: 111 111 121
Width: 525
Flags: HW
TeX: 472 0
HStem: -8 78<185.33 337.451> 409 75<183.27 340.57>
VStem: 29 96<135.418 338.862> 399 96<135.817 338.547>
AnchorPoint: "ogonek" 262 0 basechar 0
AnchorPoint: "affricate-below" 525 -167 basechar 0
AnchorPoint: "affricate-above" 525 695 basechar 0
AnchorPoint: "below" 262 0 basechar 0
AnchorPoint: "above" 262 484 basechar 0
LayerCount: 2
Fore
SplineSet
29 235 m 0
 29 377 138 484 262 484 c 0
 397 484 495 364 495 234 c 0
 495 95 387 -8 262 -8 c 0
 141 -8 29 91 29 235 c 0
125 249 m 0
 125 200 130 150 162 112 c 0
 187 83 224 70 262 70 c 0
 296 70 332 80 358 107 c 0
 395 145 399 199 399 251 c 0
 399 373 333 409 262 409 c 0
 212 409 125 392 125 249 c 0
EndSplineSet
EndChar

StartChar: p
Encoding: 112 112 122
Width: 517
Flags: HW
TeX: 472 166
HStem: -167 21G<65 161> -8 75<207.911 309.123> 403 77<224.426 371.5> 452 20G<65 159>
VStem: 65 96<-167 52 90.0409 380.345 417 472> 384 97<146.338 327.864>
AnchorPoint: "affricate-below" 517 -167 basechar 0
AnchorPoint: "affricate-above" 517 695 basechar 0
AnchorPoint: "below" 272 -167 basechar 0
AnchorPoint: "above" 272 484 basechar 0
LayerCount: 2
Fore
SplineSet
65 -167 m 1
 65 472 l 1
 159 472 l 1xdc
 159 417 l 1
 205 455 260 480 327 480 c 0
 416 480 481 371 481 237 c 0
 481 97 395 -8 290 -8 c 0
 227 -8 188 24 161 52 c 1
 161 -167 l 1
 65 -167 l 1
161 114 m 1
 172 100 194 67 243 67 c 0xec
 311 67 384 132 384 237 c 0
 384 336 320 403 253 403 c 0
 208 403 180 380 161 362 c 1
 161 114 l 1
EndSplineSet
EndChar

StartChar: q
Encoding: 113 113 123
Width: 517
Flags: HW
TeX: 472 166
HStem: -167 21G<355 451> -8 75<200.232 296.684> 403 77<205.895 302.792>
VStem: 35 96<146.361 321.718> 357 94<-167 60 96.8667 372.793 409 480>
AnchorPoint: "affricate-below" 517 -167 basechar 0
AnchorPoint: "affricate-above" 517 695 basechar 0
AnchorPoint: "below" 243 -167 basechar 0
AnchorPoint: "above" 243 484 basechar 0
LayerCount: 2
Fore
SplineSet
35 235 m 0
 35 374 121 480 225 480 c 0
 292 480 332 440 357 409 c 1
 357 480 l 1
 451 480 l 1
 451 -167 l 1
 355 -167 l 1
 355 60 l 1
 323 26 278 -8 213 -8 c 0
 120 -8 35 92 35 235 c 0
131 235 m 0
 131 143 191 67 263 67 c 0
 304 67 357 99 357 144 c 2
 357 318 l 2
 357 359 322 403 273 403 c 0
 203 403 131 337 131 235 c 0
EndSplineSet
EndChar

StartChar: r
Encoding: 114 114 124
Width: 346
Flags: HW
TeX: 472 0
ItalicCorrection: 14
HStem: 0 21G<65 159> 395 85<245.127 330> 452 20G<65 155>
VStem: 65 94<0 318.946 370 472>
AnchorPoint: "affricate-below" 346 -167 basechar 0
AnchorPoint: "affricate-above" 346 695 basechar 0
AnchorPoint: "below" 112 0 basechar 0
AnchorPoint: "above" 198 484 basechar 0
LayerCount: 2
Fore
SplineSet
65 0 m 1
 65 472 l 1
 155 472 l 1xb0
 155 370 l 1
 173 403 224 478 330 480 c 1
 330 395 l 1
 268 394 159 364 159 237 c 2xd0
 159 0 l 1
 65 0 l 1
EndSplineSet
EndChar

StartChar: s
Encoding: 115 115 125
Width: 402
Flags: HW
TeX: 472 0
HStem: -8 78<102.179 272.326> 410 75<136.038 309.053>
VStem: 35 87<314.87 396.705> 291 87<87.5489 173.09>
AnchorPoint: "affricate-below" 402 -167 basechar 0
AnchorPoint: "affricate-above" 402 695 basechar 0
AnchorPoint: "below" 207 0 basechar 0
AnchorPoint: "above" 208 484 basechar 0
LayerCount: 2
Fore
SplineSet
29 39 m 1
 44 125 l 1
 77 102 126 70 206 70 c 0
 275 70 291 107 291 131 c 0
 291 197 195 192 141 211 c 0
 93 227 35 271 35 344 c 0
 35 396 61 485 208 485 c 0
 268 485 305 476 363 451 c 1
 348 369 l 1
 297 397 258 410 197 410 c 0
 136 410 122 377 122 355 c 0
 122 334 138 312 166 303 c 0
 194 294 255 290 299 266 c 0
 337 245 378 203 378 139 c 0
 378 80 348 -8 207 -8 c 0
 139 -8 83 9 29 39 c 1
EndSplineSet
EndChar

StartChar: t
Encoding: 116 116 126
Width: 379
Flags: HW
TeX: 607 0
HStem: -8 78<147 306.894> 397 75<19 99 191 331>
VStem: 99 92<83.0451 397 472 607>
AnchorPoint: "affricate-below" 379 -167 basechar 0
AnchorPoint: "affricate-above" 379 695 basechar 0
AnchorPoint: "below" 165 0 basechar 0
AnchorPoint: "above" 145 607 basechar 0
LayerCount: 2
Fore
SplineSet
19 397 m 1
 19 472 l 1
 101 472 l 1
 101 607 l 1
 191 607 l 1
 191 472 l 1
 331 472 l 1
 331 397 l 1
 191 397 l 1
 191 168 l 2
 191 95 212 70 243 70 c 0
 286 70 313 93 329 105 c 1
 349 33 l 1
 292 2 236 -8 187 -8 c 0
 107 -8 99 92 99 157 c 2
 99 397 l 1
 19 397 l 1
EndSplineSet
EndChar

StartChar: u
Encoding: 117 117 127
Width: 517
Flags: HW
TeX: 472 0
HStem: -8 71<164.967 274.14> -0 21G<357 451> 452 20G<64 160 355 451>
VStem: 64 96<70.1514 472> 355 96<0 75 107.376 472>
AnchorPoint: "ogonek" 404 0 basechar 0
AnchorPoint: "affricate-below" 517 -167 basechar 0
AnchorPoint: "affricate-above" 517 695 basechar 0
AnchorPoint: "below" 258 0 basechar 0
AnchorPoint: "above" 258 484 basechar 0
LayerCount: 2
Fore
SplineSet
64 131 m 2
 64 472 l 1
 160 472 l 1
 160 138 l 1
 161 77 157 63 236 63 c 0xb8
 327 63 351 130 354 156 c 0
 355 166 355 177 355 187 c 2
 355 472 l 1
 451 472 l 1
 451 -0 l 1
 357 -0 l 1x78
 357 75 l 1
 308 18 240 -8 170 -8 c 0xb8
 68 -8 64 73 64 131 c 2
EndSplineSet
EndChar

StartChar: v
Encoding: 118 118 128
Width: 458
Flags: HW
TeX: 472 0
ItalicCorrection: 14
HStem: -3 21G<167.263 289.737> 452 20G<14 145.5 343.416 443>
DStem2: 108 472 14 472 0.319219 -0.947681<0 394.954>
AnchorPoint: "affricate-below" 458 -167 basechar 0
AnchorPoint: "affricate-above" 458 695 basechar 0
AnchorPoint: "below" 228 0 basechar 0
AnchorPoint: "above" 228 484 basechar 0
LayerCount: 2
Fore
SplineSet
14 472 m 1
 108 472 l 1
 183 248 220 134 229 96 c 1
 244 150 l 1
 350 472 l 1
 443 472 l 1
 283 -3 l 1
 174 -3 l 1
 14 472 l 1
EndSplineSet
EndChar

StartChar: w
Encoding: 119 119 129
Width: 692
Flags: HW
TeX: 472 0
ItalicCorrection: 14
HStem: -3 21G<143.316 267.5 428.464 546.684> 452 20G<14 112.442 271 391.587 558.5 676>
DStem2: 107 472 14 472 0.273384 -0.961905<0 362.091> 455 225 355 291 0.259502 -0.965743<-152.939 132.625>
AnchorPoint: "affricate-below" 692 -167 basechar 0
AnchorPoint: "affricate-above" 692 695 basechar 0
AnchorPoint: "below" 345 0 basechar 0
AnchorPoint: "above" 344 484 basechar 0
LayerCount: 2
Fore
SplineSet
14 472 m 1
 107 472 l 1
 184 189 l 1
 200 122 l 1
 204 96 l 1
 206 133 242 269 300 472 c 1
 386 472 l 1
 455 225 l 2
 466 182 478 139 486 96 c 1
 490 134 532 285 585 472 c 1
 676 472 l 1
 541 -3 l 1
 434 -3 l 1
 372 221 l 1
 355 291 l 1
 342 353 l 1
 339 376 l 1
 335 316 290 158 245 -3 c 1
 149 -3 l 1
 14 472 l 1
EndSplineSet
EndChar

StartChar: x
Encoding: 120 120 130
Width: 458
Flags: HW
TeX: 472 0
HStem: 0 21G<0 115.155 341.203 458> 452 20G<6 124 323.641 440>
DStem2: 109 472 6 472 0.594535 -0.80407<0 194.995 298.72 525.777>
AnchorPoint: "affricate-below" 458 -167 basechar 0
AnchorPoint: "affricate-above" 458 695 basechar 0
AnchorPoint: "below" 229 0 basechar 0
AnchorPoint: "above" 229 484 basechar 0
LayerCount: 2
Fore
SplineSet
0 0 m 1
 185 244 l 1
 185 245 l 1
 6 472 l 1
 109 472 l 1
 226 316 l 1
 338 472 l 1
 440 472 l 1
 267 245 l 1
 267 244 l 1
 458 0 l 1
 355 0 l 1
 226 187 l 1
 225 187 l 1
 102 0 l 1
 0 0 l 1
EndSplineSet
EndChar

StartChar: y
Encoding: 121 121 131
Width: 458
Flags: HW
TeX: 472 166
ItalicCorrection: 14
HStem: -175 75<31.7728 159.741> 452 20G<14 153 319.5 443>
AnchorPoint: "affricate-below" 458 -167 basechar 0
AnchorPoint: "affricate-above" 458 695 basechar 0
AnchorPoint: "below" 228 -167 basechar 0
AnchorPoint: "above" 232 484 basechar 0
LayerCount: 2
Fore
SplineSet
14 472 m 1
 110 472 l 1
 196 246 226 171 236 96 c 1
 240 158 289 295 350 472 c 1
 443 472 l 1
 269 -20 l 2
 243 -94 204 -175 107 -175 c 0
 77 -175 47 -170 32 -168 c 1
 24 -85 l 1
 48 -92 75 -100 108 -100 c 0
 167 -100 179 -51 197 -0 c 1
 14 472 l 1
EndSplineSet
EndChar

StartChar: z
Encoding: 122 122 132
Width: 450
Flags: HW
TeX: 472 0
HStem: 0 75<158 423> 399 73<44 291>
DStem2: 54 85 158 75 0.6 0.8<54.4 393.4>
AnchorPoint: "affricate-below" 450 -167 basechar 0
AnchorPoint: "affricate-above" 450 695 basechar 0
AnchorPoint: "below" 226 0 basechar 0
AnchorPoint: "above" 226 484 basechar 0
LayerCount: 2
Fore
SplineSet
29 0 m 1
 29 13 29 25 29 38 c 0
 29 54 31 54 54 85 c 2
 291 399 l 1
 44 399 l 1
 44 472 l 1
 419 472 l 1
 419 423 l 1
 158 75 l 1
 423 75 l 1
 423 0 l 1
 29 0 l 1
EndSplineSet
EndChar

StartChar: braceleft
Encoding: 123 123 133
Width: 525
Flags: HW
TeX: 750 222
HStem: -222 75<320.281 474> 226 76<49 130.861> 675 75<319.644 474>
VStem: 214 96<-132.615 169.444 356.231 660.933>
CounterMasks: 1 e0
LayerCount: 2
Fore
SplineSet
49 226 m 1
 49 302 l 1
 122 302 205 332 213 403 c 1
 214 427 l 1
 214 630 l 2
 214 657 219 740 378 749 c 1
 421 750 l 1
 474 750 l 1
 474 675 l 1
 353 673 310 671 310 628 c 2
 310 425 l 2
 310 402 311 352 258 308 c 0
 214 272 167 268 134 264 c 1
 189 262 310 232 310 102 c 2
 310 -100 l 2
 310 -137 337 -146 474 -147 c 1
 474 -222 l 1
 421 -222 l 1
 384 -221 343 -223 297 -207 c 0
 208 -176 215 -118 214 -96 c 1
 214 101 l 1
 213 121 214 133 205 152 c 0
 182 200 118 226 49 226 c 1
EndSplineSet
EndChar

StartChar: bar
Encoding: 124 124 134
Width: 292
Flags: HW
TeX: 750 222
VStem: 121 49<-221.764 748.828>
LayerCount: 2
Fore
SplineSet
121 -188 m 2
 121 716 l 2
 121 745 135 749 145 749 c 0
 155 749 170 745 170 715 c 2
 170 -188 l 2
 170 -217 156 -222 146 -222 c 0
 136 -222 121 -216 121 -188 c 2
EndSplineSet
EndChar

StartChar: braceright
Encoding: 125 125 135
Width: 525
Flags: HW
TeX: 750 222
HStem: -222 75<49 203.41> 226 76<389.323 474> 675 75<49 203.719>
VStem: 214 96<-133.107 172.838 354.192 660.035>
CounterMasks: 1 e0
LayerCount: 2
Fore
SplineSet
49 -147 m 1
 178 -145 214 -142 214 -100 c 2
 214 102 l 2
 214 125 213 175 266 219 c 0
 310 255 355 260 389 264 c 1
 332 266 214 296 214 425 c 2
 214 628 l 2
 214 665 186 674 49 675 c 1
 49 750 l 1
 103 750 l 1
 140 749 181 750 227 734 c 0
 316 702 309 646 310 624 c 1
 310 427 l 1
 311 407 309 394 318 375 c 0
 341 327 405 302 474 302 c 1
 474 226 l 1
 401 226 319 196 311 125 c 1
 310 101 l 1
 310 -102 l 2
 310 -129 304 -213 145 -222 c 1
 49 -222 l 1
 49 -147 l 1
EndSplineSet
EndChar

StartChar: asciitilde
Encoding: 126 126 136
Width: 642
Flags: HW
TeX: 694 0
HStem: 564 75<336.817 464.533> 619 75<175.71 304.198>
VStem: 87 75<564 603.197> 478 76<654.118 695>
LayerCount: 2
Fore
SplineSet
87 564 m 1xb0
 90 646 155 694 222 694 c 0x70
 295 694 352 639 415 639 c 0
 444 639 474 654 478 695 c 1
 554 695 l 1
 551 617 491 566 420 564 c 1
 419 564 l 2xb0
 345 564 289 619 226 619 c 0x70
 197 619 166 604 162 564 c 1
 87 564 l 1xb0
EndSplineSet
EndChar

StartChar: Abreve
Encoding: 258 258 138
Width: 675
Flags: HW
TeX: 888 0
HStem: 0 21<29 132.059 528.941 645> 170 79<214 448> 683 20<273.831 401.141> 727 82<254.825 403.571>
VStem: 145 76<841.663 889> 437 76<841.212 889>
DStem2: 29 0 125 0 0.337439 0.941347<32.3941 212.67 296.822 296.822>
AnchorPoint: "below" 337 0 basechar 0
AnchorPoint: "above" 338 877 basechar 0
LayerCount: 2
Fore
SplineSet
145 889 m 1
 221 889 l 1
 227 819 304 809 329 809 c 0
 355 809 431 819 437 889 c 1
 513 889 l 1
 510 787 421 727 329 727 c 0
 247 727 148 779 145 889 c 1
EndSplineSet
Refer: 75 65 S 1 0 0 1 -0 -0 3
AlternateSubs2: "Stilistic set 01 subtable" Abreve.vn
AlternateSubs2: "Latin alternatives subtable" Abreve.vn
Substitution2: "Latin Vietnamese substitutions subtable" Abreve.vn
EndChar

StartChar: Aogonek
Encoding: 260 260 139
Width: 675
Flags: HW
TeX: 694 166
HStem: -184 81<518.28 634.245> 0 21G<29 132.059> 170 79<214 448> 683 20G<273.831 401.141>
VStem: 446 72<-134.5 -58.3159>
DStem2: 29 0 125 0 0.337439 0.941347<32.3941 212.67 296.822 296.822>
AnchorPoint: "above" 338 711 basechar 0
LayerCount: 2
Fore
SplineSet
29 0 m 1
 281 703 l 1
 394 703 l 1
 645 0 l 1
 630 0 l 2
 597 0 518 -59 518 -84 c 0
 518 -99 535 -103 549 -103 c 0
 578 -103 604 -94 631 -85 c 1
 650 -157 l 1
 601 -180 565 -184 544 -184 c 0
 487 -184 446 -156 446 -113 c 0
 446 -68 494 -24 536 0 c 1
 476 170 l 1
 185 170 l 1
 125 0 l 1
 29 0 l 1
214 249 m 1
 448 249 l 1
 387 422 338 562 331 598 c 1
 314 527 238 319 214 249 c 1
EndSplineSet
Ligature2: "Latin ligatures subtable" A uni0328
EndChar

StartChar: Eogonek
Encoding: 280 280 144
Width: 625
Flags: HW
TeX: 694 166
HStem: -184 81<421.78 538.173> -0 84<185 439 480.078 580> 320 80<185 536> 613 79<185 565>
VStem: 80 105<84 320 400 613> 350 71<-134 -57.77>
AnchorPoint: "above" 322 711 basechar 0
LayerCount: 2
Fore
SplineSet
80 -0 m 1
 80 692 l 1
 565 692 l 1
 565 613 l 1
 185 613 l 1
 185 400 l 1
 536 400 l 1
 536 320 l 1
 185 320 l 1
 185 84 l 1
 580 84 l 1
 580 -0 l 1
 534 -0 l 2
 498 0 421 -59 421 -85 c 0
 421 -100 437 -103 451 -103 c 0
 473 -103 505 -95 535 -85 c 1
 554 -157 l 1
 505 -180 469 -184 448 -184 c 0
 391 -184 350 -155 350 -113 c 0
 350 -59 411 -18 439 -0 c 1
 80 -0 l 1
EndSplineSet
EndChar

StartChar: Gbreve
Encoding: 286 286 145
Width: 700
Flags: HW
TeX: 888 0
HStem: -17 80<320.111 531.4> 249 79<408 533> 632 79<320.334 521.915> 727 82<333.545 482.036>
VStem: 64 105<232.952 465.326> 224 75<841.663 889> 516 75<841.663 889> 533 96<75.4604 249>
LayerCount: 2
Fore
SplineSet
224 889 m 1
 299 889 l 1
 305 819 382 809 407 809 c 0xfe
 433 809 510 819 516 889 c 1
 591 889 l 1
 588 779 490 727 408 727 c 0
 327 727 227 779 224 889 c 1
EndSplineSet
Refer: 81 71 S 1 0 0 1 -0 -0 3
EndChar

StartChar: Lcaron
Encoding: 317 317 147
Width: 567
Flags: HW
TeX: 888 0
HStem: 0 80<185 522> 675 20<80 185>
VStem: 80 105<80 695> 298 117<695 812>
LayerCount: 2
Fore
SplineSet
298 620 m 1
 333 695 l 1
 298 695 l 1
 298 812 l 1
 415 812 l 1
 415 695 l 1
 356 620 l 1
 298 620 l 1
EndSplineSet
Refer: 86 76 S 1 0 0 1 0 0 3
EndChar

StartChar: Lslash
Encoding: 321 321 148
Width: 654
Flags: HW
TeX: 694 0
HStem: 0 80<273 609> 675 20G<168 273>
VStem: 168 105<80 265 457 695>
DStem2: 63 281 114 220 0.766337 0.642438<0 70.1864 274 435.734>
LayerCount: 2
Fore
SplineSet
63 281 m 1
 168 369 l 1
 168 695 l 1
 273 695 l 1
 273 457 l 1
 397 561 l 1
 448 500 l 1
 273 353 l 1
 273 80 l 1
 609 80 l 1
 609 0 l 1
 168 0 l 1
 168 265 l 1
 114 220 l 1
 63 281 l 1
EndSplineSet
EndChar

StartChar: Nacute
Encoding: 323 323 149
Width: 708
Flags: HW
TeX: 850 0
HStem: 0 21<83 177 467.983 624> 675 20<83 239.05 531 624>
VStem: 83 94<0 601> 531 93<94 695>
DStem2: 229 695 177 601 0.448997 -0.893533<60.6443 672.611>
LayerCount: 2
Fore
SplineSet
214 760 m 1
 348 839 l 1
 368 850 l 1
 387 851 l 1
 469 851 l 1
 505 850 l 1
 343 770 l 1
 322 761 l 1
 305 760 l 1
 214 760 l 1
EndSplineSet
Refer: 88 78 S 1 0 0 1 -0 0 3
EndChar

StartChar: Eng
Encoding: 330 330 151
Width: 775
Flags: HW
TeX: 694 0
HStem: -17 77<458.547 583.777> -0 21G<80 185> 663 97<298.356 489.559> 675 20G<80 185>
VStem: 80 105<0 555.692 680 695> 611 105<88.2537 551.273>
LayerCount: 2
Fore
SplineSet
80 -0 m 1
 80 695 l 1
 185 695 l 1x5c
 185 680 l 1
 239 724 307 760 400 760 c 0
 537 760 716 666 716 451 c 0
 716 441 715 430 715 420 c 2
 715 176 l 2
 715 169 716 162 716 155 c 0
 716 18 632 -17 560 -17 c 0
 500 -17 449 3 409 25 c 1
 426 120 l 1
 439 99 464 60 522 60 c 0
 559 60 611 76 611 156 c 2
 611 449 l 2
 611 500 603 544 562 590 c 0
 518 639 454 663 396 663 c 0xac
 276 663 185 571 185 482 c 2
 185 -0 l 1
 80 -0 l 1
EndSplineSet
EndChar

StartChar: Ohungarumlaut
Encoding: 336 336 152
Width: 783
Flags: HW
TeX: 850 0
HStem: -17 79<303.305 478.979> 634 77<300.214 481.342> 760 0
VStem: 58 105<225.692 474.705> 208 291 620 104<227.248 475.344>
AnchorPoint: "below" 391 0 basechar 0
AnchorPoint: "above" 391 831 basechar 0
LayerCount: 2
Fore
SplineSet
383 760 m 1
 517 839 l 1
 537 850 l 1
 556 851 l 1
 638 851 l 1
 674 850 l 1
 511 770 l 1
 490 761 l 1
 473 760 l 1
 383 760 l 1
EndSplineSet
Refer: 267 -1 S 1 0 0 1 42 222 2
Refer: 89 79 S 1 0 0 1 -0 0 3
EndChar

StartChar: Scedilla
Encoding: 350 350 157
Width: 583
Flags: HW
TeX: 694 145
HStem: -163 145<252 260> -17 85<172.895 368.34> 629 82<205.736 400.234>
VStem: 57 95<468.584 579.906> 174 154 429 95<125.339 247.232>
DStem2: 174 -163 260 -163 0.424594 0.905384<36.5151 164.399>
LayerCount: 2
Fore
SplineSet
46 53 m 1
 64 156 l 1
 102 124 175 68 287 68 c 0
 378 68 429 130 429 186 c 0
 429 244 382 279 348 292 c 0
 280 318 156 313 87 416 c 0
 71 440 57 474 57 513 c 0
 57 609 145 711 294 711 c 0
 373 711 425 696 489 663 c 1
 471 559 l 1
 436 587 391 629 294 629 c 0
 209 629 152 580 152 524 c 0
 152 473 198 443 230 431 c 0
 259 420 345 405 382 391 c 0
 448 365 524 298 524 196 c 0
 524 88 431 -17 286 -17 c 0
 190 -17 108 15 46 53 c 1
EndSplineSet
Refer: 22 184 S 1 0 0 1 57 0 2
EndChar

StartChar: Uhungarumlaut
Encoding: 368 368 160
Width: 692
Flags: HW
TeX: 850 0
HStem: -17 80<255.477 440.211> 675 20<80 185 513 610> 760 0
VStem: 80 105<137.896 695> 161 291 513 97<138.152 695>
AnchorPoint: "below" 346 0 basechar 0
AnchorPoint: "above" 345 847 basechar 0
LayerCount: 2
Fore
SplineSet
337 760 m 1xe4
 470 839 l 1
 490 850 l 1
 510 851 l 1
 591 851 l 1
 628 850 l 1
 465 770 l 1
 444 761 l 1
 427 760 l 1
 337 760 l 1xe4
EndSplineSet
Refer: 267 -1 S 1 0 0 1 -5 222 2
Refer: 95 85 S 1 0 0 1 -0 0 3
EndChar

StartChar: Uring
Encoding: 366 366 161
Width: 692
Flags: HW
TeX: 888 0
HStem: -17 80<255.477 440.211> 652 75<293.746 400.584> 675 20<80 185 513 610> 819 75<293.235 400.537>
VStem: 80 105<137.896 695> 230 59<731.978 814.355> 405 58<731.361 814.267> 513 97<138.152 695>
LayerCount: 2
Fore
SplineSet
230 773 m 0
 230 846 288 894 347 894 c 0
 406 894 463 846 463 773 c 0
 463 700 406 652 347 652 c 0
 278 652 230 710 230 773 c 0
289 774 m 0
 289 726 316 728 345 727 c 1
 376 728 405 725 405 772 c 0
 405 809 389 819 349 819 c 0xdf
 309 819 289 814 289 774 c 0
EndSplineSet
Refer: 95 85 S 1 0 0 1 -0 -0 3
EndChar

StartChar: Zacute
Encoding: 377 377 163
Width: 642
Flags: HW
TeX: 850 0
HStem: 0 80<196 589> 617 78<73 445>
DStem2: 71 73 196 80 0.566529 0.824042<76.5844 660.161>
AnchorPoint: "below" 324 0 basechar 0
AnchorPoint: "above" 324 847 basechar 0
LayerCount: 2
Fore
SplineSet
196 760 m 1
 329 839 l 1
 349 850 l 1
 368 851 l 1
 450 851 l 1
 487 850 l 1
 324 770 l 1
 303 761 l 1
 287 760 l 1
 196 760 l 1
EndSplineSet
Refer: 100 90 S 1 0 0 1 -0 0 3
EndChar

StartChar: IJ
Encoding: 306 306 166
Width: 733
Flags: HW
TeX: 694 0
HStem: -17 77<353.973 519.845> 0 21<51 156> 675 20G<51 156 555 657>
VStem: 51 105<0 695> 555 102<93.3578 695>
LayerCount: 2
Fore
SplineSet
293 25 m 1
 310 120 l 1
 325 103 361 60 437 60 c 0
 489 60 538 78 551 123 c 0
 554 134 555 146 555 157 c 2
 555 695 l 1
 657 695 l 1
 657 149 l 2xb8
 657 70 612 -17 472 -17 c 0
 398 -17 340 4 293 25 c 1
EndSplineSet
Refer: 83 73 S 1 0 0 1 -29 0 2
Ligature2: "Latin Dutch ligatures subtable" I J
EndChar

StartChar: dcroat
Encoding: 273 273 168
Width: 517
Flags: HW
TeX: 694 0
HStem: -8 75<187.153 297.726> -0 21G<355 451> 405 75<192.36 303.017> 546 75<179 357 451 550> 675 20G<357 451>
VStem: 35 96<126.921 340.082> 355 96<0 59 95.7555 386.005 422 546 621 695>
LayerCount: 2
Fore
SplineSet
35 237 m 0
 35 366 107 480 211 480 c 0
 269 480 318 456 357 422 c 1
 357 546 l 1
 179 546 l 1
 179 621 l 1
 357 621 l 1
 357 695 l 1
 451 695 l 1
 451 621 l 1
 550 621 l 1
 550 546 l 1
 451 546 l 1
 451 -0 l 1
 355 -0 l 1x7e
 355 59 l 1
 322 25 278 -8 210 -8 c 0
 109 -8 35 105 35 237 c 0
131 223 m 1
 132 185 137 145 160 114 c 0
 183 83 223 67 261 67 c 0
 317 67 343 105 355 121 c 1
 355 367 l 1
 333 390 310 405 272 405 c 0xbe
 240 405 198 395 169 365 c 0
 138 333 131 287 131 244 c 2
 131 223 l 1
EndSplineSet
AlternateSubs2: "Stilistic set 01 subtable" dcroat.vn
AlternateSubs2: "Latin alternatives subtable" dcroat.vn
Substitution2: "Latin Vietnamese substitutions subtable" dcroat.vn
EndChar

StartChar: section
Encoding: 167 167 169
Width: 475
Flags: HW
TeX: 694 166
HStem: -175 76<133.463 282.833> 627 76<192.542 329.126>
VStem: 72 94<217.256 334.609 482.94 601.476> 307 94<-73.6678 43.888 193.267 311.566>
LayerCount: 2
Fore
SplineSet
46 -105 m 1
 61 -19 l 1
 90 -49 134 -99 231 -99 c 0
 292 -99 307 -40 307 -11 c 0
 307 56 235 77 212 88 c 0
 122 131 72 198 72 270 c 0
 72 350 125 391 139 404 c 1
 109 430 72 474 72 537 c 0
 72 619 135 703 240 703 c 0
 303 703 347 685 398 647 c 1
 383 564 l 1
 370 576 326 627 242 627 c 0
 181 627 166 567 166 538 c 0
 166 472 237 450 259 440 c 0
 316 413 401 354 401 258 c 0
 401 177 348 137 334 124 c 1
 364 98 401 54 401 -9 c 0
 401 -91 337 -175 232 -175 c 0
 146 -175 94 -144 46 -105 c 1
166 271 m 0
 166 200 254 175 260 175 c 0
 277 175 307 213 307 257 c 0
 307 329 219 353 213 353 c 0
 196 352 166 317 166 271 c 0
EndSplineSet
EndChar

StartChar: abreve
Encoding: 259 259 170
Width: 492
Flags: HW
TeX: 666 0
HStem: -8 75<155.075 265.693> 0 21<333 427> 226 47<200.047 330> 414 71<142.097 301.555> 513 82<183.288 339.383> 647 20G<79 157 367 446>
VStem: 39 93<89.0879 177.987> 79 75<623.11 667> 330 97<0 64 99.9389 226 273 385.036> 370 76<623.191 667>
AnchorPoint: "below" 247 0 basechar 0
AnchorPoint: "above" 247 646 basechar 0
LayerCount: 2
Fore
SplineSet
79 667 m 1
 154 667 l 1
 160 602 235 595 261 595 c 0x3d40
 288 595 364 602 370 667 c 1
 446 667 l 1
 443 566 349 513 262 513 c 0
 178 513 82 564 79 667 c 1
EndSplineSet
Refer: 107 97 S 1 0 0 1 0 0 3
AlternateSubs2: "Stilistic set 01 subtable" abreve.vn
AlternateSubs2: "Latin alternatives subtable" abreve.vn
Substitution2: "Latin Vietnamese substitutions subtable" abreve.vn
EndChar

StartChar: aogonek
Encoding: 261 261 171
Width: 492
Flags: HW
TeX: 472 166
HStem: -184 81<311.118 430.736> -8 75<155.075 265.693> 226 47<200.047 330> 414 71<142.957 301.555>
VStem: 39 93<89.0879 177.987> 243 67<-134 -57.955> 330 97<0 64 99.9389 226 273 385.036>
AnchorPoint: "above" 246 484 basechar 0
LayerCount: 2
Fore
SplineSet
39 133 m 0
 39 226 172 268 330 273 c 1
 330 308 l 2
 330 332 331 347 320 368 c 0
 297 413 259 414 245 414 c 0
 175 412 142 398 87 358 c 1
 80 442 l 1
 134 470 178 485 247 485 c 0
 350 485 420 414 426 335 c 1
 427 302 l 1
 427 0 l 1
 398 0 405 0 379 -14 c 0
 369 -20 310 -56 310 -83 c 0
 310 -91 315 -103 344 -103 c 0
 373 -103 400 -94 427 -85 c 1
 447 -157 l 1
 398 -180 361 -184 340 -184 c 0
 283 -184 243 -155 243 -113 c 0
 243 -68 289 -25 333 0 c 1
 333 36 l 1
 332 64 l 1
 292 14 222 -8 163 -8 c 0
 77 -8 39 74 39 133 c 0
132 135 m 0
 132 94 172 67 220 67 c 0
 263 67 308 87 324 122 c 0
 330 135 330 149 330 163 c 2
 330 226 l 1
 211 221 132 190 132 135 c 0
EndSplineSet
EndChar

StartChar: dcaron
Encoding: 271 271 174
Width: 681
Flags: HW
TeX: 694 0
HStem: -8 75<187.153 297.726> -0 21<355 451> 405 75<192.36 303.017> 675 20<357 451>
VStem: 35 96<126.921 340.082> 355 96<0 59 95.7555 386.005 422 695> 509 117<636 753>
LayerCount: 2
Fore
SplineSet
509 562 m 1
 545 636 l 1
 509 636 l 1x3e
 509 753 l 1
 626 753 l 1
 626 636 l 1
 567 562 l 1
 509 562 l 1
EndSplineSet
Refer: 110 100 S 1 0 0 1 0 -0 2
EndChar

StartChar: eogonek
Encoding: 281 281 176
Width: 471
Flags: HW
TeX: 472 166
HStem: -184 80<261.647 378.644> -8 75<199.248 269> 250 59<131 359> 409 76<188.598 313.271>
VStem: 29 90<151.487 245.401> 192 69<-103.375 -59.037>
AnchorPoint: "above" 251 484 basechar 0
LayerCount: 2
Fore
SplineSet
29 239 m 0
 29 376 130 485 251 485 c 0
 327 485 440 445 441 250 c 1
 119 250 l 1
 119 240 l 2
 119 139 187 67 267 67 c 0
 350 67 406 108 428 124 c 1
 435 43 l 1
 398 20 261 -37 261 -86 c 1
 264 -95 267 -104 293 -104 c 0
 310 -104 328 -101 377 -85 c 1
 396 -157 l 1
 347 -179 311 -184 290 -184 c 0
 233 -184 192 -155 192 -113 c 0
 192 -64 245 -25 269 -8 c 1
 125 -8 29 110 29 239 c 0
131 309 m 1
 359 309 l 1
 349 350 323 409 250 409 c 0
 202 409 152 373 131 309 c 1
EndSplineSet
EndChar

StartChar: gbreve
Encoding: 287 287 177
Width: 517
Flags: HW
TeX: 694 166
HStem: -184 75<135.082 317.267> 25 76<190.343 290.468> 405 75<205.169 304.838> 522 82<206.555 343.178> 675 20G<91 169 381 458>
VStem: 35 96<163.542 323.563> 91 76<643.589 695> 357 94<-65.6463 114 153.493 375.077 410 480> 383 75<643.589 695>
LayerCount: 2
Fore
SplineSet
91 695 m 1
 167 695 l 1
 171 631 229 604 275 604 c 0xfa80
 330 604 379 638 383 695 c 1
 458 695 l 1
 455 588 367 522 275 522 c 0
 183 522 94 588 91 695 c 1
EndSplineSet
Refer: 113 103 S 1 0 0 1 0 0 3
EndChar

StartChar: lacute
Encoding: 314 314 178
Width: 225
Flags: HW
TeX: 850 0
ItalicCorrection: 113
HStem: 0 21<65 159> 675 20<65 159>
VStem: 16 291 65 94<0 695>
LayerCount: 2
Fore
SplineSet
16 760 m 1
 169 850 163 851 182 851 c 2xe0
 271 851 l 1
 307 850 l 1
 147 771 l 1
 124 761 l 1
 107 760 l 1
 16 760 l 1
EndSplineSet
Refer: 118 108 S 1 0 0 1 -0 0 3
EndChar

StartChar: lcaron
Encoding: 318 318 179
Width: 390
Flags: HW
TeX: 694 0
HStem: 0 21<65 159> 675 20<65 159>
VStem: 65 94<0 695> 217 118<636 753>
LayerCount: 2
Fore
SplineSet
217 562 m 1
 253 636 l 1
 217 636 l 1
 217 753 l 1
 335 753 l 1
 335 636 l 1
 275 562 l 1
 217 562 l 1
EndSplineSet
Refer: 118 108 S 1 0 0 1 0 -0 2
EndChar

StartChar: lslash
Encoding: 322 322 180
Width: 314
Flags: HW
TeX: 694 0
ItalicCorrection: 31
HStem: 0 21G<108 202> 675 20G<108 202>
VStem: 108 94<0 272 450 695>
DStem2: 8 287 56 229 0.766052 0.642779<0 66.9635 253.387 340.197>
AnchorPoint: "above" 126 695 basechar 0
LayerCount: 2
Fore
SplineSet
8 287 m 1
 108 371 l 1
 108 695 l 1
 202 695 l 1
 202 450 l 1
 269 506 l 1
 317 448 l 1
 202 352 l 1
 202 0 l 1
 108 0 l 1
 108 272 l 1
 56 229 l 1
 8 287 l 1
EndSplineSet
EndChar

StartChar: eng
Encoding: 331 331 183
Width: 517
Flags: HW
TeX: 472 166
HStem: -175 79<225.167 336.399> 0 21G<64 160> 405 75<224.571 332.429> 452 20G<64 156>
VStem: 64 96<0 361.072 390 472> 355 96<-78.062 382.276>
AnchorPoint: "affricate-below" 517 -167 basechar 0
AnchorPoint: "affricate-above" 517 695 basechar 0
AnchorPoint: "below" 258 -167 basechar 0
AnchorPoint: "above" 258 484 basechar 0
LayerCount: 2
Fore
SplineSet
64 0 m 1
 64 472 l 1
 156 472 l 1xdc
 156 424 l 1
 157 390 l 1
 173 417 217 480 308 480 c 0
 448 480 451 374 451 315 c 2
 451 0 l 1
 450 0 l 1
 450 -93 395 -175 313 -175 c 0
 274 -175 232 -167 184 -146 c 1
 219 -70 l 1
 241 -86 259 -96 286 -96 c 0xec
 313 -96 356 -81 356 -19 c 2
 356 0 l 1
 355 0 l 1
 355 316 l 2
 355 348 353 405 258 405 c 0xec
 168 405 160 304 160 270 c 2
 160 0 l 1
 64 0 l 1
EndSplineSet
EndChar

StartChar: rcaron
Encoding: 345 345 186
Width: 346
Flags: HW
TeX: 666 0
ItalicCorrection: 14
HStem: 0 21G<65 160> 395 85<243.644 331> 452 20G<65 155> 536 131
VStem: 65 95<0 318.946 370 472>
DStem2: 110 667 35 667 0.746568 -0.665309<0 140.908> 221 576 259 536 0.746568 0.665309<1.75723 142.666>
AnchorPoint: "below" 112 0 basechar 0
AnchorPoint: "above" 198 651 basechar 0
LayerCount: 2
Fore
SplineSet
65 0 m 1
 65 472 l 1
 155 472 l 1xb8
 155 410 l 1
 156 370 l 1
 174 403 225 478 331 480 c 1
 331 395 l 1
 270 394 160 364 160 237 c 2xd8
 160 0 l 1
 65 0 l 1
EndSplineSet
Refer: 18 711 S 1 0 0 1 -41 0 2
EndChar

StartChar: sacute
Encoding: 347 347 187
Width: 402
Flags: HW
TeX: 666 0
HStem: -8 78<102.236 275.354> 410 75<133.493 308.087> 538 129
VStem: 35 87<315.177 398.475> 111 227 291 87<87.1633 171.854>
DStem2: 111 538 187 538 0.760322 0.649547<57.7845 183.394>
AnchorPoint: "below" 207 0 basechar 0
AnchorPoint: "above" 208 646 basechar 0
LayerCount: 2
Fore
SplineSet
29 39 m 1
 44 125 l 1
 78 101 128 70 208 70 c 0
 280 70 291 106 291 130 c 0
 291 165 259 182 239 188 c 0
 196 202 107 199 57 272 c 0
 36 302 35 330 35 344 c 0
 35 456 117 485 204 485 c 2
 206 485 l 2
 267 485 304 477 363 451 c 1
 348 369 l 1
 294 399 256 410 195 410 c 0
 157 410 122 399 122 356 c 0
 122 305 187 298 192 297 c 0
 241 287 268 283 299 266 c 0
 322 253 378 215 378 138 c 0xf4
 378 19 295 -8 206 -8 c 0
 133 -8 78 12 29 39 c 1
EndSplineSet
Refer: 12 180 S 1 0 0 1 -84 0 2
EndChar

StartChar: scaron
Encoding: 353 353 188
Width: 402
Flags: HW
TeX: 666 0
HStem: -8 78<100.683 274.917> 410 75<132.448 308.989> 536 131
VStem: 35 87<315.327 398.864> 291 87<87.1633 170.514>
DStem2: 88 667 13 667 0.746568 -0.665309<0 140.908> 199 576 237 536 0.746568 0.665309<1.75723 142.666>
AnchorPoint: "below" 207 0 basechar 0
AnchorPoint: "above" 208 646 basechar 0
LayerCount: 2
Fore
SplineSet
29 39 m 1
 44 125 l 1
 78 101 127 70 207 70 c 0
 278 70 291 106 291 130 c 0
 291 164 260 180 246 186 c 0
 198 203 110 197 58 271 c 0
 37 301 35 329 35 344 c 0
 35 456 115 485 206 485 c 0
 267 485 304 477 363 451 c 1
 348 369 l 1
 294 399 256 410 195 410 c 0
 163 410 122 403 122 356 c 0
 122 305 188 298 192 297 c 0
 217 292 378 278 378 138 c 0
 378 19 295 -8 206 -8 c 0
 133 -8 78 12 29 39 c 1
EndSplineSet
Refer: 18 711 S 1 0 0 1 -63 0 2
EndChar

StartChar: scedilla
Encoding: 351 351 189
Width: 402
Flags: HW
TeX: 472 145
HStem: -163 145<168 176> -8 78<102.236 275.354> 410 75<133.493 308.087>
VStem: 35 87<315.54 398.658> 90 154 291 87<87.1633 172.418>
DStem2: 90 -163 176 -163 0.424594 0.905384<36.5151 164.399>
LayerCount: 2
Fore
SplineSet
29 39 m 1
 44 125 l 1
 78 101 128 70 208 70 c 0
 280 70 291 106 291 130 c 0
 291 198 196 192 141 211 c 0
 101 225 35 264 35 344 c 0
 35 456 117 485 204 485 c 2
 206 485 l 2
 267 485 304 477 363 451 c 1
 348 369 l 1
 294 399 256 410 194 410 c 0
 132 410 122 378 122 356 c 0
 122 305 187 298 192 297 c 0
 241 287 268 283 299 266 c 0
 322 253 378 215 378 138 c 0xf4
 378 19 295 -8 206 -8 c 0
 133 -8 78 12 29 39 c 1
EndSplineSet
Refer: 22 184 S 1 0 0 1 -27 0 2
EndChar

StartChar: tcaron
Encoding: 357 357 190
Width: 379
Flags: HW
TeX: 694 0
HStem: -8 78<141 306.917> 397 75<19 99 191 331>
VStem: 99 92<80.9606 397 472 607> 273 117<607 725>
LayerCount: 2
Fore
SplineSet
19 397 m 1
 19 472 l 1
 101 472 l 1
 101 607 l 1
 191 607 l 1
 191 472 l 1
 331 472 l 1
 331 397 l 1
 191 397 l 1
 191 165 l 2
 191 92 210 70 244 70 c 0
 286 70 313 93 329 105 c 1
 349 33 l 1
 292 2 236 -8 187 -8 c 0
 95 -8 99 107 99 164 c 2
 99 397 l 1
 19 397 l 1
273 533 m 1
 308 607 l 1
 273 607 l 1
 273 725 l 1
 390 725 l 1
 390 607 l 1
 331 533 l 1
 273 533 l 1
EndSplineSet
EndChar

StartChar: tcommaaccent
Encoding: 355 355 191
Width: 379
Flags: HW
TeX: 607 145
HStem: -163 145<199 207> -8 78<141 306.917> 397 75<19 99 191 331>
VStem: 99 92<80.9606 397 472 607> 121 154
DStem2: 121 -163 207 -163 0.424594 0.905384<36.5151 164.399>
LayerCount: 2
Fore
SplineSet
19 397 m 1
 19 472 l 1
 101 472 l 1
 101 607 l 1
 191 607 l 1
 191 472 l 1
 331 472 l 1
 331 397 l 1
 191 397 l 1
 191 165 l 2
 191 92 210 70 244 70 c 0xf0
 286 70 313 93 329 105 c 1
 349 33 l 1
 292 2 236 -8 187 -8 c 0
 95 -8 99 107 99 164 c 2
 99 397 l 1
 19 397 l 1
EndSplineSet
Refer: 22 184 S 1 0 0 1 4 0 2
EndChar

StartChar: ij
Encoding: 307 307 198
Width: 546
Flags: HW
TeX: 694 166
HStem: -175 79<249.996 386.02> 0 21<72 166> 452 20G<72 166 392 487> 600 94<72 166> 601 94<392 486>
VStem: 72 94<0 472 600 694> 392 94<601 695> 392 95<-85.7405 472>
LayerCount: 2
Fore
SplineSet
228 -146 m 1
 248 -70 l 1
 273 -87 292 -96 322 -96 c 0xe5
 346 -96 380 -89 390 -68 c 0
 393 -62 392 -55 392 -49 c 2
 392 472 l 1
 487 472 l 1
 487 -45 l 1
 486 -71 487 -111 439 -148 c 0
 415 -166 386 -175 355 -175 c 0
 317 -175 274 -167 228 -146 c 1
EndSplineSet
Refer: 367 183 S 1 0 0 1 311 398 2
Refer: 115 105 S 1 0 0 1 7 0 2
Ligature2: "Latin Dutch ligatures subtable" i j
EndChar

StartChar: exclamdown
Encoding: 161 161 199
Width: 325
Flags: HW
TeX: 527 166
HStem: -167 21G<103 220> 410 117<103 220>
VStem: 103 117<-167 117.667 410 527> 115 93<36.3333 321>
LayerCount: 2
Fore
SplineSet
103 -167 m 1xe0
 115 321 l 1
 208 321 l 1xd0
 220 -167 l 1
 103 -167 l 1xe0
EndSplineSet
Refer: 56 46 S 1 0 0 1 16 410 2
EndChar

StartChar: questiondown
Encoding: 191 191 200
Width: 496
Flags: HW
TeX: 527 166
HStem: -175 75<165.514 343.612> 410 117<174 291>
VStem: 58 96<-90.559 34.9091> 174 117<410 527> 186 94<174.049 321>
LayerCount: 2
Fore
SplineSet
58 -23 m 0
 58 56 98 82 119 104 c 0
 169 156 186 218 186 288 c 2
 186 321 l 1
 280 321 l 1
 280 288 l 2
 280 119 187 54 167 24 c 0
 156 8 154 -12 154 -27 c 0xe8
 154 -94 176 -100 234 -100 c 0
 304 -99 355 -78 408 -46 c 1
 437 -125 l 1
 365 -162 295 -175 234 -175 c 0
 86 -175 58 -82 58 -23 c 0
EndSplineSet
Refer: 56 46 S 1 0 0 1 87 410 2
EndChar

StartChar: sterling
Encoding: 163 163 201
Width: 671
Flags: HW
TeX: 694 0
HStem: -8 147<95.9809 237.339> -8 75<400.734 539.38> 310 75<174 243 339 437> 477 21G<548.5 578> 664 76<376.37 482.361>
VStem: 243 96<135.751 310 385 619.617> 516 96<521 625.053> 545 96<70.1198 139>
LayerCount: 2
Fore
SplineSet
58 59 m 0
 58 122 139 139 194 139 c 0xbd
 209 139 225 137 240 135 c 1
 242 151 243 168 243 184 c 2
 243 310 l 1
 174 310 l 1
 174 385 l 1
 243 385 l 1
 243 512 l 2
 243 670 351 740 436 740 c 0
 554 740 612 618 612 525 c 0
 612 487 588 480 568 477 c 1
 529 482 525 506 524 521 c 1
 516 521 l 1
 515 643 467 664 435 664 c 0
 405 664 375 650 359 624 c 0
 340 593 339 555 339 520 c 2
 339 385 l 1
 437 385 l 1
 437 310 l 1
 339 310 l 1
 339 210 l 2
 339 202 340 192 340 184 c 0
 340 155 338 140 328 113 c 1
 388 93 455 67 510 67 c 0x7e
 540 67 545 89 545 132 c 2
 545 139 l 1
 641 139 l 1xbd
 638 46 558 -8 472 -8 c 0x7d
 416 -8 375 7 277 40 c 1
 228 -2 173 -8 147 -8 c 0
 99 -8 58 19 58 59 c 0
EndSplineSet
EndChar

StartChar: Aacute
Encoding: 193 193 203
Width: 675
Flags: HW
TeX: 850 0
HStem: 0 21<29 132.059 528.941 645> 170 79<214 448> 683 20<273.831 401.141>
DStem2: 29 0 125 0 0.337439 0.941347<32.3941 212.67 296.822 296.822>
AnchorPoint: "below" 337 0 basechar 0
AnchorPoint: "above" 338 839 basechar 0
LayerCount: 2
Fore
SplineSet
198 760 m 1
 332 839 l 1
 352 850 l 1
 371 851 l 1
 453 851 l 1
 489 850 l 1
 326 770 l 1
 305 761 l 1
 289 760 l 1
 198 760 l 1
EndSplineSet
Refer: 75 65 S 1 0 0 1 -0 0 3
AlternateSubs2: "Stilistic set 01 subtable" Aacute.vn
AlternateSubs2: "Latin alternatives subtable" Aacute.vn
Substitution2: "Latin Vietnamese substitutions subtable" Aacute.vn
EndChar

StartChar: Atilde
Encoding: 195 195 205
Width: 675
Flags: HW
TeX: 888 0
HStem: 0 21<29 132.059 528.941 645> 170 79<214 448> 683 20<273.831 401.141> 727 76<359.063 429.676> 813 76<244.417 315.613>
VStem: 162 76<727 809.205> 437 75<805.642 889>
DStem2: 29 0 125 0 0.337439 0.941347<32.3941 212.67 296.822 296.822>
AnchorPoint: "below" 337 0 basechar 0
AnchorPoint: "above" 338 877 basechar 0
LayerCount: 2
Fore
SplineSet
162 727 m 1
 162 820 204 889 267 889 c 0
 329 889 350 803 404 803 c 0
 435 803 436 851 437 873 c 1
 437 889 l 1
 512 889 l 1
 511 769 450 727 409 727 c 0
 344 727 326 813 270 813 c 0
 239 813 239 766 238 744 c 1
 238 727 l 1
 162 727 l 1
EndSplineSet
Refer: 75 65 S 1 0 0 1 0 0 3
AlternateSubs2: "Stilistic set 01 subtable" Atilde.vn
AlternateSubs2: "Latin alternatives subtable" Atilde.vn
Substitution2: "Latin Vietnamese substitutions subtable" Atilde.vn
EndChar

StartChar: Aring
Encoding: 197 197 207
Width: 675
Flags: HW
TeX: 850 0
HStem: -0 21G<29 132.059 528.941 645> 170 79<214 448> 819 75<277.819 379.242>
VStem: 212 59<708.578 812.94> 387 59<708.628 812.033>
DStem2: 29 -0 125 -0 0.336978 0.941513<32.3499 212.626 296.777 296.777>
LayerCount: 2
Fore
SplineSet
29 -0 m 1
 262 651 l 1
 253 659 212 692 212 761 c 0
 212 841 270 894 329 894 c 0
 397 894 446 831 446 761 c 0
 446 751 447 707 408 663 c 1
 645 -0 l 1
 536 -0 l 1
 476 170 l 1
 185 170 l 1
 125 -0 l 1
 29 -0 l 1
214 249 m 1
 448 249 l 1
 387 422 338 562 331 598 c 1
 314 527 238 319 214 249 c 1
271 760 m 0
 271 712 291 703 325 703 c 0
 359 703 387 703 387 761 c 0
 387 809 366 819 332 819 c 0
 297 819 271 817 271 760 c 0
EndSplineSet
EndChar

StartChar: AE
Encoding: 198 198 208
Width: 892
Flags: HW
TeX: 694 0
HStem: 0 84<531 848> 198 80<236 428> 321 80<531 804> 615 80<369 428 531 833>
VStem: 428 103<84 198 278 321 401 615>
DStem2: 29 0 126 0 0.367928 0.929854<35.689 248.499 334.661 696.956>
AnchorPoint: "below" 438 0 basechar 0
AnchorPoint: "above" 480 711 basechar 0
LayerCount: 2
Fore
SplineSet
29 0 m 1
 304 695 l 1
 833 695 l 1
 833 615 l 1
 531 615 l 1
 531 401 l 1
 804 401 l 1
 804 321 l 1
 531 321 l 1
 531 84 l 1
 848 84 l 1
 848 0 l 1
 428 0 l 1
 428 198 l 1
 204 198 l 1
 126 0 l 1
 29 0 l 1
236 278 m 1
 428 278 l 1
 428 615 l 1
 369 615 l 1
 236 278 l 1
EndSplineSet
EndChar

StartChar: Ccedilla
Encoding: 199 199 209
Width: 671
Flags: HW
TeX: 694 145
HStem: -163 145<369 377> -17 80<319.421 537.501> 632 79<321.901 523.502>
VStem: 64 105<231.767 464.113> 291 154
DStem2: 291 -163 377 -163 0.424594 0.905384<36.5151 164.399>
AnchorPoint: "above" 409 711 basechar 0
LayerCount: 2
Fore
SplineSet
64 348 m 0
 64 551 220 711 409 711 c 0
 488 711 541 700 606 677 c 1
 588 573 l 1
 542 604 498 632 412 632 c 0
 272 632 169 501 169 347 c 0
 169 199 266 63 413 63 c 0
 520 63 557 92 610 126 c 1
 618 39 l 1
 534 -8 495 -17 413 -17 c 0
 204 -17 64 159 64 348 c 0
EndSplineSet
Refer: 22 184 S 1 0 0 1 174 0 2
EndChar

StartChar: Eacute
Encoding: 201 201 211
Width: 625
Flags: HW
TeX: 850 0
HStem: 0 84<185 580> 320 80<185 536> 613 79<185 565>
VStem: 80 105<84 320 400 613>
AnchorPoint: "below" 330 0 basechar 0
AnchorPoint: "above" 330 850 basechar 0
LayerCount: 2
Fore
SplineSet
195 760 m 1
 329 839 l 1
 349 850 l 1
 368 851 l 1
 450 851 l 1
 486 850 l 1
 323 770 l 1
 302 761 l 1
 286 760 l 1
 195 760 l 1
EndSplineSet
Refer: 79 69 S 1 0 0 1 -0 0 3
AlternateSubs2: "Stilistic set 01 subtable" Eacute.vn
AlternateSubs2: "Latin alternatives subtable" Eacute.vn
Substitution2: "Latin Vietnamese substitutions subtable" Eacute.vn
EndChar

StartChar: Ecircumflex
Encoding: 202 202 212
Width: 625
Flags: HW
TeX: 888 0
HStem: 0 84<185 580> 320 80<185 536> 613 79<185 565>
VStem: 80 105<84 320 400 613>
DStem2: 122 727 197 727 0.60745 0.794358<45.5588 191.814> 329 897 290 840 0.610386 -0.792104<21.3449 168.229>
AnchorPoint: "below" 330 0 basechar 0
AnchorPoint: "above" 330 896 basechar 0
LayerCount: 2
Fore
SplineSet
122 727 m 1
 252 897 l 1
 329 897 l 1
 460 727 l 1
 384 727 l 1
 290 840 l 1
 197 727 l 1
 122 727 l 1
EndSplineSet
Refer: 79 69 S 1 0 0 1 0 0 3
AlternateSubs2: "Stilistic set 01 subtable" Ecircumflex.vn
AlternateSubs2: "Latin alternatives subtable" Ecircumflex.vn
Substitution2: "Latin Vietnamese substitutions subtable" Ecircumflex.vn
EndChar

StartChar: Icircumflex
Encoding: 206 206 216
Width: 267
Flags: HW
TeX: 888 0
HStem: 0 21<81 186> 675 20<81 186>
VStem: 81 105<0 695>
DStem2: -35 727 40 727 0.60745 0.794358<45.5588 192.422> 172 897 134 840 0.610386 -0.792104<21.9553 168.229>
AnchorPoint: "below" 132 0 basechar 0
AnchorPoint: "above" 132 893 basechar 0
LayerCount: 2
Fore
SplineSet
-35 727 m 1
 95 897 l 1
 172 897 l 1
 303 727 l 1
 227 727 l 1
 134 840 l 1
 40 727 l 1
 -35 727 l 1
EndSplineSet
Refer: 83 73 S 1 0 0 1 1 -0 2
EndChar

StartChar: Eth
Encoding: 208 208 218
Width: 746
Flags: HW
TeX: 694 0
HStem: 0 80<185 449.088> 303 76<-12 83 185 367> 615 80<185 442.025>
VStem: 83 102<80 303 379 615> 585 103<219.356 465.346>
LayerCount: 2
Fore
SplineSet
-12 303 m 1
 -12 379 l 1
 83 379 l 1
 83 695 l 1
 353 695 l 2
 583 695 688 500 688 342 c 0
 688 150 549 19 403 2 c 0
 385 0 366 0 348 0 c 2
 83 0 l 1
 83 303 l 1
 -12 303 l 1
185 80 m 1
 300 80 l 2
 310 80 319 79 329 79 c 0
 534 79 585 219 585 342 c 0
 585 468 534 615 328 615 c 2
 185 615 l 1
 185 379 l 1
 367 379 l 1
 367 303 l 1
 185 303 l 1
 185 80 l 1
EndSplineSet
EndChar

StartChar: Ntilde
Encoding: 209 209 219
Width: 708
Flags: HW
TeX: 888 0
HStem: 0 21<83 177 467.983 624> 675 20<83 239.05 531 624> 727 76<376.57 446.941> 813 76<261.449 332.201>
VStem: 83 94<0 601> 178 76<727 808.938> 453 76<807.062 889> 531 93<94 695>
DStem2: 229 695 177 601 0.448997 -0.893533<60.6443 672.611>
LayerCount: 2
Fore
SplineSet
178 727 m 1
 181 852 241 889 283 889 c 0
 345 889 366 804 421 803 c 0
 450 803 453 838 453 889 c 1
 529 889 l 1
 526 764 466 727 424 727 c 0
 362 727 343 813 287 813 c 0
 257 813 254 769 254 741 c 2
 254 727 l 1
 178 727 l 1
EndSplineSet
Refer: 88 78 S 1 0 0 1 0 -0 3
EndChar

StartChar: Oacute
Encoding: 211 211 221
Width: 783
Flags: HW
TeX: 850 0
HStem: -17 79<303.305 478.979> 634 77<300.214 481.342>
VStem: 58 105<225.692 474.705> 620 104<227.248 475.344>
AnchorPoint: "below" 391 0 basechar 0
AnchorPoint: "above" 391 831 basechar 0
LayerCount: 2
Fore
SplineSet
252 760 m 1
 386 839 l 1
 406 850 l 1
 425 851 l 1
 507 851 l 1
 543 850 l 1
 380 770 l 1
 359 761 l 1
 343 760 l 1
 252 760 l 1
EndSplineSet
Refer: 89 79 S 1 0 0 1 -0 0 3
AlternateSubs2: "Stilistic set 01 subtable" Oacute.vn
AlternateSubs2: "Latin alternatives subtable" Oacute.vn
Substitution2: "Latin Vietnamese substitutions subtable" Oacute.vn
EndChar

StartChar: Ocircumflex
Encoding: 212 212 222
Width: 783
Flags: HW
TeX: 888 0
HStem: -17 79<303.305 478.979> 634 77<300.214 481.342>
VStem: 58 105<225.692 474.705> 620 104<227.248 475.344>
DStem2: 223 727 298 727 0.60745 0.794358<45.5588 191.02> 429 897 391 839 0.610386 -0.792104<22.7474 168.839>
AnchorPoint: "below" 391 0 basechar 0
AnchorPoint: "above" 391 877 basechar 0
LayerCount: 2
Fore
SplineSet
223 727 m 1
 353 897 l 1
 429 897 l 1
 560 727 l 1
 485 727 l 1
 391 839 l 1
 298 727 l 1
 223 727 l 1
EndSplineSet
Refer: 89 79 S 1 0 0 1 -0 -0 3
AlternateSubs2: "Stilistic set 01 subtable" Ocircumflex.vn
AlternateSubs2: "Latin alternatives subtable" Ocircumflex.vn
Substitution2: "Latin Vietnamese substitutions subtable" Ocircumflex.vn
EndChar

StartChar: Otilde
Encoding: 213 213 223
Width: 783
Flags: HW
TeX: 888 0
HStem: -17 79<303.305 478.979> 634 77<300.214 481.342> 727 77<413.117 484.591> 813 76<297.838 368.896>
VStem: 58 105<225.692 474.705> 216 76<727 808.761> 491 75<806.795 889> 620 104<227.248 475.344>
AnchorPoint: "below" 391 0 basechar 0
AnchorPoint: "above" 391 869 basechar 0
LayerCount: 2
Fore
SplineSet
216 727 m 1
 217 819 258 889 321 889 c 0
 381 889 405 804 457 804 c 0
 484 804 489 828 491 873 c 1
 491 889 l 1
 566 889 l 1
 565 796 525 727 462 727 c 0
 401 727 377 813 324 813 c 0
 292 813 292 768 292 740 c 2
 292 727 l 1
 216 727 l 1
EndSplineSet
Refer: 89 79 S 1 0 0 1 0 0 3
AlternateSubs2: "Stilistic set 01 subtable" Otilde.vn
AlternateSubs2: "Latin alternatives subtable" Otilde.vn
Substitution2: "Latin Vietnamese substitutions subtable" Otilde.vn
EndChar

StartChar: OE
Encoding: 338 338 225
Width: 1008
Flags: HW
TeX: 694 0
HStem: -17 76<279.563 452.326> 0 84<586 964> 321 80<586 920> 615 80<586 949> 636 75<270.941 452.885>
VStem: 16 102<242.139 468.403> 482 104<89.3355 321 401 606.815>
AnchorPoint: "above" 534 711 basechar 0
LayerCount: 2
Fore
SplineSet
16 345 m 0
 16 555 181 711 365 711 c 0xae
 443 711 418 695 575 695 c 2
 949 695 l 1
 949 615 l 1
 586 615 l 1
 586 401 l 1
 920 401 l 1
 920 321 l 1
 586 321 l 1
 586 84 l 1
 964 84 l 1
 964 0 l 1
 577 0 l 1x76
 433 -1 445 -17 365 -17 c 0
 179 -17 16 139 16 345 c 0
118 360 m 0
 118 204 219 59 371 59 c 0
 471 59 478 100 482 195 c 1
 482 222 l 1
 483 241 l 1
 483 451 l 1
 482 478 l 1
 482 593 470 636 380 636 c 0xae
 346 636 252 635 179 541 c 0
 135 484 118 419 118 360 c 0
EndSplineSet
EndChar

StartChar: Oslash
Encoding: 216 216 226
Width: 817
Flags: HW
TeX: 736 41
HStem: -17 76<300.288 510.203> 636 75<306.354 513.944>
VStem: 58 100<221.74 469.474> 658 100<218.592 471.354>
DStem2: 150 -23 217 -61 0.499851 0.866111<0.577779 92.1254 170.672 727.308 806.751 898.268>
LayerCount: 2
Fore
SplineSet
58 345 m 0
 58 556 223 711 408 711 c 0
 465 711 514 697 554 678 c 1
 599 755 l 1
 666 717 l 1
 620 636 l 1
 697 578 758 469 758 345 c 0
 758 140 596 -17 408 -17 c 0
 352 -17 302 -3 262 16 c 1
 217 -61 l 1
 150 -23 l 1
 196 58 l 1
 129 109 58 210 58 345 c 0
158 344 m 0
 158 213 209 150 235 125 c 1
 517 613 l 1
 485 627 451 636 408 636 c 0
 308 636 158 577 158 344 c 0
299 81 m 1
 329 68 365 59 408 59 c 0
 508 59 658 116 658 346 c 0
 658 479 607 541 581 568 c 1
 299 81 l 1
EndSplineSet
EndChar

StartChar: Ucircumflex
Encoding: 219 219 229
Width: 692
Flags: HW
TeX: 888 0
HStem: -17 80<255.477 440.211> 675 20<80 185 513 610>
VStem: 80 105<137.896 695> 513 97<138.152 695>
DStem2: 178 727 254 727 0.610386 0.792104<46.3893 192.663> 381 897 347 840 0.621882 -0.783111<23.4933 169.82>
AnchorPoint: "below" 346 0 basechar 0
AnchorPoint: "above" 345 893 basechar 0
LayerCount: 2
Fore
SplineSet
178 727 m 1
 309 897 l 1
 381 897 l 1
 516 727 l 1
 440 727 l 1
 347 840 l 1
 254 727 l 1
 178 727 l 1
EndSplineSet
Refer: 95 85 S 1 0 0 1 -0 -0 3
EndChar

StartChar: Thorn
Encoding: 222 222 232
Width: 600
Flags: HW
TeX: 694 0
HStem: 0 21G<82 182> 180 80<182 373.805> 504 80<183 367.49> 675 20G<82 182>
VStem: 82 100<0 180 260 504 584 695> 442 99<319.359 442.803>
LayerCount: 2
Fore
SplineSet
82 0 m 1
 82 695 l 1
 182 695 l 1
 182 584 l 1
 309 584 l 2
 478 584 541 463 541 382 c 0
 541 301 479 180 308 180 c 2
 182 180 l 1
 182 0 l 1
 82 0 l 1
182 260 m 1
 281 260 l 2
 405 260 442 336 442 382 c 0
 442 431 399 504 266 504 c 2
 183 504 l 1
 182 469 l 1
 182 260 l 1
EndSplineSet
EndChar

StartChar: Germandbls
Encoding: 61699 61699 233
Width: 1167
Flags: HW
TeX: 694 0
HStem: -17 85<173.245 369.786 754.372 953.316> 629 82<209.583 400.128 791.164 983.128>
VStem: 57 95<468.575 580.32> 429 95<123.941 246.759> 641 94<468.575 579.343> 1013 94<124.077 246.759>
LayerCount: 2
Fore
SplineSet
46 53 m 1
 64 156 l 1
 100 126 173 68 287 68 c 0
 372 68 429 124 429 185 c 0
 429 218 410 268 346 293 c 0
 281 318 156 313 87 416 c 0
 71 440 57 474 57 513 c 0
 57 608 144 711 295 711 c 0
 372 711 426 695 489 663 c 1
 471 559 l 1
 435 588 391 629 294 629 c 0
 207 629 152 578 152 524 c 0
 152 473 198 443 229 431 c 0
 253 422 350 403 381 391 c 0
 449 365 524 299 524 196 c 0
 524 94 438 -17 286 -17 c 0
 177 -17 93 25 46 53 c 1
629 53 m 1
 647 156 l 1
 682 127 756 68 870 68 c 0
 962 68 1013 130 1013 185 c 0
 1013 218 994 268 930 293 c 0
 865 318 740 313 671 416 c 0
 655 440 641 474 641 513 c 0
 641 614 734 711 878 711 c 0
 955 711 1009 695 1072 663 c 1
 1054 559 l 1
 1018 588 974 629 877 629 c 0
 790 629 735 578 735 524 c 0
 735 473 781 443 812 431 c 0
 836 422 933 403 964 391 c 0
 1032 365 1107 299 1107 196 c 0
 1107 94 1021 -17 870 -17 c 0
 761 -17 676 25 629 53 c 1
EndSplineSet
EndChar

StartChar: acircumflex
Encoding: 226 226 236
Width: 492
Flags: HW
TeX: 666 0
HStem: -8 75<155.075 265.693> 0 21<333 427> 226 47<200.047 330> 414 71<142.097 301.555>
VStem: 39 93<89.0879 177.987> 330 97<0 64 99.9389 226 273 385.036>
DStem2: 82 537 157 537 0.685694 0.72789<51.427 181.435>
AnchorPoint: "below" 247 0 basechar 0
AnchorPoint: "above" 247 654 basechar 0
LayerCount: 2
Fore
SplineSet
82 537 m 1
 212 675 l 1
 312 675 l 1
 419 537 l 1
 344 537 l 1
 250 628 l 1x3c
 157 537 l 1
 82 537 l 1
EndSplineSet
Refer: 107 97 S 1 0 0 1 0 0 3
AlternateSubs2: "Stilistic set 01 subtable" acircumflex.vn
AlternateSubs2: "Latin alternatives subtable" acircumflex.vn
Substitution2: "Latin Vietnamese substitutions subtable" acircumflex.vn
EndChar

StartChar: atilde
Encoding: 227 227 237
Width: 492
Flags: HW
TeX: 666 0
HStem: -8 75<155.075 265.693> 0 21<333 427> 226 47<200.047 330> 414 71<142.097 301.555> 543 75<270.18 356.253> 592 75<168.492 253.27>
VStem: 39 93<89.0879 177.987> 87 76<543 586.007> 330 97<0 64 99.9389 226 273 385.036> 362 75<623.25 667>
AnchorPoint: "below" 247 0 basechar 0
AnchorPoint: "above" 247 646 basechar 0
LayerCount: 2
Fore
SplineSet
87 543 m 1x3940
 90 628 146 667 193 667 c 0x3540
 244 667 288 618 326 618 c 0x3940
 340 618 360 625 362 667 c 1
 437 667 l 1x3540
 434 580 377 543 332 543 c 0x3940
 281 543 233 592 198 592 c 0x3540
 184 592 165 583 163 543 c 1
 87 543 l 1x3940
EndSplineSet
Refer: 107 97 S 1 0 0 1 0 0 3
AlternateSubs2: "Stilistic set 01 subtable" atilde.vn
AlternateSubs2: "Latin alternatives subtable" atilde.vn
Substitution2: "Latin Vietnamese substitutions subtable" atilde.vn
EndChar

StartChar: aring
Encoding: 229 229 239
Width: 492
Flags: HW
TeX: 666 0
HStem: -8 75<155.075 265.693> 0 21<333 427> 226 47<200.047 330> 414 71<142.097 301.555> 510 33<202.424 297.894> 640 32<204.073 296.724>
VStem: 39 93<89.0879 177.987> 134 59<550.056 632.954> 308 59<549.266 632.883> 330 97<0 64 99.9389 226 273 385.036>
LayerCount: 2
Fore
SplineSet
134 591 m 0
 134 635 185 672 251 672 c 0
 327 672 367 627 367 591 c 0
 367 554 324 510 250 510 c 0
 175 510 134 554 134 591 c 0
193 591 m 0
 193 560 206 544 249 543 c 1
 268 544 308 542 308 590 c 0
 308 620 295 640 253 640 c 0x3f80
 217 640 193 630 193 591 c 0
EndSplineSet
Refer: 107 97 S 1 0 0 1 0 -0 3
EndChar

StartChar: ae
Encoding: 230 230 240
Width: 758
Flags: HW
TeX: 472 0
HStem: -8 75<157.792 307.276 498.724 659.912> 250 59<438 644> 414 71<142.814 301.815 496.069 599.082>
VStem: 41 93<91.0694 175.882> 331 96<146.47 220>
AnchorPoint: "below" 384 0 basechar 0
AnchorPoint: "above" 382 484 basechar 0
LayerCount: 2
Fore
SplineSet
41 136 m 0
 41 266 274 276 331 279 c 1
 331 310 l 1
 330 332 331 344 321 365 c 0
 312 385 291 414 245 414 c 0
 178 414 135 394 87 358 c 1
 80 442 l 1
 133 469 179 485 245 485 c 0
 337 485 376 438 397 415 c 1
 436 458 491 484 549 484 c 0
 621 484 728 446 728 250 c 1
 427 250 l 1
 427 238 l 2
 427 145 487 67 566 67 c 0
 628 67 673 91 715 124 c 1
 722 43 l 1
 679 14 628 -8 565 -8 c 0
 487 -8 433 28 396 67 c 1
 342 4 237 -8 167 -8 c 0
 67 -8 41 91 41 136 c 0
134 137 m 0
 134 110 157 67 222 67 c 0
 231 67 337 67 337 142 c 0
 337 150 336 158 331 220 c 1
 280 219 134 207 134 137 c 0
438 309 m 1
 644 309 l 1
 627 400 571 409 549 409 c 0
 506 409 464 381 438 309 c 1
EndSplineSet
EndChar

StartChar: eth
Encoding: 240 240 250
Width: 525
Flags: HW
TeX: 694 0
HStem: -8 78<187.196 338.468> 409 75<183.47 334.136> 675 20G<118.786 171 269 300.467>
VStem: 29 96<136.473 338.647> 399 96<133.17 342.789>
LayerCount: 2
Fore
SplineSet
29 235 m 0
 29 377 139 484 262 484 c 0
 287 484 311 480 335 472 c 1
 301 521 264 554 242 569 c 1
 194 541 l 1
 151 615 l 1
 156 617 l 1
 156 618 l 1
 117 631 109 634 77 639 c 1
 142 695 l 1
 200 684 225 667 236 667 c 0
 241 667 249 672 289 695 c 1
 332 620 l 1
 319 613 l 1
 394 558 486 442 495 296 c 1
 495 251 l 2
 495 201 490 158 462 110 c 0
 431 56 363 -8 262 -8 c 0
 137 -8 29 96 29 235 c 0
125 249 m 0
 125 200 130 150 162 112 c 0
 187 83 224 70 262 70 c 0
 323 70 399 105 399 227 c 0
 399 277 396 329 361 368 c 0
 336 396 299 409 262 409 c 0
 212 409 125 391 125 249 c 0
EndSplineSet
EndChar

StartChar: ntilde
Encoding: 241 241 251
Width: 517
Flags: HW
TeX: 666 0
HStem: 0 21<64 160 355 451> 405 75<224.571 332.429> 452 20<64 156> 543 75<265.657 351.389> 592 75<164.762 248.747>
VStem: 64 96<0 361.072 390 472> 83 75<543 586.007> 355 96<0 382.276> 357 76<623.25 667>
LayerCount: 2
Fore
SplineSet
83 543 m 1x9280
 86 628 141 667 188 667 c 0x8a80
 239 667 284 618 322 618 c 0x9280
 336 618 355 625 357 667 c 1
 433 667 l 1x8a80
 430 580 372 543 327 543 c 0x9280
 276 543 229 592 194 592 c 0x8a80
 180 592 160 583 158 543 c 1
 83 543 l 1x9280
EndSplineSet
Refer: 120 110 S 1 0 0 1 0 0 3
EndChar

StartChar: otilde
Encoding: 245 245 255
Width: 525
Flags: HW
TeX: 666 0
HStem: -8 78<185.33 337.451> 409 75<183.27 340.57> 543 75<270.18 356.253> 592 75<168.492 253.27>
VStem: 29 96<135.418 338.862> 87 76<543 586.007> 362 75<623.25 667> 399 96<135.817 338.547>
AnchorPoint: "below" 262 0 basechar 0
AnchorPoint: "above" 262 647 basechar 0
LayerCount: 2
Fore
SplineSet
87 543 m 1xe6
 90 628 146 667 193 667 c 0xd6
 244 667 288 618 326 618 c 0xe6
 340 618 360 625 362 667 c 1
 437 667 l 1xd6
 434 580 377 543 332 543 c 0xe6
 281 543 233 592 198 592 c 0xd6
 184 592 165 583 163 543 c 1
 87 543 l 1xe6
EndSplineSet
Refer: 121 111 S 1 0 0 1 0 0 3
AlternateSubs2: "Stilistic set 01 subtable" otilde.vn
AlternateSubs2: "Latin alternatives subtable" otilde.vn
Substitution2: "Latin Vietnamese substitutions subtable" otilde.vn
EndChar

StartChar: oe
Encoding: 339 339 257
Width: 817
Flags: HW
TeX: 472 0
HStem: -8 75<180.701 329.902 557.006 719.278> 250 59<496 703> 409 76<178.039 333.055 548.533 664.453>
VStem: 29 92<134.5 340.797> 389 96<146.913 250>
AnchorPoint: "below" 408 0 basechar 0
AnchorPoint: "above" 428 484 basechar 0
LayerCount: 2
Fore
SplineSet
29 238 m 0
 29 373 130 485 256 485 c 0
 340 485 397 439 436 391 c 1
 476 448 539 484 608 484 c 0
 679 484 777 446 786 278 c 1
 787 250 l 1
 486 250 l 1
 486 246 485 242 485 238 c 0
 485 146 545 67 625 67 c 0
 688 67 733 92 774 124 c 1
 781 43 l 1
 738 14 687 -8 624 -8 c 0
 550 -8 482 27 438 87 c 1
 427 74 416 61 404 50 c 0
 349 0 289 -8 256 -8 c 0
 136 -8 29 96 29 238 c 0
121 250 m 1
 122 207 120 67 256 67 c 0
 295 67 328 82 348 103 c 0
 386 142 389 198 389 252 c 0
 389 392 304 409 256 409 c 0
 207 409 122 392 121 250 c 1
496 309 m 1
 703 309 l 1
 686 400 630 409 608 409 c 0
 563 409 522 379 496 309 c 1
EndSplineSet
EndChar

StartChar: oslash
Encoding: 248 248 258
Width: 525
Flags: HW
TeX: 555 83
HStem: -8 75<211.47 343.168> 409 75<183.778 314.574>
VStem: 29 91<131.631 338.453> 404 91<132.055 340.504>
DStem2: 42 -64 107 -102 0.506135 0.862454<0.125521 133.724 211.986 529.049 609.972 740.172>
LayerCount: 2
Fore
SplineSet
29 235 m 0
 29 377 139 484 262 484 c 0
 303 484 328 475 353 465 c 1
 417 575 l 1
 482 536 l 1
 416 422 l 1
 467 374 495 307 495 235 c 0
 495 91 383 -8 262 -8 c 0
 230 -8 206 -3 173 10 c 1
 107 -102 l 1
 42 -64 l 1
 109 51 l 1
 58 96 29 162 29 235 c 0
120 235 m 0
 120 165 136 138 149 119 c 1
 315 400 l 1
 300 405 283 409 262 409 c 0
 205 409 120 384 120 235 c 0
211 75 m 1
 226 71 242 67 263 67 c 0
 335 67 404 105 404 230 c 0
 404 280 401 312 376 354 c 1
 375 354 l 1
 211 75 l 1
EndSplineSet
EndChar

StartChar: thorn
Encoding: 254 254 264
Width: 517
Flags: HW
TeX: 694 166
HStem: -167 21G<65 161> -8 75<207.911 309.123> 403 77<224.426 371.5> 675 20G<65 159>
VStem: 65 96<-167 52 90.0409 380.345 417 695> 384 97<146.338 327.864>
LayerCount: 2
Fore
SplineSet
65 -167 m 1
 65 695 l 1
 159 695 l 1
 159 417 l 1
 205 455 260 480 327 480 c 0
 416 480 481 371 481 237 c 0
 481 97 395 -8 290 -8 c 0
 227 -8 188 24 161 52 c 1
 161 -167 l 1
 65 -167 l 1
161 114 m 1
 172 100 194 67 243 67 c 0
 311 67 384 132 384 237 c 0
 384 336 320 403 253 403 c 0
 208 403 180 380 161 362 c 1
 161 114 l 1
EndSplineSet
EndChar

StartChar: germandbls
Encoding: 223 223 265
Width: 492
Flags: HW
TeX: 694 0
HStem: -8 75<208.585 332.189> 0 21G<65 159> 397 75<217 286.702> 627 76<176.285 319.094>
VStem: 65 94<0 609.609> 337 96<509.079 611.226> 366 96<101.707 304.677>
LayerCount: 2
Fore
SplineSet
65 0 m 1
 65 556 l 2
 65 570 65 583 69 596 c 0
 86 655 156 703 248 703 c 0
 348 703 433 645 433 567 c 0x7c
 433 536 420 476 345 430 c 1
 363 415 462 344 462 191 c 0x7a
 462 76 378 -8 277 -8 c 0
 247 -8 218 -2 189 7 c 1
 214 78 l 1
 226 74 251 67 276 67 c 0
 312 67 366 86 366 190 c 0xba
 366 310 311 393 217 397 c 1
 217 472 l 1
 331 474 337 549 337 566 c 0
 337 627 270 626 254 627 c 1
 240 627 l 1
 159 625 159 581 159 555 c 2
 159 0 l 1
 65 0 l 1
EndSplineSet
EndChar

StartChar: grave.uc
Encoding: 65542 -1 266
Width: 525
Flags: HW
TeX: 629 0
VStem: 66 291
LayerCount: 2
Fore
SplineSet
66 629 m 1
 193 629 l 2
 205 629 209 627 357 538 c 1
 266 538 l 1
 250 539 l 1
 66 629 l 1
EndSplineSet
EndChar

StartChar: acute.uc
Encoding: 65543 -1 267
Width: 525
Flags: HW
TeX: 629 0
HStem: 538 0
VStem: 166 291
LayerCount: 2
Fore
SplineSet
166 538 m 1
 320 628 316 629 333 629 c 2
 421 629 l 1
 457 628 l 1
 295 548 l 1
 274 539 l 1
 257 538 l 1
 166 538 l 1
EndSplineSet
EndChar

StartChar: tilde.uc
Encoding: 65544 -1 268
Width: 525
Flags: HW
TeX: 661 0
HStem: 505 76<283.715 354.912> 591 76<168.551 240.128>
VStem: 87 75<505 587.205> 362 75<583.769 667>
LayerCount: 2
Fore
SplineSet
87 505 m 1
 88 598 128 667 191 667 c 0
 253 667 274 581 329 581 c 0
 359 581 362 623 362 652 c 2
 362 667 l 1
 437 667 l 1
 436 556 382 505 334 505 c 0
 269 505 251 591 195 591 c 0
 165 591 162 548 162 519 c 2
 162 505 l 1
 87 505 l 1
EndSplineSet
EndChar

StartChar: ring.uc
Encoding: 65546 -1 271
Width: 692
Flags: HW
TeX: 661 0
HStem: 430 75<291.424 398.644> 597 75<291.305 398.823>
VStem: 228 59<509.415 592.355> 403 59<509.761 592.391>
LayerCount: 2
Fore
SplineSet
228 551 m 0
 228 624 286 672 345 672 c 0
 404 672 462 624 462 551 c 0
 462 479 404 430 345 430 c 0
 286 430 228 478 228 551 c 0
287 552 m 0
 287 504 314 506 343 505 c 1
 373 506 403 503 403 550 c 0
 403 588 389 597 347 597 c 0
 308 597 287 592 287 552 c 0
EndSplineSet
EndChar

StartChar: twelveudash
Encoding: 61700 61700 272
Width: 700
Flags: HW
TeX: 470 0
ItalicCorrection: 29
HStem: 254 76<0 700>
LayerCount: 2
Fore
SplineSet
0 254 m 1
 0 330 l 1
 700 330 l 1
 700 254 l 1
 0 254 l 1
EndSplineSet
EndChar

StartChar: threequartersemdash
Encoding: 63198 63198 273
Width: 787
Flags: HW
TeX: 470 0
ItalicCorrection: 29
HStem: 254 76<0 787>
LayerCount: 2
Fore
SplineSet
0 254 m 1
 0 330 l 1
 787 330 l 1
 787 254 l 1
 0 254 l 1
EndSplineSet
EndChar

StartChar: arrowleft
Encoding: 8592 8592 274
Width: 1050
Flags: HW
TeX: 389 -133
HStem: 240 49<187 990.852>
VStem: 267 49<14 83.8457 446.641 514>
LayerCount: 2
Fore
SplineSet
58 264 m 1
 84 276 230 331 267 514 c 1
 316 514 l 1
 298 417 253 351 187 289 c 1
 955 289 l 2
 968 289 991 288 991 264 c 0
 991 240 971 240 952 240 c 2
 187 240 l 1
 239 191 295 125 316 14 c 1
 267 14 l 1
 230 197 84 252 58 264 c 1
EndSplineSet
EndChar

StartChar: arrowright
Encoding: 8594 8594 275
Width: 1050
Flags: HW
TeX: 389 -133
HStem: 240 49<59.1481 863>
VStem: 733 50<14 83.3525 444.154 514>
LayerCount: 2
Fore
SplineSet
59 264 m 0
 59 288 78 289 97 289 c 2
 863 289 l 1
 811 338 754 403 733 514 c 1
 783 514 l 1
 820 331 965 276 991 264 c 1
 964 252 820 197 783 14 c 1
 733 14 l 1
 755 130 817 197 863 240 c 1
 94 240 l 2
 82 240 59 240 59 264 c 0
EndSplineSet
EndChar

StartChar: uni0361.alt
Encoding: 61701 61701 276
Width: 225
Flags: HW
TeX: 694 0
ItalicCorrection: 310
HStem: 590 80<159.743 445.632>
LayerCount: 2
Fore
SplineSet
64 571 m 1
 71 647 212 670 301 670 c 0
 400 670 532 643 539 571 c 1
 442 571 l 1
 424 586 374 590 302 590 c 0
 242 590 182 585 167 577 c 1
 160 571 l 1
 64 571 l 1
EndSplineSet
EndChar

StartChar: uni0361
Encoding: 865 865 277
Width: 0
Flags: HW
TeX: 916 0
ItalicCorrection: 339
HStem: 587 80<-68.6062 161.045>
VStem: -218 96<505 544.243> 218 97<505 544.117>
AnchorPoint: "affricate-above" 48 484 mark 0
LayerCount: 2
Fore
SplineSet
-218 505 m 1
 -214 603 -91 667 47 667 c 0
 164 667 310 617 315 505 c 1
 218 505 l 1
 211 565 118 587 48 587 c 0
 -24 587 -115 565 -122 505 c 1
 -218 505 l 1
EndSplineSet
EndChar

StartChar: uni2040.alt
Encoding: 61702 61702 278
Width: 458
Flags: HW
TeX: 694 0
ItalicCorrection: 310
HStem: 590 80<127.975 328.398>
LayerCount: 2
Fore
SplineSet
45 571 m 1
 50 632 131 670 228 670 c 0
 311 670 406 639 412 571 c 1
 315 571 l 1
 306 582 286 590 228 590 c 0
 148 590 142 573 141 571 c 1
 45 571 l 1
EndSplineSet
EndChar

StartChar: uni2040
Encoding: 8256 8256 279
Width: 458
Flags: HW
TeX: 694 0
ItalicCorrection: 339
HStem: 587 80<132.811 327.335>
VStem: -12 96<505 546.331> 375 96<505 546.736>
LayerCount: 2
Fore
SplineSet
-12 505 m 1
 -8 597 95 667 229 667 c 0
 344 667 467 611 471 505 c 1
 375 505 l 1
 369 563 295 587 229 587 c 0
 174 587 90 566 84 505 c 1
 -12 505 l 1
EndSplineSet
EndChar

StartChar: uni2422
Encoding: 9250 9250 280
Width: 517
Flags: HW
TeX: 694 0
HStem: -8 75<210.08 324.469> 0 21G<66 162> 405 75<221.306 330.321> 675 20G<66 160>
VStem: 66 96<0 52 89.01 381.571 418 447 630 695> 385 97<128.183 350.244>
DStem2: -40 462 11 401 0.765705 0.643192<0 71.5168 261.197 424.262>
LayerCount: 2
Fore
SplineSet
-40 462 m 1
 66 551 l 1
 66 695 l 1
 160 695 l 1
 160 630 l 1
 285 735 l 1
 336 674 l 1
 160 526 l 1
 160 418 l 1
 222 473 289 480 325 480 c 0
 419 480 482 364 482 239 c 0
 482 95 394 -8 291 -8 c 0xbc
 225 -8 185 28 162 52 c 1
 162 0 l 1
 66 0 l 1x7c
 66 447 l 1
 11 401 l 1
 -40 462 l 1
162 130 m 2xbc
 162 93 205 67 245 67 c 0
 276 67 343 77 371 142 c 0
 384 172 385 207 385 240 c 0
 385 286 382 335 349 369 c 0
 324 395 289 405 256 405 c 0
 200 405 173 373 162 363 c 1
 162 130 l 2xbc
EndSplineSet
EndChar

StartChar: quotesingle
Encoding: 39 39 281
Width: 292
Flags: HW
TeX: 694 0
HStem: 399 296<107 183>
VStem: 97 97<506.636 695> 107 76<399 587.364>
LayerCount: 2
Fore
SplineSet
97 695 m 1
 194 695 l 1xc0
 183 399 l 1
 107 399 l 1xa0
 97 695 l 1
EndSplineSet
EndChar

StartChar: fraction
Encoding: 8260 8260 284
Width: 525
Flags: HW
TeX: 750 222
DStem2: 65 -176 114 -185 0.361842 0.932239<-21.4414 984.783>
LayerCount: 2
Fore
SplineSet
59 -197 m 0
 59 -190 62 -183 65 -176 c 2
 412 718 l 2
 418 732 424 749 442 749 c 0
 454 749 466 739 466 725 c 0
 466 719 463 712 444 663 c 2
 114 -185 l 2
 105 -208 103 -214 90 -220 c 1
 84 -221 84 -222 83 -222 c 0
 70 -222 59 -210 59 -197 c 0
EndSplineSet
EndChar

StartChar: zerooldstyle
Encoding: 63280 63280 285
Width: 525
Flags: HW
TeX: 470 0
HStem: -17 76<180.921 340.616> 414 75<176.769 346.598>
VStem: 40 96<106.768 365.426> 386 97<106.339 365.812>
LayerCount: 2
Fore
SplineSet
40 235 m 0
 40 417 129 489 262 489 c 0
 355 489 483 453 483 233 c 0
 483 53 393 -17 260 -17 c 0
 128 -17 40 54 40 235 c 0
136 250 m 0
 137 141 139 63 253 59 c 1
 271 59 l 1
 376 63 385 135 386 227 c 1
 386 258 l 2
 386 348 375 414 269 414 c 0
 215 414 162 408 144 340 c 0
 137 311 136 283 136 250 c 0
EndSplineSet
EndChar

StartChar: oneoldstyle
Encoding: 63281 63281 286
Width: 525
Flags: HW
TeX: 470 0
HStem: 0 75<95 226 323 452> 355 75<89 223.89> 458 20G<273 323>
VStem: 226 97<75 370>
LayerCount: 2
Fore
SplineSet
89 355 m 1
 89 430 l 1
 192 430 247 444 299 478 c 1
 323 478 l 1
 323 75 l 1
 452 75 l 1
 452 0 l 1
 95 0 l 1
 95 75 l 1
 226 75 l 1
 226 370 l 1
 181 358 135 355 89 355 c 1
EndSplineSet
EndChar

StartChar: twooldstyle
Encoding: 63282 63282 287
Width: 525
Flags: HW
TeX: 470 0
HStem: 0 84<135 472> 409 80<154.379 328.002>
VStem: 372 100<257.219 368.879>
DStem2: 46 80 135 84 0.879571 0.475767<80.1849 368.58>
LayerCount: 2
Fore
SplineSet
43 389 m 1
 72 425 124 489 246 489 c 0
 378 489 472 421 472 318 c 0
 472 223 367 209 275 163 c 0
 261 156 247 148 135 84 c 1
 472 84 l 1
 472 0 l 1
 46 0 l 1
 46 80 l 1
 161 148 175 156 190 164 c 0
 258 199 372 228 372 316 c 0
 372 389 291 409 234 409 c 0
 159 409 128 370 108 330 c 1
 43 389 l 1
EndSplineSet
EndChar

StartChar: threeoldstyle
Encoding: 63283 63283 288
Width: 525
Flags: HW
TeX: 470 166
HStem: -184 78<148.999 330.674> 140 76<174 288.242> 414 75<174.68 325.325>
VStem: 352 99<273.576 390.975> 376 104<-59.4383 91.6156>
LayerCount: 2
Fore
SplineSet
43 -100 m 1
 57 -24 l 1
 96 -59 158 -106 254 -106 c 0
 351 -106 376 -37 376 17 c 0xe8
 376 71 351 141 250 141 c 0
 245 141 240 140 235 140 c 2
 174 140 l 1
 174 216 l 1
 254 222 256 223 274 230 c 0
 334 254 352 304 352 336 c 0
 352 367 338 413 259 414 c 1
 258 414 l 2
 161 414 114 342 105 330 c 1
 58 395 l 1
 112 457 180 489 258 489 c 0
 367 489 451 420 451 335 c 0xf0
 451 231 355 181 347 176 c 1
 427 150 480 87 480 16 c 0xe8
 480 -87 389 -184 255 -184 c 0
 170 -184 99 -150 43 -100 c 1
EndSplineSet
EndChar

StartChar: fouroldstyle
Encoding: 63284 63284 289
Width: 525
Flags: HW
TeX: 470 166
HStem: -0 80<126 302 397 495> 460 20G<270.3 397>
VStem: 306 91<-184 0 80 400>
LayerCount: 2
Fore
SplineSet
29 -0 m 1
 29 80 l 1
 283 480 l 1
 397 480 l 1
 397 80 l 1
 495 80 l 1
 495 -0 l 1
 397 -0 l 1
 397 -184 l 1
 302 -184 l 1
 302 -0 l 1
 29 -0 l 1
126 80 m 1
 306 80 l 1
 306 400 l 1
 291 343 256 289 126 80 c 1
EndSplineSet
EndChar

StartChar: fiveoldstyle
Encoding: 63285 63285 290
Width: 525
Flags: HW
TeX: 470 166
HStem: -184 78<159.249 320.865> 169 76<203.922 333.535> 393 79<171 437>
VStem: 78 93<212 393> 368 104<-57.9731 127.011>
LayerCount: 2
Fore
SplineSet
52 -87 m 1
 96 -19 l 1
 139 -96 207 -106 241 -106 c 0
 362 -106 368 -15 368 35 c 0
 368 74 368 169 271 169 c 0
 195 169 167 105 162 96 c 1
 78 96 l 1
 78 472 l 1
 437 472 l 1
 437 393 l 1
 171 393 l 1
 171 212 l 1
 200 233 231 245 272 245 c 0
 386 245 472 145 472 32 c 0
 472 -86 370 -184 240 -184 c 0
 165 -184 96 -148 52 -87 c 1
EndSplineSet
EndChar

StartChar: sevenoldstyle
Encoding: 63287 63287 292
Width: 525
Flags: HW
TeX: 470 166
HStem: -175 21G<153 253> 389 83<43 415>
VStem: 153 100<-175 -1.08533>
LayerCount: 2
Fore
SplineSet
43 389 m 1
 43 472 l 1
 480 472 l 1
 480 392 l 1
 362 269 253 72 253 -175 c 1
 153 -175 l 1
 153 -115 157 169 415 389 c 1
 43 389 l 1
EndSplineSet
EndChar

StartChar: nineoldstyle
Encoding: 63289 63289 294
Width: 525
Flags: HW
TeX: 470 166
HStem: -184 78<134.577 296.087> 18 76<179.648 289.381> 414 75<186.783 330.499>
VStem: 43 99<131.909 357> 379 101<23.4808 121 157.675 326.156>
LayerCount: 2
Fore
SplineSet
43 251 m 0
 43 318 58 369 113 424 c 0
 152 463 195 489 265 489 c 0
 351 489 480 434 480 158 c 0
 480 -53 349 -184 214 -184 c 0
 155 -184 118 -167 75 -139 c 1
 114 -71 l 1
 132 -83 162 -106 216 -106 c 0
 348 -106 381 23 381 111 c 0
 381 114 380 118 380 121 c 1
 316 15 201 18 198 18 c 0
 168 21 135 21 93 81 c 0
 55 136 43 187 43 251 c 0
142 247 m 2
 142 176 148 137 185 111 c 0
 208 95 234 95 256 94 c 1
 273 96 283 95 300 103 c 0
 331 117 379 159 379 241 c 0
 379 245 378 249 378 254 c 1
 379 254 l 1
 376 296 373 340 354 368 c 0
 344 383 318 414 264 414 c 0
 141 414 142 314 142 258 c 2
 142 247 l 2
EndSplineSet
EndChar

StartChar: angleleft
Encoding: 9001 9001 295
Width: 408
Flags: HW
TeX: 750 222
VStem: 116 232
DStem2: 166 264 120 246 0.371391 -0.928477<0 497.216> 297 723 344 709 0.372111 0.928188<-473.857 22.4288>
LayerCount: 2
Fore
SplineSet
116 264 m 0
 116 270 118 276 120 282 c 2
 297 723 l 1
 303 735 307 749 324 749 c 0
 328 749 343 748 348 727 c 1
 348 721 346 715 344 709 c 2
 166 265 l 1
 166 264 l 1
 344 -181 l 2
 346 -187 348 -193 348 -199 c 1
 343 -220 329 -221 324 -221 c 0
 307 -221 303 -208 297 -195 c 2
 120 246 l 2
 118 252 116 258 116 264 c 0
EndSplineSet
EndChar

StartChar: minus
Encoding: 8722 8722 296
Width: 642
Flags: HW
TeX: 523 -1
HStem: 226 76<61.7969 578.691>
LayerCount: 2
Fore
SplineSet
58 264 m 0
 58 274 63 302 105 302 c 2
 535 302 l 2
 547 302 582 301 582 264 c 0
 582 253 578 226 536 226 c 2
 103 226 l 2
 63 226 58 254 58 264 c 0
EndSplineSet
EndChar

StartChar: angleright
Encoding: 9002 9002 297
Width: 408
Flags: HW
TeX: 750 222
VStem: 59 232
DStem2: 286 282 63 709 0.372111 -0.928188<-497.251 -0.965817> 63 -181 110 -195 0.371391 0.928477<-17.9365 479.28>
LayerCount: 2
Fore
SplineSet
59 -199 m 1
 59 -193 61 -187 63 -181 c 2
 241 264 l 1
 241 265 l 1
 63 709 l 2
 61 715 59 721 59 727 c 1
 64 748 77 749 82 749 c 0
 99 749 104 736 110 723 c 2
 286 282 l 2
 288 276 291 270 291 264 c 0
 291 258 288 252 286 246 c 2
 110 -195 l 1
 104 -207 99 -221 82 -221 c 0
 77 -221 64 -220 59 -199 c 1
EndSplineSet
EndChar

StartChar: uni2127
Encoding: 8487 8487 298
Width: 758
Flags: HW
TeX: 694 0
HStem: -17 76<266.795 490.283> 611 84<46 221 536 710>
VStem: 57 105<151.75 335.283> 594 105<152.137 335.845>
LayerCount: 2
Fore
SplineSet
46 611 m 1
 46 695 l 1
 310 695 l 1
 308 526 162 394 162 234 c 0
 162 129 249 59 378 59 c 0
 507 59 594 129 594 234 c 0
 594 396 448 524 446 695 c 1
 710 695 l 1
 710 611 l 1
 536 611 l 1
 557 557 555 556 600 480 c 0
 631 427 699 330 699 233 c 0
 699 97 560 -17 379 -17 c 0
 199 -17 57 95 57 233 c 0
 57 369 170 467 221 611 c 1
 46 611 l 1
EndSplineSet
EndChar

StartChar: circle
Encoding: 9675 9675 299
Width: 1091
Flags: HW
TeX: 750 222
HStem: -239 49<413.699 674.378> 718 49<415.546 673.458>
VStem: 58 49<126.501 402.056> 982 49<125.029 403.52>
LayerCount: 2
Fore
SplineSet
58 264 m 0
 58 548 282 767 546 767 c 0
 805 767 1031 551 1031 263 c 0
 1031 -21 807 -239 544 -239 c 0
 282 -239 58 -20 58 264 c 0
107 264 m 0
 107 13 303 -190 544 -190 c 0
 784 -190 982 9 982 263 c 0
 982 526 775 718 546 718 c 0
 307 718 107 518 107 264 c 0
EndSplineSet
EndChar

StartChar: uni301A
Encoding: 12314 12314 301
Width: 423
Flags: HW
TeX: 750 222
HStem: -222 49<169 251 300 399> 701 49<170 251 300 399>
VStem: 120 49<-173 701> 251 49<-173 701>
LayerCount: 2
Fore
SplineSet
120 -222 m 1
 120 750 l 1
 399 750 l 1
 399 701 l 1
 300 701 l 1
 300 -173 l 1
 399 -173 l 1
 399 -222 l 1
 120 -222 l 1
169 -173 m 1
 251 -173 l 1
 251 701 l 1
 170 701 l 1
 169 661 l 1
 169 -173 l 1
EndSplineSet
EndChar

StartChar: uni301B
Encoding: 12315 12315 302
Width: 423
Flags: HW
TeX: 750 222
HStem: -222 49<23 121 170 252> 701 49<23 121 170 252>
VStem: 121 49<-173 701> 252 49<-173 701>
LayerCount: 2
Fore
SplineSet
23 -173 m 1
 121 -173 l 1
 121 701 l 1
 23 701 l 1
 23 750 l 1
 301 750 l 1
 301 -222 l 1
 23 -222 l 1
 23 -173 l 1
170 -173 m 1
 252 -173 l 1
 252 701 l 1
 170 701 l 1
 170 -173 l 1
EndSplineSet
EndChar

StartChar: arrowup
Encoding: 8593 8593 303
Width: 525
Flags: HW
TeX: 694 166
HStem: -166 21G<255.5 266> 420 49<29 91.2359 433.093 495> 674 20G<254.5 270.5>
VStem: 238 49<-165.775 550>
LayerCount: 2
Fore
SplineSet
29 420 m 1
 29 469 l 1
 191 506 247 636 262 694 c 1
 263 694 l 1
 278 636 333 507 495 469 c 1
 495 420 l 1
 415 437 343 480 287 550 c 1
 287 -135 l 2
 287 -162 270 -166 262 -166 c 0
 249 -166 241 -155 240 -151 c 0
 237 -143 238 -134 238 -125 c 2
 238 521 l 1
 237 550 l 1
 190 487 112 438 29 420 c 1
EndSplineSet
EndChar

StartChar: arrowdown
Encoding: 8595 8595 304
Width: 525
Flags: HW
TeX: 694 166
HStem: -166 21G<259.5 265.5> 59 49<29 87.9369 434.094 495> 674 20G<251 273.5>
VStem: 238 49<-23 693.877>
LayerCount: 2
Fore
SplineSet
29 59 m 1
 29 108 l 1
 109 91 182 47 238 -23 c 1
 238 663 l 2
 238 675 240 694 262 694 c 0
 285 694 287 675 287 659 c 2
 287 -23 l 1
 334 40 412 90 495 108 c 1
 495 59 l 1
 365 29 297 -70 287 -107 c 1
 284 -107 l 1
 275 -126 268 -146 263 -166 c 1
 262 -166 l 1
 257 -146 249 -126 240 -107 c 1
 238 -107 l 1
 230 -77 166 27 29 59 c 1
EndSplineSet
EndChar

StartChar: uni22C6
Encoding: 8902 8902 306
Width: 525
Flags: HW
TeX: 500 -27
VStem: 262 1<482.538 524>
LayerCount: 2
Fore
SplineSet
-8 327 m 1
 224 293 l 1
 262 524 l 1
 263 524 l 1
 302 293 l 1
 503 323 l 1
 534 327 l 1
 326 219 l 1
 431 8 l 1
 263 172 l 1
 262 172 l 1
 95 8 l 1
 200 219 l 1
 -8 327 l 1
EndSplineSet
EndChar

StartChar: uni26AE
Encoding: 9902 9902 307
Width: 525
Flags: HW
TeX: 500 -27
HStem: 28 86<-87.3247 46.451 478.86 614.714> 414 86<-87.0908 47.3261 479.455 613.543>
VStem: -217 86<159.909 369.396> 87 93<156.659 369.24> 215 96<-122 650> 346 93<159.223 370.768> 657 86<160.565 369.186>
LayerCount: 2
Fore
SplineSet
-217 264 m 0
 -217 401 -123 500 -20 500 c 0
 87 500 180 398 180 264 c 0
 180 124 82 28 -19 28 c 0
 -125 28 -217 129 -217 264 c 0
-131 268 m 0
 -131 217 -129 114 -20 114 c 0
 3 114 34 121 54 142 c 0
 84 173 87 217 87 259 c 0
 87 311 87 414 -20 414 c 0
 -47 414 -76 406 -97 385 c 0
 -127 354 -131 310 -131 268 c 0
215 -122 m 1
 215 650 l 1
 311 650 l 1
 311 -122 l 1
 215 -122 l 1
346 264 m 0
 346 404 443 500 545 500 c 0
 651 500 743 399 743 264 c 0
 743 136 657 28 546 28 c 0
 439 28 346 130 346 264 c 0
439 269 m 0
 439 220 439 114 547 114 c 0
 574 114 602 122 623 143 c 0
 653 174 657 218 657 260 c 0
 657 309 656 414 546 414 c 0
 440 414 439 310 439 269 c 0
EndSplineSet
EndChar

StartChar: uni271D
Encoding: 10013 10013 308
Width: 525
Flags: HW
TeX: 611 22
HStem: 364 81<58 214 310 466>
VStem: 214 96<-22 364 445 617>
LayerCount: 2
Fore
SplineSet
58 361 m 1
 58 447 l 1
 214 445 l 1
 214 617 l 1
 310 617 l 1
 310 445 l 1
 466 447 l 1
 466 361 l 1
 310 364 l 1
 310 -22 l 1
 214 -22 l 1
 214 364 l 1
 58 361 l 1
EndSplineSet
EndChar

StartChar: leaf
Encoding: 61704 61704 309
Width: 1050
Flags: HW
TeX: 694 0
HStem: -61 30<117.131 411.352> 159 30<313 772> 367 30<627 940> 726 29<640.697 928.648>
VStem: 248 30<201 507> 563 29<410 693>
DStem2: 18 29 34 4 0.833972 0.551807<0 225.232 334.311 653.717 710.954 1197.05>
LayerCount: 2
Fore
SplineSet
-14 6 m 0
 -14 63 27 471 428 671 c 0
 539 726 662 755 786 755 c 0
 932 755 1047 712 1061 705 c 1
 1065 694 1064 696 1064 689 c 0
 1064 600 1004 214 622 24 c 0
 530 -22 408 -61 265 -61 c 0
 122 -61 1 -19 -9 -10 c 0
 -13 -6 -14 0 -14 6 c 0
18 29 m 1
 248 181 l 1
 248 507 l 1
 104 371 29 177 18 29 c 1
34 4 m 1
 113 -19 181 -31 265 -31 c 0
 483 -31 667 63 772 159 c 1
 276 159 l 2
 264 159 263 156 61 22 c 2
 34 4 l 1
278 201 m 1
 563 390 l 1
 563 693 l 1
 472 665 374 619 278 535 c 1
 278 201 l 1
313 189 m 1
 804 189 l 1
 843 229 896 284 940 367 c 1
 582 367 l 1
 313 189 l 1
592 410 m 1
 1016 690 l 1
 953 708 888 726 785 726 c 0
 720 726 655 718 592 701 c 1
 592 410 l 1
627 397 m 1
 956 397 l 1
 986 460 1025 556 1033 665 c 1
 627 397 l 1
EndSplineSet
EndChar

StartChar: uni26AD
Encoding: 9901 9901 310
Width: 525
Flags: HW
TeX: 500 -27
HStem: 28 86<41.3552 202.915 322.323 481.558> 414 86<42.7287 203.517 321.522 483.434>
VStem: -101 86<170.411 354.367> 162 93<204.332 324.375> 270 93<204.332 324.375> 540 86<172.483 354.808>
LayerCount: 2
Fore
SplineSet
-101 264 m 0
 -101 401 9 500 130 500 c 0
 170 500 219 489 262 458 c 1
 264 458 l 1
 303 486 350 500 396 500 c 0
 517 500 626 401 626 264 c 0
 626 136 525 28 396 28 c 0
 340 28 295 48 264 70 c 1
 262 70 l 1
 231 48 185 28 129 28 c 0
 7 28 -101 128 -101 264 c 0
-15 262 m 0
 -15 188 13 114 129 114 c 0
 163 114 184 120 204 129 c 1
 187 158 162 198 162 264 c 0
 162 329 185 367 204 399 c 1
 197 402 174 414 128 414 c 0
 43 414 -15 372 -15 262 c 0
255 264 m 0
 255 242 257 227 262 203 c 1
 263 203 l 1
 268 227 270 242 270 264 c 0
 270 292 266 307 263 325 c 1
 262 325 l 1
 259 307 255 292 255 264 c 0
321 129 m 1
 341 120 362 114 397 114 c 0
 481 114 540 155 540 265 c 0
 540 339 512 414 396 414 c 0
 362 414 341 408 321 399 c 1
 340 367 363 329 363 264 c 0
 363 198 338 158 321 129 c 1
EndSplineSet
EndChar

StartChar: musicalnote
Encoding: 9834 9834 311
Width: 642
Flags: HW
TeX: 694 0
HStem: -33 299<147.818 320.606>
VStem: 58 351<50.636 194.599> 360 75<498.523 630.588> 360 49<225 479> 532 51<126.651 266.334>
LayerCount: 2
Fore
SplineSet
58 124 m 0xc8
 58 209 140 266 234 266 c 0
 285 266 324 251 360 225 c 1
 360 657 l 2x98
 360 665 359 694 385 694 c 0
 423 694 397 646 435 545 c 0xa8
 481 422 583 291 583 157 c 0
 583 134 570 126 559 126 c 0
 531 126 534 163 532 181 c 0
 522 274 470 355 409 479 c 1x98
 409 112 l 1
 402 29 325 -33 234 -33 c 0
 142 -33 58 33 58 124 c 0xc8
EndSplineSet
EndChar

StartChar: tildelow
Encoding: 61705 61705 312
Width: 642
Flags: HW
TeX: 134 0
HStem: 0 75<341.862 464.099> 59 76<176.457 301.083>
VStem: 87 75<0 44.344> 478 76<90.3208 135>
LayerCount: 2
Fore
SplineSet
87 0 m 1xb0
 90 87 157 134 222 135 c 1x70
 308 129 356 75 415 75 c 0xb0
 432 75 474 83 478 135 c 1
 554 135 l 1x70
 551 48 484 1 419 0 c 1xb0
 328 6 292 59 226 59 c 0x70
 196 59 166 42 162 0 c 1
 87 0 l 1xb0
EndSplineSet
EndChar

StartChar: breve.ts1
Encoding: 61707 61707 314
Width: 642
Flags: HW
TeX: 694 0
HStem: 522 82<203.488 435.999> 675 20G<79 156 484.5 562>
VStem: 79 75<647.065 695> 487 75<646.442 695>
LayerCount: 2
Fore
SplineSet
79 695 m 1
 154 695 l 1
 158 630 227 604 320 604 c 0
 397 604 482 622 487 695 c 1
 562 695 l 1
 558 569 422 522 321 522 c 0
 214 522 83 571 79 695 c 1
EndSplineSet
EndChar

StartChar: caron.ts1
Encoding: 61708 61708 315
Width: 642
Flags: HW
TeX: 694 0
HStem: 508 203
DStem2: 216 711 141 711 0.567733 -0.823213<0 172.648> 320 573 358 508 0.570472 0.821317<0 172.1>
LayerCount: 2
Fore
SplineSet
141 711 m 1
 216 711 l 1
 320 573 l 1
 423 711 l 1
 499 711 l 1
 358 508 l 1
 281 508 l 1
 141 711 l 1
EndSplineSet
EndChar

StartChar: dblgrave.ts1
Encoding: 61710 61710 317
Width: 525
Flags: HW
TeX: 694 0
HStem: 546 149<245 262 420 437>
VStem: 87 330
LayerCount: 2
Fore
SplineSet
87 695 m 1
 183 695 l 1
 242 546 l 1
 166 546 l 1
 87 695 l 1
262 695 m 1
 358 695 l 1
 417 546 l 1
 341 546 l 1
 262 695 l 1
EndSplineSet
EndChar

StartChar: dagger
Encoding: 8224 8224 318
Width: 467
Flags: HW
TeX: 694 166
HStem: 424 96<65.7224 184.353 279.95 400.583> 682 20G<224 241.5>
VStem: 185 96<-184 398.728 537.667 694.583>
LayerCount: 2
Fore
SplineSet
58 472 m 0
 58 498 77 520 108 520 c 0
 141 520 183 497 215 491 c 1
 209 545 185 606 185 649 c 0
 185 693 215 702 233 702 c 0
 250 702 281 692 281 652 c 0
 281 611 257 539 251 491 c 1
 289 498 326 520 358 520 c 0
 398 520 408 489 408 472 c 0
 408 447 390 424 358 424 c 0
 325 424 283 448 251 454 c 1
 256 390 281 336 281 257 c 2
 281 -184 l 1
 185 -184 l 1
 185 257 l 2
 185 336 210 392 215 454 c 1
 177 447 141 424 108 424 c 0
 75 424 58 448 58 472 c 0
EndSplineSet
EndChar

StartChar: daggerdbl
Encoding: 8225 8225 319
Width: 467
Flags: HW
TeX: 694 166
HStem: -175 21G<221 242.5> -4 96<66.0204 184.781 280.995 399.98> 435 96<66.0204 184.781 279.437 400.354> 682 20G<223.5 244.5>
VStem: 185 96<-167.55 -18.0614 106.58 255.398 271.375 421.057 543.844 694.625>
LayerCount: 2
Fore
SplineSet
58 44 m 0
 58 61 68 92 108 92 c 0
 141 92 172 72 215 63 c 1
 209 114 185 169 185 210 c 0
 185 252 214 263 233 263 c 0
 257 263 281 249 281 211 c 0
 281 169 259 123 251 63 c 1
 289 71 326 92 358 92 c 0
 398 92 408 61 408 44 c 0
 408 18 388 -4 358 -4 c 0
 323 -4 301 15 251 26 c 1
 257 -21 281 -79 281 -121 c 0
 281 -164 252 -175 233 -175 c 0
 209 -175 185 -160 185 -122 c 0
 185 -80 207 -34 215 26 c 1
 172 17 141 -4 108 -4 c 0
 78 -4 58 18 58 44 c 0
58 483 m 0
 58 500 68 531 108 531 c 0
 139 531 180 510 215 502 c 1
 208 554 185 609 185 649 c 0
 185 691 214 702 233 702 c 0
 256 702 281 689 281 651 c 0
 281 606 259 561 251 502 c 1
 294 511 325 531 358 531 c 0
 389 531 408 509 408 483 c 0
 408 458 390 435 358 435 c 0
 328 435 286 457 251 465 c 1
 258 414 281 357 281 317 c 0
 281 275 252 264 233 264 c 0
 209 264 185 279 185 317 c 0
 185 359 207 405 215 465 c 1
 172 456 141 435 108 435 c 0
 78 435 58 457 58 483 c 0
EndSplineSet
EndChar

StartChar: uni2016
Encoding: 8214 8214 320
Width: 525
Flags: HW
TeX: 750 222
VStem: 176 49<-220.794 748.814> 298 49<-220.794 748.814>
LayerCount: 2
Fore
SplineSet
176 -189 m 2
 176 716 l 2
 176 744 190 749 200 749 c 0
 226 749 225 720 225 714 c 2
 225 -186 l 2
 225 -216 210 -221 200 -221 c 0
 190 -221 176 -216 176 -189 c 2
298 -189 m 2
 298 719 l 2
 298 747 317 749 323 749 c 0
 349 749 347 720 347 714 c 2
 347 -186 l 2
 347 -216 333 -221 323 -221 c 0
 316 -221 298 -218 298 -189 c 2
EndSplineSet
EndChar

StartChar: perthousand
Encoding: 8240 8240 321
Width: 1239
Flags: HW
TeX: 750 55
HStem: -55 75<640.701 714.481 990.791 1064.48> 271 76<641.661 716.194 990.777 1066.81> 347 76<166.34 242.841> 674 76<166.685 242.844>
VStem: 58 91<443.37 650.122> 269 88<452.589 645.807> 532 91<41.1181 249.6> 743 87<49.8981 242.683> 882 91<41.2069 249.472> 1093 87<49.8981 242.943>
DStem2: 190 -15 240 -27 0.529999 0.847998<-16.0184 901.484>
LayerCount: 2
Fore
SplineSet
882 146 m 0
 882 258 950 347 1032 347 c 0
 1107 347 1180 267 1180 145 c 0
 1180 26 1107 -55 1032 -55 c 0
 958 -55 882 23 882 146 c 0
973 140 m 2
 973 83 979 20 1031 20 c 0
 1068 20 1093 79 1093 146 c 0
 1093 182 1085 269 1028 271 c 1
 977 267 973 206 973 157 c 2
 973 140 l 2
EndSplineSet
Refer: 47 37 S 1 0 0 1 0 0 2
EndChar

StartChar: bullet
Encoding: 8226 8226 322
Width: 525
Flags: HW
TeX: 470 -59
HStem: 60 408<171.183 352.767>
VStem: 58 408<173.624 355.139>
LayerCount: 2
Fore
SplineSet
58 265 m 0
 58 382 153 468 262 468 c 0
 370 468 466 383 466 264 c 0
 466 157 380 60 262 60 c 0
 154 60 58 146 58 265 c 0
EndSplineSet
EndChar

StartChar: uni2103
Encoding: 8451 8451 323
Width: 904
Flags: HW
TeX: 694 0
HStem: -17 80<553.351 771.729> 462 49<67.2634 165.827> 632 79<555.067 755.72> 645 49<67.7712 165.963>
VStem: 0 49<529.896 626.517> 184 49<529.348 626.436> 298 104<234.865 463.726>
LayerCount: 2
Fore
SplineSet
0 578 m 0
 0 643 52 694 116 694 c 0
 185 694 233 636 233 578 c 0
 233 514 181 462 117 462 c 0
 48 462 0 519 0 578 c 0
49 578 m 0
 49 539 82 511 117 511 c 0
 155 511 184 541 184 578 c 0
 184 617 152 645 117 645 c 0xde
 78 645 49 613 49 578 c 0
298 348 m 0
 298 549 452 711 643 711 c 0
 722 711 775 700 840 677 c 1
 821 573 l 1
 775 603 732 632 645 632 c 0
 505 632 402 501 402 347 c 0
 402 199 500 63 647 63 c 0
 754 63 791 92 844 126 c 1
 851 39 l 1
 793 6 752 -17 647 -17 c 0xee
 438 -17 298 159 298 348 c 0
EndSplineSet
EndChar

StartChar: dollaroldstyle
Encoding: 63268 63268 324
Width: 642
Flags: HW
TeX: 750 55
HStem: -8 80<296 343> 0 82<149.498 221> 615 80<419 489.735> 622 80<296 343>
VStem: 57 89<472.811 570.164> 221 75<-55 -8 82 313 440 605 702 750> 343 76<-55 -7 91 280 410 615 702 750> 494 88<130.192 241.288>
LayerCount: 2
Fore
SplineSet
46 61 m 1
 61 148 l 1
 111 119 152 97 221 82 c 1x4f
 221 332 l 1
 158 349 57 406 57 509 c 0
 57 593 131 664 221 689 c 1
 221 750 l 1
 296 750 l 1
 296 702 l 1
 305 703 314 703 323 703 c 0
 330 703 336 702 343 702 c 1x5f
 343 750 l 1
 419 750 l 1
 419 695 l 1
 479 685 523 666 565 647 c 1
 550 564 l 1
 488 596 473 602 419 615 c 1
 419 390 l 1
 531 352 582 275 582 198 c 0
 582 121 526 42 419 7 c 1
 419 -55 l 1
 343 -55 l 1
 343 -7 l 1
 296 -8 l 1xaf
 296 -55 l 1
 221 -55 l 1
 221 0 l 1
 149 12 94 35 46 61 c 1
146 523 m 0
 146 490 167 461 221 440 c 1
 221 605 l 1
 206 599 146 574 146 523 c 0
296 72 m 1x8f
 343 72 l 1
 343 302 l 1
 297 313 l 1
 296 279 l 1
 296 72 l 1x8f
296 420 m 1
 343 410 l 1
 343 623 l 1
 296 622 l 1x1f
 296 420 l 1
419 91 m 1
 447 105 494 134 494 186 c 0x0f
 494 240 443 269 419 280 c 1
 419 91 l 1
EndSplineSet
EndChar

StartChar: centoldstyle
Encoding: 63394 63394 325
Width: 525
Flags: HW
TeX: 555 83
HStem: -8 78<221.152 420.101> 407 78<207.086 314.672>
VStem: 35 96<145.729 328.483>
DStem2: 50 -65 116 -101 0.48877 0.872413<0.851934 137.196 226.991 540.43 650.066 732.431>
LayerCount: 2
Fore
SplineSet
35 236 m 0
 35 359 131 485 299 485 c 0
 319 485 344 484 357 482 c 1
 408 574 l 1
 410 574 l 1
 474 537 l 1
 434 465 l 1
 453 459 472 450 490 442 c 1
 475 360 l 1
 449 374 423 387 395 395 c 1
 220 84 l 1
 248 74 265 70 295 70 c 0
 386 70 441 98 488 125 c 1
 495 42 l 1
 435 11 376 -8 295 -8 c 0
 239 -8 213 3 181 15 c 1
 116 -101 l 1
 50 -65 l 1
 118 56 l 1
 78 90 35 153 35 236 c 0
131 237 m 0
 131 195 141 164 160 133 c 1
 161 133 l 1
 315 406 l 1
 309 406 302 407 296 407 c 0
 165 407 131 311 131 237 c 0
EndSplineSet
EndChar

StartChar: colonmonetary
Encoding: 8353 8353 327
Width: 671
Flags: HW
TeX: 750 55
HStem: -15 81<312.449 370 445 544.497> 628 81<312.449 370 445 530.145>
VStem: 64 105<231.199 463.345> 370 75<-55 -16 66 628 710 750>
LayerCount: 2
Fore
SplineSet
64 347 m 0
 64 526 188 687 370 709 c 1
 370 750 l 1
 445 750 l 1
 445 710 l 1
 510 707 560 693 606 677 c 1
 588 573 l 1
 554 595 517 622 445 630 c 1
 445 64 l 1
 518 69 544 83 610 126 c 1
 618 39 l 1
 556 4 515 -14 445 -16 c 1
 445 -55 l 1
 370 -55 l 1
 370 -15 l 1
 188 7 64 168 64 347 c 0
169 347 m 0
 169 216 244 92 370 66 c 1
 370 628 l 1
 246 603 169 480 169 347 c 0
EndSplineSet
EndChar

StartChar: uni20A9
Encoding: 8361 8361 328
Width: 967
Flags: HW
TeX: 694 0
ItalicCorrection: 14
HStem: -5 21G<211.222 325.667 637.222 755.778> 175 75<-9.53267 143 261 291 392 570 684 716 824 985.695> 369 75<-18.8359 87 209 342 446 517 632 768 880 985.256> 675 20G<15 121.737 429.263 543.737 855.343 952>
DStem2: 116 695 15 695 0.277258 -0.960795<0 233.119 339.004 435.04> 310 250 392 250 0.270432 0.962739<22.1754 123.22 223.55 357.09> 736 250 824 250 0.277258 0.960795<-122.652 -77.6048 24.3987 123.207 226.319 462.211>
LayerCount: 2
Fore
SplineSet
-22 212 m 0
 -22 227 -15 250 25 250 c 2
 143 250 l 1
 109 369 l 1
 36 369 l 2
 32 369 27 368 23 368 c 0
 -19 368 -22 397 -22 407 c 0
 -22 417 -19 444 23 444 c 2
 87 444 l 1
 15 695 l 1
 116 695 l 1
 188 444 l 1
 363 444 l 1
 435 695 l 1
 538 695 l 1
 610 444 l 1
 790 444 l 1
 861 695 l 1
 952 695 l 1
 880 444 l 1
 944 444 l 2
 985 444 989 417 989 407 c 0
 989 397 984 368 943 368 c 0
 939 368 935 369 931 369 c 2
 858 369 l 1
 824 250 l 1
 942 250 l 2
 982 250 989 227 989 212 c 0
 989 197 983 175 942 175 c 2
 802 175 l 1
 750 -5 l 1
 643 -5 l 1
 591 175 l 1
 371 175 l 1
 320 -5 l 1
 217 -5 l 1
 165 175 l 1
 25 175 l 2
 8 175 0 175 -10 184 c 0
 -18 191 -22 201 -22 212 c 0
209 369 m 1
 241 250 l 1
 310 250 l 1
 342 369 l 1
 209 369 l 1
261 175 m 1
 269 136 l 1
 276 96 l 1
 279 123 286 149 291 175 c 1
 261 175 l 1
392 250 m 1
 570 250 l 1
 537 369 l 1
 426 369 l 1
 425 368 l 1
 392 250 l 1
446 444 m 1
 517 444 l 1
 498 521 484 567 482 598 c 1
 477 574 l 1
 446 444 l 1
632 369 m 1
 664 250 l 1
 736 250 l 1
 768 369 l 1
 632 369 l 1
684 175 m 1
 693 135 l 1
 700 96 l 1
 706 131 l 1
 716 175 l 1
 684 175 l 1
EndSplineSet
EndChar

StartChar: uni20A6
Encoding: 8358 8358 329
Width: 737
Flags: HW
TeX: 694 0
HStem: 0 21G<98 191 482.943 639> 175 75<-54.3985 98 191 367 505 545 639 797.826> 369 75<-60.4653 98 192 270 408 545 639 791.35> 675 20G<98 254.04 545 639>
VStem: 98 93<0 175 250 369 444 601> 545 94<94 175 250 369 444 695>
DStem2: 244 695 192 601 0.447809 -0.894129<60.7621 236.07 364.927 452.968 581.825 672.162>
LayerCount: 2
Fore
SplineSet
-65 212 m 0
 -65 224 -59 250 -17 250 c 2
 98 250 l 1
 98 369 l 1
 -17 369 l 2
 -59 369 -65 394 -65 406 c 0
 -65 425 -48 439 -37 442 c 0
 -27 445 -16 444 -6 444 c 2
 98 444 l 1
 98 695 l 1
 244 695 l 1
 370 444 l 1
 545 444 l 1
 545 695 l 1
 639 695 l 1
 639 444 l 1
 752 444 l 2
 773 444 778 443 792 431 c 1
 797 425 801 416 801 406 c 0
 801 395 797 369 754 369 c 2
 639 369 l 1
 639 250 l 1
 754 250 l 2
 797 250 801 223 801 212 c 0
 801 190 784 179 774 176 c 0
 764 173 753 175 743 175 c 2
 639 175 l 1
 639 0 l 1
 493 0 l 1
 405 175 l 1
 191 175 l 1
 191 0 l 1
 98 0 l 1
 98 175 l 1
 -6 175 l 2
 -40 175 -42 176 -55 188 c 0
 -58 192 -65 200 -65 212 c 0
191 250 m 1
 367 250 l 1
 308 369 l 1
 192 369 l 1
 191 324 l 1
 191 250 l 1
191 444 m 1
 270 444 l 1
 192 601 l 1
 191 543 l 1
 191 444 l 1
408 369 m 1
 467 250 l 1
 545 250 l 1
 545 369 l 1
 408 369 l 1
505 175 m 1
 545 94 l 1
 545 175 l 1
 505 175 l 1
EndSplineSet
EndChar

StartChar: uni20B2
Encoding: 8370 8370 330
Width: 817
Flags: HW
TeX: 750 55
HStem: -15 80<350.745 428 504 646.898> 249 79<504 649> 630 80<351.102 428 504 619.375>
VStem: 64 105<242.817 449.923> 428 76<-55 -16 65 249 328 630 710 750> 649 97<81.4666 249>
LayerCount: 2
Fore
SplineSet
64 347 m 0
 64 551 244 698 428 710 c 1
 428 750 l 1
 504 750 l 1
 504 711 l 1
 595 705 643 697 737 663 c 1
 719 559 l 1
 654 596 615 621 504 631 c 1
 504 328 l 1
 746 328 l 1
 746 32 l 1
 654 0 577 -13 504 -16 c 1
 504 -55 l 1
 428 -55 l 1
 428 -15 l 1
 239 -3 64 149 64 347 c 0
169 348 m 0
 169 214 267 87 428 65 c 1
 428 630 l 1
 260 608 169 473 169 348 c 0
504 64 m 1
 570 68 604 76 649 86 c 1
 649 249 l 1
 504 249 l 1
 504 64 l 1
EndSplineSet
EndChar

StartChar: peso
Encoding: 61711 61711 331
Width: 673
Flags: HW
TeX: 694 0
HStem: 0 21G<96 201> 175 75<-61.2031 96 201 440.017> 270 77<201 451.915> 615 80<199 452.038>
VStem: 96 105<0 175 250 270 347 615> 516 98<404.31 557.041>
LayerCount: 2
Fore
SplineSet
-65 212 m 0
 -65 223 -60 250 -18 250 c 2
 96 250 l 1
 96 695 l 1
 350 695 l 2
 407 695 458 688 512 654 c 0
 574 615 614 551 614 482 c 0
 614 387 532 270 359 270 c 2
 201 270 l 1
 201 250 l 1
 392 250 l 2
 400 250 409 250 417 248 c 0
 433 243 444 228 444 212 c 0
 444 195 433 181 417 176 c 0
 409 173 399 175 390 175 c 2
 201 175 l 1
 201 0 l 1
 96 0 l 1
 96 175 l 1
 -6 175 l 2
 -40 175 -40 175 -54 187 c 0
 -58 191 -65 199 -65 212 c 0
199 347 m 1
 329 347 l 2
 388 347 516 349 516 481 c 0
 516 613 388 615 331 615 c 2
 199 615 l 1
 199 347 l 1
EndSplineSet
EndChar

StartChar: lira
Encoding: 8356 8356 332
Width: 671
Flags: HW
TeX: 694 0
HStem: -8 147<95.9809 237.339> -8 75<400.734 539.38> 175 75<140.691 243 339 470.142> 340 75<140.428 243 339 470.202> 477 21G<548.5 578> 664 76<377.381 483.512>
VStem: 243 96<135.61 175 250 340 415 620.046> 516 96<521 624.003> 545 96<70.1198 139>
LayerCount: 2
Fore
SplineSet
58 59 m 0
 58 122 139 139 194 139 c 0xbe80
 209 139 225 137 240 135 c 1
 242 148 243 162 243 175 c 1
 192 175 l 2
 189 175 185 174 182 174 c 0
 142 174 137 203 137 212 c 0
 137 223 142 250 184 250 c 2
 243 250 l 1
 243 340 l 1
 182 340 l 2
 141 340 137 369 137 377 c 0
 137 388 142 415 184 415 c 2
 243 415 l 1
 243 512 l 2
 243 671 353 740 436 740 c 0
 555 740 612 615 612 526 c 0
 612 487 588 480 568 477 c 1
 529 482 525 506 524 521 c 1
 516 521 l 1
 515 578 504 664 436 664 c 0
 406 664 378 650 361 626 c 0
 341 596 339 559 339 525 c 2
 339 415 l 1
 415 415 l 2
 419 415 423 416 428 416 c 0
 470 416 474 387 474 378 c 0
 474 369 470 340 429 340 c 2
 339 340 l 1
 339 250 l 1
 428 250 l 2
 470 250 474 221 474 212 c 0
 474 202 469 175 429 175 c 2
 339 175 l 1
 339 151 335 131 328 113 c 1
 388 93 455 67 510 67 c 0x7f
 540 67 545 89 545 132 c 2
 545 139 l 1
 641 139 l 1xbe80
 638 46 558 -8 472 -8 c 0x7e80
 416 -8 375 7 277 40 c 1
 228 -2 173 -8 147 -8 c 0
 99 -8 58 19 58 59 c 0
EndSplineSet
EndChar

StartChar: uni211E
Encoding: 8478 8478 333
Width: 671
Flags: HW
TeX: 694 0
HStem: 0 21G<81 183 523.733 641> 310 75<183 345> 615 80<184 453.999>
VStem: 81 102<0 310 385 615> 513 98<437.134 563.661>
DStem2: 273 110 324 50 0.765388 0.643569<0.420618 156.624 255.44 435.074> 438 322 345 310 0.533301 -0.845926<0 55.7575 148.699 324.652>
LayerCount: 2
Fore
SplineSet
81 0 m 1
 81 695 l 1
 326 695 l 2
 387 695 450 688 513 651 c 0
 572 616 611 561 611 501 c 0
 611 416 533 346 438 322 c 1
 468 275 l 1
 606 390 l 1
 657 330 l 1
 511 207 l 1
 641 0 l 1
 536 0 l 1
 444 150 l 1
 324 50 l 1
 273 110 l 1
 401 218 l 1
 345 310 l 1
 183 310 l 1
 183 0 l 1
 81 0 l 1
183 385 m 1
 321 385 l 2
 398 385 465 394 497 444 c 0
 508 461 513 480 513 500 c 0
 513 531 500 565 468 586 c 0
 427 613 374 615 326 615 c 2
 184 615 l 1
 183 582 l 1
 183 385 l 1
EndSplineSet
EndChar

StartChar: uni203D
Encoding: 8253 8253 334
Width: 496
Flags: HW
TeX: 694 0
HStem: 0 117<189 306> 555 76<125.994 190> 675 20G<189 306>
VStem: 186 108<207 338.438> 189 117<0 117> 198 102<211.07 346.523 631 636.189 689.764 695> 341 96<459.237 547.341>
LayerCount: 2
Fore
SplineSet
58 590 m 1
 98 610 139 625 190 631 c 1
 189 695 l 1
 306 695 l 1xea
 304 628 l 1
 425 606 437 529 437 499 c 0
 437 467 423 431 393 406 c 0
 392 405 322 360 300 316 c 0xe6
 296 308 296 295 294 207 c 1
 186 207 l 1
 186 234 l 2xf2
 186 294 197 305 198 324 c 1xe6
 192 555 l 1
 148 546 125 535 87 511 c 1
 58 590 l 1
300 447 m 1
 321 459 341 471 341 501 c 0xe6
 341 543 314 551 303 554 c 1
 302 503 l 1
 300 447 l 1
EndSplineSet
Refer: 56 46 S 1 0 0 1 102 -0 2
EndChar

StartChar: uni2E18
Encoding: 11800 11800 335
Width: 496
Flags: HW
TeX: 523 166
HStem: -167 21G<189 306> -103 75<159.712 190 304 359.949> 410 117<189 306>
VStem: 58 96<-22.6298 73.7031> 186 108<200.299 321> 189 117<410 527> 192 111<-167 -100.595 -23 90>
LayerCount: 2
Fore
SplineSet
58 29 m 0
 58 98 101 126 117 140 c 0
 186 202 186 266 186 293 c 2
 186 321 l 1
 294 321 l 1xf8
 303 -23 l 1xf2
 347 -13 368 -5 408 16 c 1
 437 -63 l 1
 374 -90 331 -96 304 -100 c 1
 306 -167 l 1
 189 -167 l 1xf4
 190 -103 l 1
 73 -89 58 -7 58 29 c 0
154 24 m 1
 156 -3 155 -21 192 -28 c 1
 195 90 l 1xf2
 165 65 154 58 154 24 c 1
EndSplineSet
Refer: 56 46 S 1 0 0 1 102 410 2
EndChar

StartChar: dong
Encoding: 8363 8363 336
Width: 517
Flags: HW
TeX: 750 0
HStem: -49 49<59.4977 572.855> 47 76<186.404 295.819> 460 76<191.17 303.752> 601 76<179 357 451 550>
VStem: 35 96<181.921 395.275> 355 96<55 115 151.094 441.773 478 601 677 750>
LayerCount: 2
Fore
SplineSet
35 292 m 0
 35 421 107 536 211 536 c 0
 274 536 323 508 357 478 c 1
 357 601 l 1
 179 601 l 1
 179 677 l 1
 357 677 l 1
 357 750 l 1
 451 750 l 1
 451 677 l 1
 550 677 l 1
 550 601 l 1
 451 601 l 1
 451 55 l 1
 355 55 l 1
 355 115 l 1
 323 82 278 47 210 47 c 0
 109 47 35 160 35 292 c 0
59 -24 m 1
 64 -1 79 0 94 0 c 2
 543 0 l 1
 570 -1 573 -16 573 -25 c 0
 573 -30 571 -49 541 -49 c 2
 92 -49 l 2
 75 -49 62 -47 59 -24 c 1
131 278 m 1
 132 240 137 200 160 169 c 0
 183 138 223 123 261 123 c 0
 317 123 343 160 355 176 c 1
 355 423 l 1
 333 446 310 460 272 460 c 0
 200 460 132 426 131 299 c 1
 131 278 l 1
EndSplineSet
EndChar

StartChar: trademark
Encoding: 8482 8482 337
Width: 700
Flags: HW
TeX: 750 0
ItalicCorrection: 524
HStem: 483 21G<506 544.5> 675 75<5.02496 127 223 343.869>
VStem: 127 96<364.281 675> 360 96<364.545 549> 593 97<364.809 548>
LayerCount: 2
Fore
SplineSet
1 712 m 0
 1 727 8 750 60 750 c 2
 289 750 l 2
 302 750 315 750 327 744 c 0
 339 738 349 725 349 711 c 0
 349 701 343 675 291 675 c 2
 223 675 l 1
 223 406 l 2
 223 365 192 358 175 358 c 0
 152 358 127 369 127 408 c 2
 127 675 l 1
 58 675 l 2
 9 675 1 699 1 712 c 0
360 403 m 1
 360 722 l 1
 361 762 394 767 408 767 c 0
 449 767 450 748 525 615 c 1
 602 754 602 767 641 767 c 0
 654 767 690 762 690 720 c 2
 690 405 l 2
 690 401 691 358 641 358 c 0
 613 358 599 376 595 388 c 0
 593 395 593 403 593 411 c 2
 593 548 l 1
 573 512 564 483 525 483 c 0
 487 483 477 511 456 549 c 1
 456 407 l 2
 456 366 428 358 408 358 c 0
 392 358 361 365 360 403 c 1
EndSplineSet
EndChar

StartChar: uni2031
Encoding: 8241 8241 338
Width: 1669
Flags: HW
TeX: 750 55
HStem: -55 75<640.701 714.481 1030.7 1106.02 1419.84 1495.2> 271 76<641.661 716.194 1030.69 1106.81 1420.01 1495.48> 347 76<166.34 242.841> 674 76<166.685 242.844>
VStem: 58 91<443.37 650.122> 269 88<452.589 645.807> 532 91<41.1181 249.6> 743 87<49.8981 242.683> 922 91<41.3914 247.122> 1133 87<49.678 242.943> 1311 92<41.1181 247.565> 1523 87<50.6725 241.851>
DStem2: 190 -15 240 -27 0.529999 0.847998<-16.0184 901.484>
LayerCount: 2
Fore
SplineSet
922 146 m 0
 922 269 999 347 1072 347 c 0
 1147 347 1220 267 1220 145 c 0
 1220 25 1146 -55 1072 -55 c 0
 998 -55 922 23 922 146 c 0
1013 140 m 2
 1013 91 1016 20 1071 20 c 0
 1108 20 1133 79 1133 146 c 0
 1133 182 1125 269 1068 271 c 1
 1017 267 1013 206 1013 157 c 2
 1013 140 l 2
1311 146 m 0
 1311 270 1389 347 1461 347 c 0
 1544 347 1610 257 1610 145 c 0
 1610 25 1535 -55 1461 -55 c 0
 1387 -55 1311 23 1311 146 c 0
1403 139 m 2
 1403 90 1405 20 1460 20 c 0
 1497 20 1523 79 1523 146 c 0
 1523 182 1514 269 1457 271 c 1
 1406 267 1403 207 1403 157 c 2
 1403 139 l 2
EndSplineSet
Refer: 47 37 S 1 0 0 1 0 0 2
EndChar

StartChar: uni2029
Encoding: 8233 8233 339
Width: 496
Flags: HW
TeX: 694 166
HStem: -166 21G<350 365.5> 645 50<379 464.758>
VStem: 58 321<380.31 573.637> 330 49<-165.754 241.268>
LayerCount: 2
Fore
SplineSet
58 469 m 0
 58 555 107 695 258 695 c 2
 433 695 l 2
 462 695 465 678 465 671 c 0
 465 648 446 645 432 645 c 2xe0
 379 645 l 1
 379 -129 l 2
 379 -147 376 -166 355 -166 c 0
 345 -166 334 -159 331 -149 c 0
 328 -141 330 -132 330 -124 c 2
 330 240 l 1xd0
 212 246 58 316 58 469 c 0
EndSplineSet
EndChar

StartChar: uni0E3F
Encoding: 3647 3647 340
Width: 687
Flags: HW
TeX: 750 55
HStem: 0 80<182 261 336 447.522> 324 75<183 261 337 416.752> 615 80<183 261 337 425.285>
VStem: 82 100<80 324 399 615> 261 75<-55 0 80 323 400 614 695 750> 502 97<462.926 561.916> 529 99<140.692 249.053>
LayerCount: 2
Fore
SplineSet
82 0 m 1
 82 695 l 1
 261 695 l 1
 261 750 l 1
 336 750 l 1
 336 695 l 1
 494 694 599 607 599 517 c 0xfc
 599 460 553 406 465 374 c 1
 431 364 l 1
 539 345 628 278 628 192 c 0
 628 97 533 19 415 3 c 0
 392 0 368 0 345 -0 c 2
 336 -0 l 1
 336 -55 l 1
 261 -55 l 1
 261 0 l 1
 82 0 l 1
182 80 m 1
 261 80 l 1
 261 324 l 1
 183 324 l 1
 182 289 l 1
 182 80 l 1
182 399 m 1
 261 399 l 1
 261 615 l 1
 183 615 l 1
 182 583 l 1
 182 399 l 1
336 80 m 1
 451 81 529 133 529 194 c 0xfa
 529 232 490 314 337 323 c 1
 336 288 l 1
 336 80 l 1
336 400 m 1
 455 412 502 473 502 515 c 0xfc
 502 575 416 607 337 614 c 1
 336 582 l 1
 336 400 l 1
EndSplineSet
EndChar

StartChar: uni2116
Encoding: 8470 8470 341
Width: 825
Flags: HW
TeX: 694 0
HStem: 0 21G<83 177 267 474> 165 75<547 769> 456 76<627.341 690.005> 675 20G<83 281.5 381 474>
VStem: 83 94<0 598> 328 146<0 76.0725> 381 93<96 695> 547 77<369.91 443.531> 692 77<368.676 455.452>
LayerCount: 2
Fore
SplineSet
83 0 m 1
 83 695 l 1
 230 695 l 1
 333 329 370 196 381 96 c 1
 381 695 l 1
 474 695 l 1xfb80
 474 0 l 1
 328 0 l 1xfd80
 206 427 189 506 177 598 c 1
 177 0 l 1
 83 0 l 1
547 165 m 1
 547 240 l 1
 769 240 l 1
 769 165 l 1
 547 165 l 1
547 408 m 0
 547 480 600 532 658 532 c 0
 724 532 769 469 769 407 c 0
 769 336 714 289 658 289 c 0
 603 289 547 335 547 408 c 0
624 403 m 2xf980
 624 373 624 369 657 367 c 1
 680 369 692 362 692 402 c 0
 692 446 687 455 665 456 c 1
 640 455 638 456 628 444 c 1
 624 434 624 423 624 413 c 2
 624 403 l 2xf980
EndSplineSet
EndChar

StartChar: uni2052
Encoding: 8274 8274 342
Width: 525
Flags: HW
TeX: 750 0
HStem: -0 166<276.259 440.627> 584 166<84.2524 247.748>
VStem: 83 166<584.932 749.027> 275 167<1.01834 164.993>
DStem2: 70 53 112 27 0.455646 0.890161<-30.4541 779.092>
LayerCount: 2
Fore
SplineSet
59 24 m 0
 59 33 62 36 70 53 c 2
 414 725 l 2
 419 734 425 749 441 749 c 0
 453 749 466 740 466 726 c 0
 466 716 458 703 457 701 c 2
 112 27 l 2
 107 18 100 1 83 1 c 0
 65 1 59 17 59 24 c 0
83 616 m 2
 83 714 l 1
 84 728 82 750 115 750 c 2
 215 750 l 2
 237 750 249 744 249 717 c 2
 249 620 l 1
 248 605 250 584 217 584 c 2
 117 584 l 2
 95 584 83 589 83 616 c 2
275 33 m 2
 275 130 l 1
 276 144 274 166 308 166 c 2
 406 166 l 2
 422 166 442 166 442 133 c 2
 442 37 l 1
 441 22 443 0 410 -0 c 2
 310 -0 l 2
 287 0 275 6 275 33 c 2
EndSplineSet
EndChar

StartChar: estimated
Encoding: 8494 8494 343
Width: 708
Flags: HW
TeX: 694 0
HStem: -8 75<288.914 556.219> 361 59<138 580> 631 76<276.883 463.255>
VStem: 29 101<240.21 361>
LayerCount: 2
Fore
SplineSet
29 350 m 0
 29 546 179 707 370 707 c 0
 504 707 679 638 679 361 c 1
 131 361 l 1
 131 356 130 352 130 347 c 0
 130 212 228 67 387 67 c 0
 515 67 607 102 665 124 c 1
 673 43 l 1
 565 5 466 -8 387 -8 c 0
 173 -8 29 164 29 350 c 0
138 420 m 1
 580 420 l 1
 571 481 556 528 521 568 c 0
 482 612 422 631 369 631 c 0
 233 631 156 509 138 420 c 1
EndSplineSet
EndChar

StartChar: openbullet
Encoding: 9702 9702 344
Width: 525
Flags: HW
TeX: 470 -59
HStem: 60 49<184.117 339.442> 419 49<184.128 339.883>
VStem: 58 49<186.172 342.722> 417 49<185.495 342.259>
LayerCount: 2
Fore
SplineSet
58 265 m 0
 58 382 153 468 262 468 c 0
 370 468 466 383 466 264 c 0
 466 157 380 60 262 60 c 0
 154 60 58 146 58 265 c 0
107 264 m 0
 107 174 181 109 262 109 c 0
 342 109 417 172 417 264 c 0
 417 354 343 419 262 419 c 0
 182 419 107 356 107 264 c 0
EndSplineSet
EndChar

StartChar: uni2120
Encoding: 8480 8480 345
Width: 700
Flags: HW
TeX: 750 0
ItalicCorrection: 524
HStem: 375 75<15.2969 246.703> 483 21G<506 544.5> 544 75<110.75 245.6> 675 75<110.703 334.865>
VStem: 10 97<620.531 671.878> 248 97<452.599 542.963> 360 96<364.545 549> 593 97<364.809 548>
LayerCount: 2
Fore
SplineSet
10 646 m 0
 10 748 94 750 151 750 c 2
 281 750 l 2
 330 750 339 727 339 712 c 0
 339 700 333 675 282 675 c 2
 155 675 l 2
 140 675 125 674 110 672 c 1
 108 664 107 656 107 647 c 0
 107 638 108 629 110 621 c 1
 126 619 142 619 158 619 c 2
 209 619 l 2
 353 619 344 528 345 492 c 1
 345 378 260 375 197 375 c 2
 66 375 l 2
 24 375 11 397 11 412 c 0
 11 427 21 450 70 450 c 2
 195 450 l 1
 246 451 248 447 248 503 c 0
 248 541 241 544 208 544 c 2
 152 544 l 2
 97 544 10 543 10 646 c 0
360 403 m 1
 360 722 l 1
 361 762 395 767 408 767 c 0
 449 767 450 748 525 615 c 1
 602 754 602 767 641 767 c 0
 654 767 690 762 690 720 c 2
 690 405 l 2
 690 401 691 358 641 358 c 0
 613 358 599 376 595 388 c 0
 593 395 593 403 593 411 c 2
 593 548 l 1
 573 512 564 483 525 483 c 0
 487 483 477 511 456 549 c 1
 456 407 l 2
 456 366 428 358 408 358 c 0
 392 358 361 365 360 403 c 1
EndSplineSet
EndChar

StartChar: uni2045
Encoding: 8261 8261 346
Width: 379
Flags: HW
TeX: 750 222
HStem: -297 75<205.549 329> 226 76<244.941 329> 675 75<171.132 329>
VStem: 68 96<-183.321 168.11 358.484 666.311>
LayerCount: 2
Fore
SplineSet
68 101 m 2
 68 119 69 137 74 154 c 0
 108 259 236 263 243 264 c 1
 166 267 95 309 74 374 c 0
 68 391 68 409 68 427 c 2
 68 630 l 2
 68 726 146 749 329 750 c 1
 329 675 l 1
 253 675 l 2
 191 675 164 669 164 629 c 2
 164 424 l 2
 164 321 272 302 329 302 c 1
 329 226 l 1
 260 226 164 199 164 105 c 2
 164 -102 l 2
 164 -153 184 -222 262 -222 c 2
 329 -222 l 1
 329 -297 l 1
 236 -296 68 -259 68 -102 c 2
 68 101 l 2
EndSplineSet
EndChar

StartChar: uni2046
Encoding: 8262 8262 347
Width: 379
Flags: HW
TeX: 750 222
HStem: -222 75<49 205.183> 226 76<49 131.09> 675 75<49 205.983>
VStem: 214 96<-139.188 170.239 357.966 666.755>
CounterMasks: 1 e0
LayerCount: 2
Fore
SplineSet
49 -147 m 1
 125 -147 l 2
 192 -147 214 -140 214 -101 c 2
 214 104 l 2
 214 202 117 226 49 226 c 1
 49 302 l 1
 129 302 192 336 209 385 c 0
 213 398 214 411 214 424 c 2
 214 628 l 2
 214 667 191 675 125 675 c 2
 49 675 l 1
 49 750 l 1
 230 749 310 726 310 631 c 2
 310 427 l 2
 310 409 310 391 304 374 c 0
 285 315 227 277 162 267 c 1
 134 264 l 1
 211 261 283 219 304 154 c 0
 310 137 310 119 310 101 c 2
 310 -101 l 2
 310 -174 278 -221 49 -222 c 1
 49 -147 l 1
EndSplineSet
EndChar

StartChar: cent
Encoding: 162 162 348
Width: 525
Flags: HW
TeX: 555 83
HStem: -5 79<200.476 254 329 429.824> 406 77<205.884 254 329.048 424.083>
VStem: 35 96<147.973 328.711> 254 75<-83 -5 74 403 482.946 560>
LayerCount: 2
Fore
SplineSet
35 236 m 0
 35 345 112 460 254 482 c 1
 254 560 l 1
 329 560 l 1
 329 484 l 1
 330 483 332 483 335 483 c 2
 347 483 l 2
 367 483 407 479 490 442 c 1
 475 360 l 1
 415 392 388 402 329 406 c 1
 329 71 l 1
 394 76 438 96 488 125 c 1
 495 42 l 1
 439 13 393 -2 329 -7 c 1
 329 -83 l 1
 254 -83 l 1
 254 -5 l 1
 120 15 35 122 35 236 c 0
131 237 m 0
 131 143 184 88 254 74 c 1
 254 403 l 1
 134 378 131 263 131 237 c 0
EndSplineSet
EndChar

StartChar: currency
Encoding: 164 164 349
Width: 803
Flags: HW
TeX: 611 0
HStem: -8 49<297.038 502.438> 566 49<298.773 502.064>
VStem: 89 49<201.211 408.463> 663 49<198.959 408.109>
LayerCount: 2
Fore
SplineSet
52 -21 m 0
 52 -7 54 -8 163 101 c 1
 125 146 89 216 89 304 c 0
 89 390 121 454 163 506 c 1
 52 617 52 615 52 628 c 0
 52 640 61 653 76 653 c 2
 77 653 l 2
 88 653 88 651 198 541 c 1
 259 594 334 615 400 615 c 0
 485 615 550 584 603 541 c 1
 714 652 712 652 725 652 c 0
 737 652 749 643 749 628 c 0
 749 614 747 615 638 506 c 1
 676 461 712 391 712 303 c 0
 712 217 680 153 638 101 c 1
 749 -9 749 -8 749 -21 c 0
 749 -33 740 -45 725 -45 c 0
 711 -45 712 -43 603 66 c 1
 542 13 467 -8 401 -8 c 0
 316 -8 251 23 198 66 c 1
 88 -45 89 -45 76 -45 c 0
 64 -45 52 -36 52 -21 c 0
138 304 m 0
 138 162 252 41 401 41 c 0
 541 41 663 153 663 304 c 0
 663 455 540 566 400 566 c 0
 261 566 138 455 138 304 c 0
EndSplineSet
EndChar

StartChar: yen
Encoding: 165 165 350
Width: 675
Flags: HW
TeX: 694 0
ItalicCorrection: 26
HStem: -0 21G<286 388> 175 75<-30.5723 286 388 705.572> 387 76<-22.5312 160 335 352 514 704.781> 675 20G<3 140.534 546.466 671>
VStem: 286 102<0 175 250 276>
DStem2: 127 695 3 695 0.56155 -0.827443<0 210.498 371.655 387.465> 344 374 398 292 0.560848 0.827919<0 15.2497 169.029 386.905>
LayerCount: 2
Fore
SplineSet
-34 212 m 0
 -34 224 -29 250 13 250 c 2
 286 250 l 1
 286 278 l 1
 212 387 l 1
 16 387 l 2
 -3 387 -13 388 -23 398 c 0
 -31 405 -34 415 -34 425 c 0
 -34 447 -17 458 -6 461 c 0
 1 463 9 463 17 463 c 2
 160 463 l 1
 3 695 l 1
 127 695 l 1
 284 463 l 1
 403 463 l 1
 560 695 l 1
 671 695 l 1
 514 463 l 1
 657 463 l 2
 665 463 672 463 680 461 c 0
 696 457 709 442 709 425 c 0
 709 411 699 392 679 388 c 0
 672 387 665 387 658 387 c 2
 463 387 l 1
 398 292 l 1
 389 276 l 1
 388 264 l 1
 388 250 l 1
 664 250 l 2
 705 250 709 222 709 212 c 0
 709 199 704 175 662 175 c 2
 388 175 l 1
 388 -0 l 1
 286 -0 l 1
 286 175 l 1
 11 175 l 2
 -30 175 -34 202 -34 212 c 0
335 387 m 1
 344 374 l 1
 352 387 l 1
 335 387 l 1
EndSplineSet
EndChar

StartChar: brokenbar
Encoding: 166 166 351
Width: 175
Flags: HW
TeX: 750 222
VStem: 62 49<-220.814 181.773 347.184 748.816>
LayerCount: 2
Fore
SplineSet
62 150 m 2
 62 178 80 182 87 182 c 0
 94 182 111 178 111 150 c 2
 111 -189 l 2
 111 -218 94 -221 87 -221 c 0
 80 -221 62 -218 62 -190 c 2
 62 150 l 2
62 378 m 2
 62 718 l 2
 62 746 80 749 87 749 c 0
 94 749 111 746 111 718 c 2
 111 378 l 2
 111 350 94 347 87 347 c 0
 80 347 62 350 62 378 c 2
EndSplineSet
EndChar

StartChar: dieresis.ts1
Encoding: 62030 62030 352
Width: 525
Flags: HW
TeX: 694 0
HStem: 582 113<103 216 307 420>
VStem: 103 113<582 695> 307 113<582 695>
LayerCount: 2
Fore
SplineSet
103 582 m 1
 103 695 l 1
 216 695 l 1
 216 582 l 1
 103 582 l 1
307 582 m 1
 307 695 l 1
 420 695 l 1
 420 582 l 1
 307 582 l 1
EndSplineSet
EndChar

StartChar: copyright
Encoding: 169 169 353
Width: 1091
Flags: HW
TeX: 750 222
HStem: -239 49<413.699 674.378> -17 80<501.627 731.971> 424 79<498.982 712.428> 718 49<415.546 673.458>
VStem: 58 49<126.501 402.056> 259 105<171.645 313.133> 982 49<125.029 403.52>
LayerCount: 2
Fore
SplineSet
259 243 m 0
 259 381 409 503 621 503 c 0
 681 503 729 493 772 479 c 1
 754 375 l 1
 719 400 690 424 617 424 c 0
 468 424 364 335 364 243 c 0
 364 146 474 63 621 63 c 0
 703 63 728 81 776 110 c 1
 784 22 l 1
 731 -4 702 -17 619 -17 c 0
 392 -17 259 120 259 243 c 0
EndSplineSet
Refer: 299 9675 S 1 0 0 1 0 0 3
EndChar

StartChar: ordfeminine
Encoding: 170 170 354
Width: 467
Flags: HW
TeX: 750 0
HStem: 250 76<24.77 440.863> 367 75<101.265 218.007> 477 46<135.983 256> 692 70<132.916 251.563>
VStem: 274 94<375 435 523 670.423>
LayerCount: 2
Fore
SplineSet
21 288 m 0
 21 306 33 322 54 325 c 0
 61 326 68 326 75 326 c 2
 386 326 l 2
 405 326 416 326 426 320 c 0
 438 313 445 301 445 288 c 0
 445 278 440 250 399 250 c 2
 66 250 l 2
 26 250 21 278 21 288 c 0
39 465 m 0
 39 500 87 516 272 523 c 1
 272 570 l 2
 272 628 261 692 215 692 c 1
 150 688 126 672 87 631 c 1
 80 715 l 1
 120 745 158 762 217 762 c 0
 300 762 368 691 368 577 c 2
 368 375 l 1
 274 375 l 1
 274 435 l 1
 239 390 183 367 134 367 c 0
 70 367 39 424 39 465 c 0
131 470 m 1
 133 462 134 442 186 442 c 0
 228 442 247 466 256 477 c 1
 231 477 155 476 131 470 c 1
EndSplineSet
EndChar

StartChar: copyleft
Encoding: 61713 61713 355
Width: 1091
Flags: HW
TeX: 750 222
HStem: -239 49<413.699 674.378> -17 80<357.518 589.175> 424 79<377.611 590.538> 718 49<415.546 673.458>
VStem: 58 49<126.501 402.056> 726 104<174.196 312.956> 982 49<125.029 403.52>
LayerCount: 2
Fore
SplineSet
306 22 m 1
 313 110 l 1
 361 81 387 63 469 63 c 0
 615 63 726 145 726 243 c 0
 726 335 622 424 472 424 c 0
 400 424 371 400 336 375 c 1
 318 479 l 1
 370 496 412 503 468 503 c 0
 681 503 830 380 830 243 c 0
 830 108 682 -17 470 -17 c 0
 387 -17 359 -4 306 22 c 1
EndSplineSet
Refer: 299 9675 S 1 0 0 1 0 0 3
EndChar

StartChar: logicalnot
Encoding: 172 172 356
Width: 642
Flags: HW
TeX: 430 0
HStem: 315 50<59.2336 534>
VStem: 534 49<100.167 315>
LayerCount: 2
Fore
SplineSet
59 340 m 0
 59 350 63 365 92 365 c 2
 551 365 l 2
 583 365 583 342 583 331 c 2
 583 136 l 2
 583 126 584 100 559 100 c 0
 536 100 534 120 534 132 c 2
 534 315 l 1
 88 315 l 1
 62 316 59 334 59 340 c 0
EndSplineSet
EndChar

StartChar: uni2117
Encoding: 8471 8471 357
Width: 1091
Flags: HW
TeX: 750 222
HStem: -239 49<413.699 674.378> -0 21G<318 421> 166 77<421 693.979> 407 79<421 697.846> 718 49<415.546 673.458>
VStem: 58 49<126.501 402.056> 318 103<0 166 243 407> 738 98<277.342 372.506> 982 49<125.029 403.52>
LayerCount: 2
Fore
SplineSet
318 -0 m 1
 318 486 l 1
 574 486 l 2
 638 486 706 479 768 436 c 0
 827 395 836 350 836 325 c 0
 836 264 768 166 582 166 c 2
 421 166 l 1
 421 -0 l 1
 318 -0 l 1
421 243 m 1
 572 243 l 2
 636 243 738 251 738 325 c 0
 738 341 731 382 664 399 c 0
 634 406 603 407 572 407 c 2
 421 407 l 1
 421 243 l 1
EndSplineSet
Refer: 299 9675 S 1 0 0 1 0 0 3
EndChar

StartChar: registered
Encoding: 174 174 358
Width: 1091
Flags: HW
TeX: 750 222
HStem: -239 49<413.699 674.378> -0 21G<318 421 743.829 866> 205 76<421 585> 407 79<421 709.692> 718 49<415.546 673.458>
VStem: 58 49<126.501 402.056> 318 103<0 205 281 407> 738 98<306.389 381.7> 982 49<125.029 403.52>
DStem2: 678 216 585 205 0.656524 -0.754305<0 217.421>
LayerCount: 2
Fore
SplineSet
318 -0 m 1
 318 486 l 1
 560 486 l 2
 615 486 678 483 743 453 c 0
 803 425 836 388 836 344 c 0
 836 279 756 233 678 216 c 1
 866 -0 l 1
 761 -0 l 1
 585 205 l 1
 421 205 l 1
 421 -0 l 1
 318 -0 l 1
421 281 m 1
 575 281 l 2
 622 281 738 281 738 344 c 0
 738 394 663 407 577 407 c 2
 421 407 l 1
 421 281 l 1
EndSplineSet
Refer: 299 9675 S 1 0 0 1 0 0 3
EndChar

StartChar: degree
Encoding: 176 176 360
Width: 350
Flags: HW
TeX: 694 0
HStem: 462 49<124.475 222.942> 645 49<125.726 222.489>
VStem: 58 49<528.747 626.509> 241 50<528.947 627.253>
LayerCount: 2
Fore
SplineSet
58 578 m 0
 58 638 105 694 174 694 c 0
 243 694 291 638 291 578 c 0
 291 518 244 462 175 462 c 0
 105 462 58 518 58 578 c 0
107 578 m 0
 107 543 134 511 174 511 c 0
 208 511 241 538 241 578 c 0
 241 613 214 645 174 645 c 0
 141 645 107 618 107 578 c 0
EndSplineSet
EndChar

StartChar: plusminus
Encoding: 177 177 361
Width: 642
Flags: HW
TeX: 523 -1
HStem: 89 49<58.185 296 345 581.641> 327 49<59.4917 296 345 581.653>
VStem: 296 49<138 327 376 612.82>
LayerCount: 2
Fore
SplineSet
58 113 m 0
 58 137 80 138 91 138 c 2
 296 138 l 1
 296 327 l 1
 93 327 l 2
 73 327 60 333 59 351 c 1
 61 369 73 376 93 376 c 2
 296 376 l 1
 296 578 l 2
 296 585 295 613 320 613 c 0
 343 613 345 590 345 577 c 2
 345 376 l 1
 548 376 l 2
 568 376 581 369 582 351 c 1
 580 333 568 327 548 327 c 2
 345 327 l 1
 345 138 l 1
 545 138 l 2
 561 138 581 136 582 114 c 1
 581 93 565 89 551 89 c 2
 92 89 l 2
 68 89 58 101 58 113 c 0
EndSplineSet
EndChar

StartChar: twosuperior
Encoding: 178 178 362
Width: 467
Flags: HW
TeX: 750 0
HStem: 347 84<134 413> 687 80<129.613 282.748>
VStem: 314 99<559.691 658.335>
LayerCount: 2
Fore
SplineSet
43 701 m 1
 100 749 147 767 217 767 c 0
 330 767 413 705 413 613 c 0
 413 533 319 524 248 492 c 0
 236 487 225 480 134 431 c 1
 413 431 l 1
 413 347 l 1
 52 347 l 1
 52 430 l 1
 197 514 143 485 239 526 c 0
 266 538 314 560 314 611 c 0
 314 669 249 687 204 687 c 0
 138 687 111 651 93 629 c 1
 43 701 l 1
EndSplineSet
EndChar

StartChar: threesuperior
Encoding: 179 179 363
Width: 467
Flags: HW
TeX: 750 0
HStem: 339 77<53.5464 304.342> 523 76<174 272.576> 691 76<129.583 286.727>
VStem: 317 105<430.508 508.305>
LayerCount: 2
Fore
SplineSet
43 357 m 1
 55 434 l 1
 106 425 159 416 229 416 c 0
 275 416 317 426 317 469 c 0
 317 487 307 501 293 510 c 0
 273 522 248 523 225 523 c 2
 174 523 l 1
 174 599 l 1
 199 602 289 600 293 654 c 1
 291 680 280 691 231 691 c 2
 230 691 l 2
 178 691 140 677 100 655 c 1
 58 725 l 1
 103 748 162 767 226 767 c 0
 317 767 393 720 393 654 c 0
 393 597 343 567 329 559 c 1
 355 550 422 523 422 469 c 0
 422 415 359 339 225 339 c 0
 170 339 115 343 43 357 c 1
EndSplineSet
EndChar

StartChar: uni00B5
Encoding: 181 181 365
Width: 517
Flags: HW
TeX: 470 166
HStem: -167 21G<64 160> -8 71<164.643 273.924> 0 21G<357 451> 452 20G<64 160 355 451>
VStem: 64 96<-167 -8 68.6878 472> 355 96<0 75 107.376 472>
LayerCount: 2
Fore
SplineSet
64 -167 m 1
 64 472 l 1
 160 472 l 1
 160 138 l 1
 161 77 157 63 236 63 c 0xdc
 327 63 351 130 354 156 c 0
 355 166 355 177 355 187 c 2
 355 472 l 1
 451 472 l 1
 451 0 l 1
 357 0 l 1xbc
 357 75 l 1
 332 46 278 -8 160 -8 c 1xdc
 160 -167 l 1
 64 -167 l 1
EndSplineSet
EndChar

StartChar: paragraph
Encoding: 182 182 366
Width: 642
Flags: HW
TeX: 694 166
HStem: -166 21G<373 388.5 488.5 512.5> 645 50<403 476 525 610.663>
VStem: 58 345<382.084 555.277> 353 50<-165.754 242.005> 476 49<-165.772 645>
LayerCount: 2
Fore
SplineSet
58 467 m 0xe8
 58 580 151 695 334 695 c 2
 577 695 l 2
 592 695 611 691 611 670 c 0
 611 666 609 653 596 648 c 0
 588 645 578 645 570 645 c 2
 525 645 l 1
 525 -130 l 2
 525 -140 525 -166 500 -166 c 0
 477 -166 476 -146 476 -132 c 2
 476 645 l 1
 403 645 l 1
 403 -129 l 2xd8
 403 -147 399 -166 378 -166 c 0
 368 -166 358 -159 355 -149 c 0
 352 -141 353 -132 353 -124 c 2
 353 240 l 1xd8
 113 258 58 386 58 467 c 0xe8
EndSplineSet
EndChar

StartChar: periodcentered
Encoding: 183 183 367
Width: 258
Flags: HW
TeX: 470 0
HStem: 203 94<81 175>
VStem: 81 94<203 297>
LayerCount: 2
Fore
SplineSet
81 203 m 1
 81 297 l 1
 175 297 l 1
 175 203 l 1
 81 203 l 1
EndSplineSet
EndChar

StartChar: uni203B
Encoding: 8251 8251 368
Width: 635
Flags: HW
TeX: 523 0
HStem: 0 130<253.321 380.934> 195 129<58.9647 187.194 447.965 575.037> 389 130<253.494 380.579>
VStem: 58 130<195.899 323.035> 252 130<1.06324 128.961 390.12 517.868> 447 129<195.902 323.035>
DStem2: 317 295 83 459 0.707107 -0.707107<-209.994 0 50.9117 373.589> 83 60 109 16 0.706307 0.707905<-36.2101 281.372 332.34 654.94>
CounterMasks: 1 e0
LayerCount: 2
Fore
SplineSet
58 227 m 2
 58 293 l 2
 58 313 69 324 89 324 c 2
 155 324 l 2
 174 324 188 320 188 292 c 2
 188 225 l 1
 187 211 187 195 155 195 c 2
 88 195 l 1
 78 196 58 195 58 227 c 2
59 24 m 0
 59 26 60 29 60 31 c 0
 65 43 75 51 83 60 c 2
 283 260 l 1
 83 459 l 2
 75 468 63 476 59 489 c 1
 59 495 l 1
 60 508 71 518 81 518 c 1
 88 517 l 1
 101 512 107 506 317 295 c 1
 318 295 l 1
 522 500 l 2
 530 507 540 518 552 518 c 0
 568 518 575 504 575 495 c 0
 575 480 562 470 551 459 c 2
 352 259 l 1
 372 240 392 219 551 60 c 0
 566 44 575 38 575 23 c 0
 575 12 566 1 552 1 c 0
 538 1 526 16 517 25 c 0
 358 184 337 204 318 224 c 1
 317 224 l 1
 109 16 l 2
 95 2 91 2 86 1 c 1
 66 2 59 11 59 24 c 0
252 34 m 0
 252 54 252 74 252 94 c 0
 252 130 271 129 285 130 c 1
 349 130 l 2
 370 130 382 124 382 95 c 2
 382 34 l 2
 382 19 379 0 350 0 c 2
 281 0 l 1
 257 1 252 17 252 34 c 0
252 423 m 2
 252 482 l 2
 252 519 270 518 286 519 c 1
 348 519 l 2
 375 519 382 506 382 484 c 2
 382 425 l 2
 382 409 379 389 349 389 c 2
 283 389 l 1
 272 390 252 390 252 423 c 2
446 227 m 0
 446 231 447 234 447 237 c 2
 447 293 l 2
 447 313 458 324 478 324 c 2
 543 324 l 2
 563 324 576 318 576 291 c 2
 576 226 l 1
 575 211 575 195 543 195 c 2
 476 195 l 1
 466 196 446 195 446 227 c 0
EndSplineSet
EndChar

StartChar: onesuperior
Encoding: 185 185 369
Width: 467
Flags: HW
TeX: 750 0
HStem: 347 76<87 196 293 393> 616 76<72 189.605>
VStem: 196 97<423 639>
LayerCount: 2
Fore
SplineSet
72 616 m 1
 72 692 l 1
 191 693 242 740 269 767 c 1
 293 767 l 1
 293 423 l 1
 393 423 l 1
 393 347 l 1
 87 347 l 1
 87 423 l 1
 196 423 l 1
 196 639 l 1
 173 630 134 616 72 616 c 1
EndSplineSet
EndChar

StartChar: ordmasculine
Encoding: 186 186 370
Width: 467
Flags: HW
TeX: 750 0
HStem: 250 76<24.77 441.142> 367 78<159.474 305.74> 687 75<160.299 304.985>
VStem: 29 96<479.979 650.007> 340 97<479.182 649.738>
LayerCount: 2
Fore
SplineSet
21 288 m 0
 21 306 33 322 54 325 c 0
 61 326 68 326 75 326 c 2
 386 326 l 2
 405 326 416 326 426 320 c 0
 438 313 445 301 445 288 c 0
 445 278 441 250 399 250 c 2
 66 250 l 2
 26 250 21 278 21 288 c 0
29 561 m 0
 29 668 117 762 233 762 c 0
 345 762 437 672 437 561 c 0
 437 458 350 367 233 367 c 0
 124 367 29 450 29 561 c 0
125 569 m 0
 125 516 134 445 232 445 c 0
 324 445 340 502 340 568 c 0
 340 614 334 687 233 687 c 0
 133 687 125 620 125 569 c 0
EndSplineSet
EndChar

StartChar: radical
Encoding: 8730 8730 371
Width: 496
Flags: HW
TeX: 750 173
HStem: 695 49<429 549.707>
DStem2: 217 123 217 -58 0.271005 0.962578<0 608.048>
LayerCount: 2
Fore
SplineSet
22 75 m 1
 22 76 l 1
 175 329 l 1
 217 123 l 1
 383 715 l 1
 387 726 l 1
 392 734 393 744 420 744 c 2
 518 744 l 2
 546 744 550 728 550 718 c 0
 550 709 543 698 531 695 c 1
 429 695 l 1
 217 -58 l 2
 211 -78 206 -86 182 -86 c 2
 166 -86 l 1
 126 106 l 1
 76 23 l 1
 22 75 l 1
EndSplineSet
EndChar

StartChar: onequarter
Encoding: 188 188 372
Width: 467
Flags: HW
TeX: 750 166
HStem: -167 21G<244 338> -105 80<131 244 338 437> 267 49<5.84913 460.861> 365 76<87 196 294 393> 653 75<72 194.874>
VStem: 196 98<441 663> 248 90<-167 -105 -25 146>
LayerCount: 2
Fore
SplineSet
5 293 m 1
 10 316 24 316 39 316 c 2
 426 316 l 2
 441 316 461 315 461 291 c 0
 461 286 458 267 428 267 c 2
 37 267 l 2
 19 267 8 271 5 293 c 1
29 -25 m 1
 219 226 l 1
 338 226 l 1xfa
 338 -25 l 1
 437 -25 l 1
 437 -105 l 1
 338 -105 l 1
 338 -167 l 1
 244 -167 l 1
 244 -105 l 1
 29 -105 l 1
 29 -25 l 1
72 653 m 1
 72 728 l 1
 249 730 244 767 283 767 c 2
 294 767 l 1
 294 441 l 1
 393 441 l 1
 393 365 l 1
 87 365 l 1
 87 441 l 1
 196 441 l 1
 196 663 l 1xfc
 172 658 147 654 72 653 c 1
131 -25 m 1
 248 -25 l 1xfa
 248 146 l 1
 235 111 187 51 131 -25 c 1
EndSplineSet
EndChar

StartChar: onehalf
Encoding: 189 189 373
Width: 467
Flags: HW
TeX: 750 166
HStem: -167 80<140 414> 160 75<123.587 292.475> 267 49<5.84913 460.861> 365 76<87 196 294 393> 653 75<72 194.874>
VStem: 196 98<441 663> 314 100<44.1587 138.469>
LayerCount: 2
Fore
SplineSet
5 293 m 1
 10 316 24 316 39 316 c 2
 426 316 l 2
 441 316 461 315 461 291 c 0
 461 286 458 267 428 267 c 2
 37 267 l 2
 19 267 8 271 5 293 c 1
43 186 m 1
 98 218 145 235 217 235 c 0
 335 235 413 180 413 98 c 0
 413 20 323 9 255 -23 c 0
 243 -29 231 -35 140 -87 c 1
 414 -87 l 1
 414 -167 l 1
 52 -167 l 1
 52 -91 l 1
 161 -26 l 1
 220 6 314 24 314 96 c 0
 314 151 246 160 205 160 c 0
 147 160 120 138 93 115 c 1
 43 186 l 1
72 653 m 1
 72 728 l 1
 249 730 244 767 283 767 c 2
 294 767 l 1
 294 441 l 1
 393 441 l 1
 393 365 l 1
 87 365 l 1
 87 441 l 1
 196 441 l 1
 196 663 l 1
 172 658 147 654 72 653 c 1
EndSplineSet
EndChar

StartChar: threequarters
Encoding: 190 190 374
Width: 467
Flags: HW
TeX: 750 166
HStem: -167 21G<244 338> -105 80<131 244 338 437> 267 49<5.84913 460.861> 349 77<59.0511 288.153> 528 75<174 275.266> 666 21G<88 124> 691 76<96.9421 289.359>
VStem: 248 90<-167 -105 -25 146> 317 105<439.178 512.953>
LayerCount: 2
Fore
SplineSet
5 293 m 1
 10 316 24 316 39 316 c 2
 426 316 l 2
 441 316 461 315 461 291 c 0
 461 286 458 267 428 267 c 2
 37 267 l 2
 19 267 8 271 5 293 c 1
29 -25 m 1
 219 226 l 1
 338 226 l 1xff
 338 -25 l 1
 437 -25 l 1
 437 -105 l 1
 338 -105 l 1
 338 -167 l 1
 244 -167 l 1
 244 -105 l 1
 29 -105 l 1
 29 -25 l 1
43 356 m 1
 55 432 l 1
 142 426 192 426 215 426 c 2
 225 426 l 2
 249 426 271 426 289 435 c 0
 305 443 317 459 317 477 c 0
 317 497 302 509 293 515 c 0
 273 527 249 528 226 528 c 2
 174 528 l 1
 174 603 l 1
 249 609 287 614 293 656 c 1
 289 686 269 691 229 691 c 0
 183 691 148 684 100 666 c 1
 58 736 l 1
 105 753 157 767 224 767 c 0
 316 767 393 723 393 656 c 0
 393 600 344 571 331 563 c 1
 394 541 422 510 422 475 c 0xfe80
 422 425 362 349 221 349 c 0
 185 349 114 351 43 356 c 1
131 -25 m 1
 248 -25 l 1xff
 248 146 l 1
 235 111 187 51 131 -25 c 1
EndSplineSet
EndChar

StartChar: Euro.old
Encoding: 62028 62028 375
Width: 817
Flags: HW
TeX: 694 0
HStem: -17 80<433.993 675.471> 235 75<72 124 254 586> 385 74<72 124 254 642> 632 79<434.361 667.843>
LayerCount: 2
Fore
SplineSet
43 235 m 1
 72 310 l 1
 124 310 l 1
 122 347 l 1
 124 385 l 1
 43 385 l 1
 72 459 l 1
 144 459 l 1
 185 571 327 711 568 711 c 0
 644 711 695 700 758 677 c 1
 720 579 l 1
 674 611 638 632 564 632 c 0
 504 632 340 617 254 459 c 1
 670 459 l 1
 642 385 l 1
 230 385 l 1
 227 347 l 1
 230 310 l 1
 614 310 l 1
 586 235 l 1
 254 235 l 1
 311 127 428 63 565 63 c 0
 660 63 685 87 734 126 c 1
 734 39 l 1
 672 -6 640 -17 564 -17 c 0
 337 -17 188 115 144 235 c 1
 43 235 l 1
EndSplineSet
EndChar

StartChar: multiply
Encoding: 215 215 376
Width: 642
Flags: HW
TeX: 523 -1
VStem: 286 69<242.473 286.259>
LayerCount: 2
Fore
SplineSet
129 95 m 1
 131 113 123 101 286 264 c 1
 286 265 l 1
 126 424 133 413 129 430 c 1
 131 454 148 456 153 456 c 2
 154 456 l 2
 166 456 167 453 321 299 c 1
 483 461 472 455 491 456 c 1
 503 455 512 444 512 435 c 0
 511 416 518 428 355 265 c 1
 355 264 l 1
 516 103 508 114 512 98 c 1
 511 74 494 72 489 72 c 2
 487 72 l 2
 475 72 474 75 320 229 c 1
 157 66 169 73 151 72 c 1
 139 73 129 85 129 95 c 1
EndSplineSet
EndChar

StartChar: divide
Encoding: 247 247 377
Width: 642
Flags: HW
TeX: 523 -1
HStem: -34 166<238.917 401.82> 240 49<63.4212 581.693> 396 166<238.975 401.971>
VStem: 238 165<-32.9518 131.109 396.975 561.03>
LayerCount: 2
Fore
SplineSet
59 262 m 0
 59 268 61 274 63 278 c 1
 72 288 80 289 94 289 c 2
 552 289 l 2
 579 289 582 270 582 263 c 0
 582 257 579 240 550 240 c 2
 91 240 l 2
 66 240 59 251 59 262 c 0
238 -1 m 2
 238 96 l 1
 239 112 236 132 270 132 c 2
 369 132 l 2
 386 132 403 130 403 99 c 2
 403 3 l 1
 402 -14 404 -34 371 -34 c 2
 272 -34 l 2
 243 -34 238 -22 238 -1 c 2
238 429 m 2
 238 527 l 1
 239 541 236 562 270 562 c 2
 369 562 l 2
 397 562 403 551 403 530 c 2
 403 433 l 1
 402 418 405 396 372 396 c 2
 272 396 l 2
 245 396 238 407 238 429 c 2
EndSplineSet
EndChar

StartChar: cyrflex
Encoding: 63189 63189 379
Width: 525
Flags: HW
TeX: 666 0
HStem: 593 82<171.746 351.982>
VStem: 78 75<537 574.119> 370 75<537 573.934>
LayerCount: 2
Fore
SplineSet
78 537 m 1
 82 633 179 675 262 675 c 0
 346 675 441 633 445 537 c 1
 370 537 l 1
 368 558 356 593 262 593 c 0
 174 593 156 564 153 537 c 1
 78 537 l 1
EndSplineSet
EndChar

StartChar: cyrbreve
Encoding: 63188 63188 381
Width: 525
Flags: HW
TeX: 666 0
HStem: 530 83<169.003 352.296> 647 20G<78 155 369 445>
VStem: 78 75<633.264 667> 370 75<633.264 667>
LayerCount: 2
Fore
SplineSet
78 667 m 1
 153 667 l 1
 157 628 193 613 264 613 c 0
 356 613 368 646 370 667 c 1
 445 667 l 1
 441 570 344 530 262 530 c 0
 182 530 81 570 78 667 c 1
EndSplineSet
EndChar

StartChar: emdash.cyr
Encoding: 61715 61715 382
Width: 846
Flags: HW
TeX: 472 0
ItalicCorrection: 29
HStem: 254 76<14 830>
LayerCount: 2
Fore
SplineSet
14 254 m 1
 14 330 l 1
 830 330 l 1
 830 254 l 1
 14 254 l 1
EndSplineSet
EndChar

StartChar: afii10050
Encoding: 1168 1168 384
Width: 581
Flags: HW
TeX: 861 0
HStem: -0 21G<80 185> 615 80<185 453>
VStem: 80 105<0 615> 453 83<695 861>
LayerCount: 2
Fore
SplineSet
80 -0 m 1
 80 695 l 1
 453 695 l 1
 453 861 l 1
 536 861 l 1
 536 615 l 1
 185 615 l 1
 185 -0 l 1
 80 -0 l 1
EndSplineSet
EndChar

StartChar: uni0492
Encoding: 1170 1170 385
Width: 567
Flags: HW
TeX: 694 0
HStem: 0 21G<80 185> 324 75<19 80 185 306> 615 80<185 522>
VStem: 80 105<0 324 399 615>
LayerCount: 2
Fore
SplineSet
19 324 m 1
 19 399 l 1
 80 399 l 1
 80 695 l 1
 522 695 l 1
 522 615 l 1
 185 615 l 1
 185 399 l 1
 306 399 l 1
 306 324 l 1
 185 324 l 1
 185 0 l 1
 80 0 l 1
 80 324 l 1
 19 324 l 1
EndSplineSet
EndChar

StartChar: afii10051
Encoding: 1026 1026 386
Width: 871
Flags: HW
TeX: 694 0
HStem: -17 76<509.036 693.028> 0 21G<309 414> 414 75<517.632 687.711> 615 80<37 309 414 686>
VStem: 309 105<0 352.289 386 615> 736 96<110.575 374.204>
LayerCount: 2
Fore
SplineSet
37 615 m 1
 37 695 l 1
 686 695 l 1
 686 615 l 1
 414 615 l 1
 414 386 l 1
 436 418 500 489 629 489 c 0
 820 489 832 385 832 312 c 2
 832 230 l 2
 832 199 832 183 825 153 c 0
 808 81 747 -17 618 -17 c 0xbc
 566 -17 538 -13 487 0 c 1x7c
 509 85 l 1
 530 77 559 59 619 59 c 0
 657 59 682 69 700 87 c 1
 718 107 736 125 736 214 c 2
 736 308 l 2
 736 371 708 414 559 414 c 0xbc
 499 414 414 384 414 265 c 2
 414 0 l 1
 309 0 l 1x7c
 309 615 l 1
 37 615 l 1
EndSplineSet
EndChar

StartChar: afii10060
Encoding: 1035 1035 387
Width: 802
Flags: HW
TeX: 694 0
HStem: 0 21G<268 373 612 708> 405 75<449.974 580.941> 615 80<38 268 373 662>
VStem: 268 105<0 354.451 390 615> 612 96<0 374.14>
LayerCount: 2
Fore
SplineSet
38 615 m 1
 38 695 l 1
 662 695 l 1
 662 615 l 1
 373 615 l 1
 373 390 l 1
 393 417 442 480 545 480 c 0
 705 480 708 373 708 311 c 2
 708 0 l 1
 612 0 l 1
 612 313 l 2
 612 348 609 405 486 405 c 0
 441 405 373 379 373 267 c 2
 373 0 l 1
 268 0 l 1
 268 615 l 1
 38 615 l 1
EndSplineSet
EndChar

StartChar: uni04BA
Encoding: 1210 1210 388
Width: 704
Flags: HW
TeX: 694 0
HStem: 0 21G<80 185 517 622> 476 75<276.19 456.09> 675 20G<80 185>
VStem: 80 105<0 382.527 479 695> 517 105<0 419.826>
LayerCount: 2
Fore
SplineSet
80 0 m 1
 80 695 l 1
 185 695 l 1
 185 479 l 1
 218 502 285 551 405 551 c 0
 629 551 622 395 622 332 c 2
 622 0 l 1
 517 0 l 1
 517 340 l 2
 517 421 479 476 347 476 c 0
 218 476 190 347 186 311 c 0
 185 297 185 284 185 270 c 2
 185 0 l 1
 80 0 l 1
EndSplineSet
EndChar

StartChar: uni0496
Encoding: 1174 1174 389
Width: 1142
Flags: HW
TeX: 694 166
HStem: -167 21G<1020 1103> -0 21G<43 169.504 520 620> 675 20G<58 196.544 520 620 943.456 1083>
VStem: 520 100<0 222 344 695> 1020 83<-167 0>
DStem2: 43 -0 156 -0 0.561067 0.827771<63.4005 486.921> 177 695 58 695 0.69874 -0.715376<0 302.255 397.017 490.765> 620 344 620 222 0.699512 0.714621<0 93.1409 188.602 490.765> 813 419 746 351 0.561213 -0.827671<18.6804 409.66>
LayerCount: 2
Fore
SplineSet
43 -0 m 1
 327 419 l 1
 58 695 l 1
 177 695 l 1
 520 344 l 1
 520 695 l 1
 620 695 l 1
 620 344 l 1
 963 695 l 1
 1083 695 l 1
 813 419 l 1
 1043 80 l 1
 1103 80 l 1
 1103 -167 l 1
 1020 -167 l 1
 1020 -0 l 1
 984 -0 l 1
 746 351 l 1
 620 222 l 1
 620 -0 l 1
 520 -0 l 1
 520 222 l 1
 393 351 l 1
 156 -0 l 1
 43 -0 l 1
EndSplineSet
EndChar

StartChar: uni0498
Encoding: 1176 1176 390
Width: 642
Flags: HW
TeX: 694 166
HStem: -38 20G<270.602 356> -17 80<190.189 415.138> 324 75<204 388.891> 632 79<203.716 424>
VStem: 472 96<460.431 587.099> 499 98<131.481 253.738>
LayerCount: 2
Fore
SplineSet
52 82 m 1
 96 158 l 1
 154 102 189 63 314 63 c 0
 430 63 499 129 499 193 c 0xf4
 499 237 466 280 414 304 c 1
 381 317 366 324 294 324 c 2
 204 324 l 1
 204 399 l 1
 273 399 l 2
 302 399 318 398 347 404 c 0
 400 415 472 451 472 518 c 0
 472 609 402 632 319 632 c 0
 217 632 167 597 112 541 c 1
 64 625 l 1
 148 689 215 711 321 711 c 0
 436 711 568 685 568 519 c 0xf8
 568 418 449 379 391 363 c 1
 486 347 597 289 597 191 c 0
 597 94 496 -17 313 -17 c 0
 184 -17 134 12 52 82 c 1
202 -184 m 1xf0
 280 -18 l 1
 356 -18 l 1
 288 -184 l 1
 202 -184 l 1xf0
EndSplineSet
EndChar

StartChar: afii10058
Encoding: 1033 1033 391
Width: 1087
Flags: HW
TeX: 694 0
HStem: 0 79<20 129.856 645 857.095> 321 80<646 859.41> 615 80<298 541>
VStem: 215 83<392.51 615> 541 104<80 321 401 615> 930 98<140.695 260.711>
LayerCount: 2
Fore
SplineSet
20 -0 m 1
 20 79 l 1
 55 79 l 1
 98 80 171 73 198 280 c 0
 214 400 215 520 215 640 c 2
 215 695 l 1
 645 695 l 1
 645 401 l 1
 784 401 l 2
 962 401 1028 280 1028 200 c 0
 1028 98 939 14 826 2 c 0
 811 0 796 0 781 0 c 2
 541 0 l 1
 541 615 l 1
 298 615 l 1
 295 406 299 95 155 17 c 0
 132 5 110 0 78 -0 c 0
 59 0 39 0 20 -0 c 1
645 80 m 1
 739 80 l 2
 746 80 752 79 759 79 c 0
 884 79 930 152 930 201 c 0
 930 250 883 321 758 321 c 2
 646 321 l 1
 645 287 l 1
 645 80 l 1
EndSplineSet
EndChar

StartChar: uni049A
Encoding: 1178 1178 393
Width: 704
Flags: HW
TeX: 694 166
HStem: -167 21G<583 666> 0 21G<83 183> 675 20G<83 183 506.456 645>
VStem: 83 100<0 222 344 695> 583 83<-167 0>
DStem2: 183 344 183 222 0.69874 0.715376<0 93.0488 188.51 490.765> 376 419 309 351 0.561213 -0.827671<18.6804 409.66>
LayerCount: 2
Fore
SplineSet
83 0 m 1
 83 695 l 1
 183 695 l 1
 183 344 l 1
 526 695 l 1
 645 695 l 1
 376 419 l 1
 606 80 l 1
 666 80 l 1
 666 -167 l 1
 583 -167 l 1
 583 0 l 1
 547 0 l 1
 309 351 l 1
 183 222 l 1
 183 0 l 1
 83 0 l 1
EndSplineSet
EndChar

StartChar: uni04A0
Encoding: 1184 1184 394
Width: 933
Flags: HW
TeX: 694 0
HStem: -0 21G<312 411 762.382 888> 615 80<37 312>
VStem: 312 99<0 222 344 615>
DStem2: 411 344 411 222 0.699512 0.714621<0 93.1409 188.602 491.464> 604 419 537 351 0.561067 -0.827771<18.6969 443.339>
LayerCount: 2
Fore
SplineSet
37 615 m 1
 37 695 l 1
 411 695 l 1
 411 344 l 1
 755 695 l 1
 874 695 l 1
 604 419 l 1
 888 -0 l 1
 776 -0 l 1
 537 351 l 1
 411 222 l 1
 411 -0 l 1
 312 -0 l 1
 312 615 l 1
 37 615 l 1
EndSplineSet
EndChar

StartChar: uni049C
Encoding: 1180 1180 395
Width: 808
Flags: HW
TeX: 694 0
HStem: 0 21G<83 183 632.091 764> 385 76<183 257 333 360> 675 20G<83 183 602.462 749>
VStem: 83 100<0 385 461 695> 257 76<243 385 461 590>
DStem2: 452 419 360 385 0.59724 -0.802063<0 452.526> 372 461 452 419 0.73253 0.680735<30.0115 343.889>
LayerCount: 2
Fore
SplineSet
83 0 m 1
 83 695 l 1
 183 695 l 1
 183 461 l 1
 257 461 l 1
 257 590 l 1
 333 590 l 1
 333 461 l 1
 372 461 l 1
 624 695 l 1
 749 695 l 1
 452 419 l 1
 764 0 l 1
 647 0 l 1
 360 385 l 1
 333 385 l 1
 333 243 l 1
 257 243 l 1
 257 385 l 1
 183 385 l 1
 183 0 l 1
 83 0 l 1
EndSplineSet
EndChar

StartChar: uni04A2
Encoding: 1186 1186 397
Width: 727
Flags: HW
TeX: 694 166
HStem: -167 21G<605 688> 0 21G<80 185> 321 80<185 517> 675 20G<80 185 517 622>
VStem: 80 105<0 321 401 695> 517 105<77 321 401 695> 605 83<-167 0>
LayerCount: 2
Fore
SplineSet
80 0 m 1xfc
 80 695 l 1
 185 695 l 1
 185 401 l 1
 517 401 l 1
 517 695 l 1
 622 695 l 1
 622 77 l 1xfc
 688 77 l 1
 688 -167 l 1
 605 -167 l 1
 605 0 l 1xfa
 517 0 l 1
 517 321 l 1
 185 321 l 1
 185 0 l 1
 80 0 l 1xfc
EndSplineSet
EndChar

StartChar: uni04A4
Encoding: 1188 1188 398
Width: 933
Flags: HW
TeX: 694 0
HStem: 0 21G<80 185 517 622> 321 80<185 517> 615 80<622 894>
VStem: 80 105<0 321 401 695> 517 105<0 321 401 615>
LayerCount: 2
Fore
SplineSet
80 0 m 1
 80 695 l 1
 185 695 l 1
 185 401 l 1
 517 401 l 1
 517 695 l 1
 894 695 l 1
 894 615 l 1
 622 615 l 1
 622 0 l 1
 517 0 l 1
 517 321 l 1
 185 321 l 1
 185 0 l 1
 80 0 l 1
EndSplineSet
EndChar

StartChar: uni04E8
Encoding: 1256 1256 400
Width: 783
Flags: HW
TeX: 694 0
HStem: -17 79<303.01 479.012> 321 80<165 618> 634 77<299.442 482.027>
VStem: 58 107<225.772 321 401 470.156> 618 106<220.749 321 401 470.156>
AnchorPoint: "above" 391 711 basechar 0
LayerCount: 2
Fore
SplineSet
58 345 m 0
 58 553 212 711 391 711 c 0
 567 711 724 555 724 346 c 0
 724 137 567 -17 391 -17 c 0
 214 -17 58 137 58 345 c 0
164 401 m 1
 618 401 l 1
 591 607 447 634 391 634 c 0
 335 634 191 607 164 401 c 1
165 321 m 1
 165 237 228 62 391 62 c 0
 496 62 607 150 618 321 c 1
 165 321 l 1
EndSplineSet
EndChar

StartChar: uni04AA
Encoding: 1194 1194 401
Width: 671
Flags: HW
TeX: 694 166
HStem: -38 20G<360.602 445> -17 80<319.421 537.501> 632 79<321.734 522.22>
VStem: 64 105<231.767 463.92>
LayerCount: 2
Fore
SplineSet
64 348 m 0
 64 550 219 711 409 711 c 0
 488 711 541 700 606 677 c 1
 588 573 l 1
 542 603 499 632 412 632 c 0
 272 632 169 501 169 347 c 0
 169 199 266 63 413 63 c 0
 520 63 557 92 610 126 c 1
 618 39 l 1
 534 -8 495 -17 413 -17 c 0
 204 -17 64 159 64 348 c 0
292 -184 m 1
 370 -18 l 1
 445 -18 l 1
 378 -184 l 1
 292 -184 l 1
EndSplineSet
EndChar

StartChar: afii10062
Encoding: 1038 1038 402
Width: 675
Flags: HW
TeX: 888 0
ItalicCorrection: 14
HStem: 0 80<162 309.964> 675 20<14 136.519 550.911 659> 753 82<249.662 432.339>
VStem: 159 75<855.307 889> 450 76<855.307 889>
DStem2: 126 695 14 695 0.468448 -0.883491<0 539.74> 432 381 474 241 0.377362 0.926066<-178.271 338.71>
LayerCount: 2
Fore
SplineSet
159 889 m 1
 234 889 l 1
 238 849 274 835 345 835 c 0
 429 835 447 863 450 889 c 1
 526 889 l 1
 522 792 424 753 342 753 c 0
 262 753 162 792 159 889 c 1
EndSplineSet
Refer: 463 1059 S 1 0 0 1 0 0 3
EndChar

StartChar: uni04B0
Encoding: 1200 1200 404
Width: 675
Flags: HW
TeX: 694 0
ItalicCorrection: 26
HStem: 0 21G<285 387> 202 76<147 285 388 526> 675 20G<2 139.52 545.542 671>
VStem: 285 102<0 202>
DStem2: 126 695 2 695 0.56155 -0.827443<0 387.465> 343 374 388 278 0.56155 0.827443<0 386.904>
AnchorPoint: "above" 336 711 basechar 0
LayerCount: 2
Fore
SplineSet
2 695 m 1
 126 695 l 1
 343 374 l 1
 559 695 l 1
 671 695 l 1
 388 278 l 1
 526 278 l 1
 526 202 l 1
 387 202 l 1
 387 0 l 1
 285 0 l 1
 285 202 l 1
 147 202 l 1
 147 278 l 1
 285 278 l 1
 2 695 l 1
EndSplineSet
EndChar

StartChar: uni04B2
Encoding: 1202 1202 405
Width: 675
Flags: HW
TeX: 694 166
HStem: -167 21G<576 659> 0 21G<14 145.493> 675 20G<29 167.486 484.091 615>
VStem: 576 83<-167 0>
DStem2: 14 0 132 0 0.57148 0.820616<67.4346 419.636 550.935 846.924> 153 695 29 695 0.587465 -0.80925<0 0 429.521 757.492>
LayerCount: 2
Fore
SplineSet
14 0 m 1
 276 367 l 1
 276 368 l 1
 29 695 l 1
 153 695 l 1
 329 452 l 1
 498 695 l 1
 615 695 l 1
 382 368 l 1
 382 367 l 1
 598 82 l 1
 659 82 l 1
 659 -167 l 1
 576 -167 l 1
 576 0 l 1
 535 0 l 1
 329 292 l 1
 132 0 l 1
 14 0 l 1
EndSplineSet
EndChar

StartChar: afii10145
Encoding: 1039 1039 406
Width: 704
Flags: HW
TeX: 694 166
HStem: -167 21G<305 396> 0 82<185 305 396 517> 675 20G<80 185 517 622>
VStem: 80 105<82 695> 305 91<-167 0> 517 105<82 695>
LayerCount: 2
Fore
SplineSet
80 0 m 1
 80 695 l 1
 185 695 l 1
 185 82 l 1
 517 82 l 1
 517 695 l 1
 622 695 l 1
 622 0 l 1
 396 0 l 1
 396 -167 l 1
 305 -167 l 1
 305 0 l 1
 80 0 l 1
EndSplineSet
EndChar

StartChar: uni04B8
Encoding: 1208 1208 407
Width: 704
Flags: HW
TeX: 694 0
HStem: 0 21G<517 622> 295 77<211.332 313 389 517> 675 20G<80 185 517 622>
VStem: 80 105<397.036 695> 313 76<160 295 372 507> 517 105<0 295 372 695>
CounterMasks: 1 1c
LayerCount: 2
Fore
SplineSet
80 459 m 2
 80 695 l 1
 185 695 l 1
 185 460 l 2
 185 457 184 454 184 451 c 0
 184 397 225 372 290 372 c 2
 313 372 l 1
 313 507 l 1
 389 507 l 1
 389 372 l 1
 517 372 l 1
 517 695 l 1
 622 695 l 1
 622 0 l 1
 517 0 l 1
 517 295 l 1
 389 295 l 1
 389 160 l 1
 313 160 l 1
 313 295 l 1
 305 295 296 294 288 294 c 2
 284 294 l 2
 259 294 204 296 136 350 c 0
 79 395 80 425 80 459 c 2
EndSplineSet
EndChar

StartChar: uni04B6
Encoding: 1206 1206 408
Width: 727
Flags: HW
TeX: 694 166
HStem: -167 21G<601 684> 295 77<212.057 517> 675 20G<80 185 517 622>
VStem: 80 105<398.415 695> 517 105<77 295 372 695> 601 83<-167 0>
LayerCount: 2
Fore
SplineSet
80 448 m 2xf8
 80 695 l 1
 185 695 l 1
 185 460 l 2
 185 438 184 424 198 407 c 0
 219 381 250 372 288 372 c 2
 517 372 l 1
 517 695 l 1
 622 695 l 1
 622 77 l 1xf8
 684 77 l 1
 684 -167 l 1
 601 -167 l 1
 601 0 l 1xf4
 517 0 l 1
 517 295 l 1
 316 295 l 2
 308 295 300 294 292 294 c 2
 284 294 l 2
 257 294 204 297 139 348 c 0
 90 386 80 415 80 448 c 2xf8
EndSplineSet
EndChar

StartChar: afii10053
Encoding: 1028 1028 409
Width: 671
Flags: HW
TeX: 694 0
HStem: -17 80<318.619 538.764> 307 80<171 524> 632 79<317.194 521.837>
VStem: 64 107<227.064 307 387 465.281>
AnchorPoint: "above" 409 711 basechar 0
LayerCount: 2
Fore
SplineSet
64 347 m 0
 64 552 221 711 409 711 c 0
 488 711 541 700 606 677 c 1
 588 573 l 1
 542 604 497 632 411 632 c 0
 276 632 188 515 171 387 c 1
 525 387 l 1
 525 308 l 1
 524 307 l 1
 171 307 l 1
 189 172 280 63 414 63 c 0
 520 63 554 90 610 126 c 1
 618 39 l 1
 560 6 518 -17 413 -17 c 0
 204 -17 64 159 64 347 c 0
EndSplineSet
EndChar

StartChar: uni04D8
Encoding: 1240 1240 410
Width: 708
Flags: HW
TeX: 694 0
HStem: -17 78<244.426 432.078> 261 72<129 555> 632 79<181.661 419.875>
VStem: 563 101<333.836 462.215>
AnchorPoint: "above" 348 711 basechar 0
LayerCount: 2
Fore
SplineSet
29 333 m 1
 563 333 l 1
 563 339 l 2
 563 501 470 632 331 632 c 0
 214 632 187 615 105 573 c 1
 87 677 l 1
 200 709 218 711 348 711 c 0
 522 711 664 548 664 344 c 0
 664 126 535 -17 338 -17 c 0
 201 -17 29 53 29 333 c 1
129 261 m 1
 139 160 210 61 338 61 c 0
 463 61 535 153 555 261 c 1
 129 261 l 1
EndSplineSet
EndChar

StartChar: afii10059
Encoding: 1034 1034 411
Width: 1065
Flags: HW
TeX: 694 0
HStem: 0 80<622 837.959> 321 80<185 517 622 836.41> 675 20G<80 185 517 622>
VStem: 80 105<0 321 401 695> 517 105<80 321 401 695> 907 98<140.744 258.376>
LayerCount: 2
Fore
SplineSet
80 0 m 1
 80 695 l 1
 185 695 l 1
 185 401 l 1
 517 401 l 1
 517 695 l 1
 622 695 l 1
 622 401 l 1
 761 401 l 2
 939 401 1005 280 1005 200 c 0
 1005 98 916 15 803 2 c 0
 788 0 772 0 757 0 c 2
 517 0 l 1
 517 321 l 1
 185 321 l 1
 185 0 l 1
 80 0 l 1
622 80 m 1
 715 80 l 2
 722 80 728 79 735 79 c 0
 861 79 907 152 907 201 c 0
 907 249 860 321 735 321 c 2
 622 321 l 1
 622 80 l 1
EndSplineSet
EndChar

StartChar: afii10098
Encoding: 1169 1169 413
Width: 417
Flags: HW
TeX: 611 0
ItalicCorrection: 14
HStem: 0 21G<64 160> 397 139<310 389> 397 75<160 310>
VStem: 64 96<0 397> 310 79<472 536>
LayerCount: 2
Fore
SplineSet
64 0 m 1xb8
 64 472 l 1
 310 472 l 1xb8
 310 536 l 1
 389 536 l 1
 389 397 l 1xd8
 160 397 l 1
 160 0 l 1
 64 0 l 1xb8
EndSplineSet
EndChar

StartChar: uni0493
Encoding: 1171 1171 414
Width: 417
Flags: HW
TeX: 472 0
ItalicCorrection: 14
HStem: 0 21G<64 160> 230 59<19 64 160 265> 399 73<160 389>
VStem: 64 96<0 230 289 399>
LayerCount: 2
Fore
SplineSet
19 230 m 1
 19 289 l 1
 64 289 l 1
 64 472 l 1
 389 472 l 1
 389 399 l 1
 160 399 l 1
 160 289 l 1
 265 289 l 1
 265 230 l 1
 160 230 l 1
 160 0 l 1
 64 0 l 1
 64 230 l 1
 19 230 l 1
EndSplineSet
EndChar

StartChar: afii10099
Encoding: 1106 1106 415
Width: 487
Flags: HW
TeX: 694 166
HStem: -167 59<160 232.919> 0 21G<64 160> 405 75<229.124 339.446> 524 75<19 64 158 461> 675 20G<64 158>
VStem: 64 94<0 355.781 391 524 599 695> 365 96<100.406 380.203>
LayerCount: 2
Fore
SplineSet
19 524 m 1
 19 599 l 1
 64 599 l 1
 64 695 l 1
 158 695 l 1
 158 599 l 1
 461 599 l 1
 461 524 l 1
 158 524 l 1
 158 391 l 1
 172 414 220 480 313 480 c 0
 456 480 461 378 461 313 c 2
 461 262 l 2
 461 11 328 -164 160 -167 c 1
 160 -108 l 1
 292 -102 364 37 365 239 c 1
 365 307 l 1
 364 343 368 405 261 405 c 0
 211 405 160 368 160 270 c 2
 160 0 l 1
 64 0 l 1
 64 524 l 1
 19 524 l 1
EndSplineSet
EndChar

StartChar: afii10108
Encoding: 1115 1115 416
Width: 517
Flags: HW
TeX: 694 0
HStem: 0 21G<64 160 355 451> 405 75<225.548 332.429> 524 75<19 64 158 403> 675 20G<64 158>
VStem: 64 94<0 356.157 393 524 599 695> 355 96<0 379.856>
LayerCount: 2
Fore
SplineSet
19 524 m 1
 19 599 l 1
 64 599 l 1
 64 695 l 1
 158 695 l 1
 158 599 l 1
 403 599 l 1
 403 524 l 1
 158 524 l 1
 158 443 l 1
 159 393 l 1
 186 436 233 480 308 480 c 0
 448 480 451 375 451 315 c 2
 451 0 l 1
 355 0 l 1
 355 316 l 2
 355 348 353 405 258 405 c 0
 181 405 164 325 161 291 c 1
 160 259 l 1
 160 0 l 1
 64 0 l 1
 64 524 l 1
 19 524 l 1
EndSplineSet
EndChar

StartChar: uni0497
Encoding: 1175 1175 418
Width: 750
Flags: HW
TeX: 472 138
HStem: -139 21G<648 732> 0 21G<17 131.926 329 418> 452 20G<41 173.71 329 418 575.277 708>
VStem: 329 89<0 162 286 472> 648 84<-139 0>
DStem2: 17 0 119 0 0.546093 0.837724<55.7015 328.362> 155 472 41 472 0.682994 -0.730424<0 166.214 253.988 254.7> 418 284 481 229 0.683157 0.730271<0 2.87397 91.331 257.527> 541 293 481 229 0.545374 -0.838193<20.9219 259.624>
LayerCount: 2
Fore
SplineSet
17 0 m 1
 208 293 l 1
 208 294 l 1
 41 472 l 1
 155 472 l 1
 329 286 l 1
 329 472 l 1
 418 472 l 1
 418 284 l 1
 594 472 l 1
 708 472 l 1
 541 294 l 1
 541 293 l 1
 682 75 l 1
 732 75 l 1
 732 -139 l 1
 648 -139 l 1
 648 0 l 1
 630 0 l 1
 481 229 l 1
 418 162 l 1
 418 0 l 1
 329 0 l 1
 329 164 l 1
 267 229 l 1
 119 0 l 1
 17 0 l 1
EndSplineSet
EndChar

StartChar: uni0499
Encoding: 1177 1177 419
Width: 467
Flags: HW
TeX: 472 166
ItalicCorrection: 5
HStem: -38 20G<156.602 241> -8 78<107.222 302.756> 230 59<145 300.555> 409 76<101.978 309.032>
VStem: 330 89<315.526 384.432> 340 91<103.557 197.176>
LayerCount: 2
Fore
SplineSet
88 -184 m 1xf0
 166 -18 l 1
 241 -18 l 1
 174 -184 l 1
 88 -184 l 1xf0
EndSplineSet
Refer: 483 1079 S 1 0 0 1 0 0 3
EndChar

StartChar: afii10106
Encoding: 1113 1113 420
Width: 787
Flags: HW
TeX: 472 0
HStem: -0 78<20 100.502 468 631.783> 230 59<469 623.187> 397 75<232 377>
VStem: 149 83<209.288 397> 377 91<78 230 289 397> 661 91<106.711 197.933>
LayerCount: 2
Fore
SplineSet
20 -0 m 1
 20 80 l 1
 55 80 l 2
 112 80 149 115 149 455 c 2
 149 472 l 1
 468 472 l 1
 468 289 l 1
 561 289 l 2
 681 289 752 224 752 151 c 0
 752 90 722 0 559 -0 c 2
 377 -0 l 1
 377 397 l 1
 232 397 l 1
 232 148 199 14 85 1 c 0
 74 0 63 0 52 -0 c 2
 20 -0 l 1
468 78 m 1
 535 78 l 2
 592 78 627 87 648 115 c 0
 656 126 661 139 661 153 c 0
 661 184 631 230 535 230 c 2
 469 230 l 1
 468 174 l 1
 468 78 l 1
EndSplineSet
EndChar

StartChar: uni049B
Encoding: 1179 1179 422
Width: 487
Flags: HW
TeX: 472 138
HStem: -139 21G<386 469> 0 21G<66 155> 452 20G<66 155 312.277 445>
VStem: 66 89<0 162 284 472> 386 83<-139 0>
DStem2: 155 284 218 229 0.683157 0.730271<0 2.87397 91.331 257.527> 278 293 218 229 0.545374 -0.838193<20.9219 260.169>
LayerCount: 2
Fore
SplineSet
66 0 m 1
 66 472 l 1
 155 472 l 1
 155 284 l 1
 331 472 l 1
 445 472 l 1
 278 294 l 1
 278 293 l 1
 420 75 l 1
 469 75 l 1
 469 -139 l 1
 386 -139 l 1
 386 0 l 1
 367 0 l 1
 218 229 l 1
 155 162 l 1
 155 0 l 1
 66 0 l 1
EndSplineSet
EndChar

StartChar: uni04A1
Encoding: 1185 1185 423
Width: 621
Flags: HW
TeX: 472 0
HStem: 0 21G<200 289 487.9 603> 397 75<26 200>
VStem: 200 89<0 162 284 397>
DStem2: 289 284 351 229 0.683157 0.730271<0 2.19082 91.331 257.527> 412 294 351 229 0.544788 -0.838574<21.2752 295.027>
LayerCount: 2
Fore
SplineSet
26 397 m 1
 26 472 l 1
 289 472 l 1
 289 284 l 1
 465 472 l 1
 579 472 l 1
 412 294 l 1
 603 0 l 1
 501 0 l 1
 351 229 l 1
 289 162 l 1
 289 0 l 1
 200 0 l 1
 200 397 l 1
 26 397 l 1
EndSplineSet
EndChar

StartChar: uni049D
Encoding: 1181 1181 424
Width: 621
Flags: HW
TeX: 472 0
HStem: 0 21G<66 157 488.045 602> 264 59<157 247 306 326> 452 20G<66 157 446.342 579>
VStem: 66 91<0 264 323 472> 247 59<170 264 323 407>
DStem2: 326 323 412 292 0.680139 0.733084<35.7663 203.769> 412 292 330 264 0.545392 -0.838181<0 293.289>
LayerCount: 2
Fore
SplineSet
66 0 m 1
 66 472 l 1
 157 472 l 1
 157 323 l 1
 247 323 l 1
 247 407 l 1
 306 407 l 1
 306 323 l 1
 326 323 l 1
 465 472 l 1
 579 472 l 1
 412 292 l 1
 602 0 l 1
 501 0 l 1
 330 264 l 1
 306 264 l 1
 306 170 l 1
 247 170 l 1
 247 264 l 1
 157 264 l 1
 157 0 l 1
 66 0 l 1
EndSplineSet
EndChar

